<svg width="10" height="10" viewBox="0 0 10 10" fill="none" xmlns="http://www.w3.org/2000/svg">
<g clip-path="url(#clip0_248_1130)">
<path d="M9.90512 9.45596L7.32328 6.91538C7.99938 6.18081 8.4148 5.20934 8.4148 4.14034C8.41447 1.85355 6.53091 0 4.20723 0C1.88356 0 0 1.85355 0 4.14034C0 6.42713 1.88356 8.28068 4.20723 8.28068C5.21122 8.28068 6.13206 7.93342 6.85536 7.35609L9.44722 9.90668C9.5735 10.0311 9.77853 10.0311 9.90482 9.90668C10.0314 9.78229 10.0314 9.58037 9.90512 9.45596ZM4.20723 7.64367C2.24116 7.64367 0.647342 6.07518 0.647342 4.14034C0.647342 2.2055 2.24116 0.637016 4.20723 0.637016C6.17333 0.637016 7.76713 2.2055 7.76713 4.14034C7.76713 6.07518 6.17333 7.64367 4.20723 7.64367Z" fill="black" fill-opacity="0.4"/>
</g>
<defs>
<clipPath id="clip0_248_1130">
<rect width="10" height="10" fill="white"/>
</clipPath>
</defs>
</svg>
