<svg width="156" height="72" viewBox="0 0 156 72" fill="none" xmlns="http://www.w3.org/2000/svg">
<path d="M122.455 0H0.0332031L33.5277 35.9915L0.0332031 72H122.455L155.966 35.9915L122.455 0Z" fill="#E3D5D5"/>
<path d="M48.634 24.216C47.626 24.216 46.66 24.084 45.736 23.82C44.812 23.544 44.068 23.19 43.504 22.758L44.494 20.562C45.034 20.946 45.67 21.264 46.402 21.516C47.146 21.756 47.896 21.876 48.652 21.876C49.228 21.876 49.69 21.822 50.038 21.714C50.398 21.594 50.662 21.432 50.83 21.228C50.998 21.024 51.082 20.79 51.082 20.526C51.082 20.19 50.95 19.926 50.686 19.734C50.422 19.53 50.074 19.368 49.642 19.248C49.21 19.116 48.73 18.996 48.202 18.888C47.686 18.768 47.164 18.624 46.636 18.456C46.12 18.288 45.646 18.072 45.214 17.808C44.782 17.544 44.428 17.196 44.152 16.764C43.888 16.332 43.756 15.78 43.756 15.108C43.756 14.388 43.948 13.734 44.332 13.146C44.728 12.546 45.316 12.072 46.096 11.724C46.888 11.364 47.878 11.184 49.066 11.184C49.858 11.184 50.638 11.28 51.406 11.472C52.174 11.652 52.852 11.928 53.44 12.3L52.54 14.514C51.952 14.178 51.364 13.932 50.776 13.776C50.188 13.608 49.612 13.524 49.048 13.524C48.484 13.524 48.022 13.59 47.662 13.722C47.302 13.854 47.044 14.028 46.888 14.244C46.732 14.448 46.654 14.688 46.654 14.964C46.654 15.288 46.786 15.552 47.05 15.756C47.314 15.948 47.662 16.104 48.094 16.224C48.526 16.344 49 16.464 49.516 16.584C50.044 16.704 50.566 16.842 51.082 16.998C51.61 17.154 52.09 17.364 52.522 17.628C52.954 17.892 53.302 18.24 53.566 18.672C53.842 19.104 53.98 19.65 53.98 20.31C53.98 21.018 53.782 21.666 53.386 22.254C52.99 22.842 52.396 23.316 51.604 23.676C50.824 24.036 49.834 24.216 48.634 24.216ZM59.7345 24.144C58.5945 24.144 57.7065 23.856 57.0705 23.28C56.4345 22.692 56.1165 21.822 56.1165 20.67V12.174H58.9245V20.634C58.9245 21.042 59.0325 21.36 59.2485 21.588C59.4645 21.804 59.7585 21.912 60.1305 21.912C60.5745 21.912 60.9525 21.792 61.2645 21.552L62.0205 23.532C61.7325 23.736 61.3845 23.892 60.9765 24C60.5805 24.096 60.1665 24.144 59.7345 24.144ZM54.6225 16.692V14.532H61.3365V16.692H54.6225ZM68.104 24.144C67 24.144 66.028 23.928 65.188 23.496C64.36 23.064 63.718 22.476 63.262 21.732C62.806 20.976 62.578 20.118 62.578 19.158C62.578 18.186 62.8 17.328 63.244 16.584C63.7 15.828 64.318 15.24 65.098 14.82C65.878 14.388 66.76 14.172 67.744 14.172C68.692 14.172 69.544 14.376 70.3 14.784C71.068 15.18 71.674 15.756 72.118 16.512C72.562 17.256 72.784 18.15 72.784 19.194C72.784 19.302 72.778 19.428 72.766 19.572C72.754 19.704 72.742 19.83 72.73 19.95H64.864V18.312H71.254L70.174 18.798C70.174 18.294 70.072 17.856 69.868 17.484C69.664 17.112 69.382 16.824 69.022 16.62C68.662 16.404 68.242 16.296 67.762 16.296C67.282 16.296 66.856 16.404 66.484 16.62C66.124 16.824 65.842 17.118 65.638 17.502C65.434 17.874 65.332 18.318 65.332 18.834V19.266C65.332 19.794 65.446 20.262 65.674 20.67C65.914 21.066 66.244 21.372 66.664 21.588C67.096 21.792 67.6 21.894 68.176 21.894C68.692 21.894 69.142 21.816 69.526 21.66C69.922 21.504 70.282 21.27 70.606 20.958L72.1 22.578C71.656 23.082 71.098 23.472 70.426 23.748C69.754 24.012 68.98 24.144 68.104 24.144ZM80.3774 24.144C79.5614 24.144 78.8474 23.964 78.2354 23.604C77.6234 23.244 77.1434 22.698 76.7954 21.966C76.4594 21.222 76.2914 20.286 76.2914 19.158C76.2914 18.018 76.4534 17.082 76.7774 16.35C77.1014 15.618 77.5694 15.072 78.1814 14.712C78.7934 14.352 79.5254 14.172 80.3774 14.172C81.2894 14.172 82.1054 14.382 82.8254 14.802C83.5574 15.21 84.1334 15.786 84.5534 16.53C84.9854 17.274 85.2014 18.15 85.2014 19.158C85.2014 20.178 84.9854 21.06 84.5534 21.804C84.1334 22.548 83.5574 23.124 82.8254 23.532C82.1054 23.94 81.2894 24.144 80.3774 24.144ZM74.6534 27.492V14.316H77.3354V16.296L77.2814 19.176L77.4614 22.038V27.492H74.6534ZM79.8914 21.84C80.3594 21.84 80.7734 21.732 81.1334 21.516C81.5054 21.3 81.7994 20.994 82.0154 20.598C82.2434 20.19 82.3574 19.71 82.3574 19.158C82.3574 18.594 82.2434 18.114 82.0154 17.718C81.7994 17.322 81.5054 17.016 81.1334 16.8C80.7734 16.584 80.3594 16.476 79.8914 16.476C79.4234 16.476 79.0034 16.584 78.6314 16.8C78.2594 17.016 77.9654 17.322 77.7494 17.718C77.5334 18.114 77.4254 18.594 77.4254 19.158C77.4254 19.71 77.5334 20.19 77.7494 20.598C77.9654 20.994 78.2594 21.3 78.6314 21.516C79.0034 21.732 79.4234 21.84 79.8914 21.84ZM95.6708 24.216C94.7948 24.216 93.9248 24.102 93.0608 23.874C92.1968 23.634 91.4648 23.298 90.8648 22.866L91.9988 20.634C92.4788 20.982 93.0368 21.258 93.6728 21.462C94.3088 21.666 94.9508 21.768 95.5988 21.768C96.3308 21.768 96.9068 21.624 97.3268 21.336C97.7468 21.048 97.9568 20.652 97.9568 20.148C97.9568 19.668 97.7708 19.29 97.3988 19.014C97.0268 18.738 96.4268 18.6 95.5988 18.6H94.2668V16.674L97.7768 12.696L98.1008 13.74H91.4948V11.4H100.315V13.29L96.8228 17.268L95.3468 16.422H96.1928C97.7408 16.422 98.9108 16.77 99.7028 17.466C100.495 18.162 100.891 19.056 100.891 20.148C100.891 20.856 100.705 21.522 100.333 22.146C99.9608 22.758 99.3908 23.256 98.6228 23.64C97.8548 24.024 96.8708 24.216 95.6708 24.216ZM103.893 17.682C103.413 17.682 102.999 17.52 102.651 17.196C102.315 16.86 102.147 16.434 102.147 15.918C102.147 15.402 102.315 14.988 102.651 14.676C102.999 14.352 103.413 14.19 103.893 14.19C104.385 14.19 104.799 14.352 105.135 14.676C105.471 14.988 105.639 15.402 105.639 15.918C105.639 16.434 105.471 16.86 105.135 17.196C104.799 17.52 104.385 17.682 103.893 17.682ZM103.893 24.144C103.413 24.144 102.999 23.982 102.651 23.658C102.315 23.322 102.147 22.896 102.147 22.38C102.147 21.864 102.315 21.45 102.651 21.138C102.999 20.814 103.413 20.652 103.893 20.652C104.385 20.652 104.799 20.814 105.135 21.138C105.471 21.45 105.639 21.864 105.639 22.38C105.639 22.896 105.471 23.322 105.135 23.658C104.799 23.982 104.385 24.144 103.893 24.144ZM46.192 42L43.384 33.6H44.62L47.2 41.352H46.576L49.252 33.6H50.356L52.972 41.352H52.372L54.988 33.6H56.128L53.32 42H52.06L49.612 34.812H49.936L47.476 42H46.192ZM60.9997 35.58C61.5197 35.58 61.9757 35.68 62.3677 35.88C62.7677 36.08 63.0797 36.384 63.3037 36.792C63.5277 37.2 63.6397 37.716 63.6397 38.34V42H62.4877V38.472C62.4877 37.856 62.3357 37.392 62.0317 37.08C61.7357 36.768 61.3157 36.612 60.7717 36.612C60.3637 36.612 60.0077 36.692 59.7037 36.852C59.3997 37.012 59.1637 37.248 58.9957 37.56C58.8357 37.872 58.7557 38.26 58.7557 38.724V42H57.6037V33.096H58.7557V37.356L58.5277 36.9C58.7357 36.484 59.0557 36.16 59.4877 35.928C59.9197 35.696 60.4237 35.58 60.9997 35.58ZM68.4957 42.072C67.8557 42.072 67.2877 41.932 66.7917 41.652C66.2957 41.372 65.9037 40.988 65.6157 40.5C65.3277 40.004 65.1837 39.444 65.1837 38.82C65.1837 38.188 65.3277 37.628 65.6157 37.14C65.9037 36.652 66.2957 36.272 66.7917 36C67.2877 35.72 67.8557 35.58 68.4957 35.58C69.1277 35.58 69.6917 35.72 70.1877 36C70.6917 36.272 71.0837 36.652 71.3637 37.14C71.6517 37.62 71.7957 38.18 71.7957 38.82C71.7957 39.452 71.6517 40.012 71.3637 40.5C71.0837 40.988 70.6917 41.372 70.1877 41.652C69.6917 41.932 69.1277 42.072 68.4957 42.072ZM68.4957 41.064C68.9037 41.064 69.2677 40.972 69.5877 40.788C69.9157 40.604 70.1717 40.344 70.3557 40.008C70.5397 39.664 70.6317 39.268 70.6317 38.82C70.6317 38.364 70.5397 37.972 70.3557 37.644C70.1717 37.308 69.9157 37.048 69.5877 36.864C69.2677 36.68 68.9037 36.588 68.4957 36.588C68.0877 36.588 67.7237 36.68 67.4037 36.864C67.0837 37.048 66.8277 37.308 66.6357 37.644C66.4437 37.972 66.3477 38.364 66.3477 38.82C66.3477 39.268 66.4437 39.664 66.6357 40.008C66.8277 40.344 67.0837 40.604 67.4037 40.788C67.7237 40.972 68.0877 41.064 68.4957 41.064ZM76.8875 44.4C76.5835 44.4 76.2875 44.348 75.9995 44.244C75.7115 44.148 75.4635 44.004 75.2555 43.812L75.7475 42.948C75.9075 43.1 76.0835 43.216 76.2755 43.296C76.4675 43.376 76.6715 43.416 76.8875 43.416C77.1675 43.416 77.3995 43.344 77.5835 43.2C77.7675 43.056 77.9395 42.8 78.0995 42.432L78.4955 41.556L78.6155 41.412L81.1115 35.64H82.2395L79.1555 42.636C78.9715 43.084 78.7635 43.436 78.5315 43.692C78.3075 43.948 78.0595 44.128 77.7875 44.232C77.5155 44.344 77.2155 44.4 76.8875 44.4ZM78.3995 42.204L75.4955 35.64H76.6955L79.1675 41.304L78.3995 42.204ZM85.8629 42.072C85.2229 42.072 84.6549 41.932 84.1589 41.652C83.6629 41.372 83.2709 40.988 82.9829 40.5C82.6949 40.004 82.5509 39.444 82.5509 38.82C82.5509 38.188 82.6949 37.628 82.9829 37.14C83.2709 36.652 83.6629 36.272 84.1589 36C84.6549 35.72 85.2229 35.58 85.8629 35.58C86.4949 35.58 87.0589 35.72 87.5549 36C88.0589 36.272 88.4509 36.652 88.7309 37.14C89.0189 37.62 89.1629 38.18 89.1629 38.82C89.1629 39.452 89.0189 40.012 88.7309 40.5C88.4509 40.988 88.0589 41.372 87.5549 41.652C87.0589 41.932 86.4949 42.072 85.8629 42.072ZM85.8629 41.064C86.2709 41.064 86.6349 40.972 86.9549 40.788C87.2829 40.604 87.5389 40.344 87.7229 40.008C87.9069 39.664 87.9989 39.268 87.9989 38.82C87.9989 38.364 87.9069 37.972 87.7229 37.644C87.5389 37.308 87.2829 37.048 86.9549 36.864C86.6349 36.68 86.2709 36.588 85.8629 36.588C85.4549 36.588 85.0909 36.68 84.7709 36.864C84.4509 37.048 84.1949 37.308 84.0029 37.644C83.8109 37.972 83.7149 38.364 83.7149 38.82C83.7149 39.268 83.8109 39.664 84.0029 40.008C84.1949 40.344 84.4509 40.604 84.7709 40.788C85.0909 40.972 85.4549 41.064 85.8629 41.064ZM93.4321 42.072C92.8881 42.072 92.4081 41.972 91.9921 41.772C91.5841 41.572 91.2641 41.268 91.0321 40.86C90.8081 40.444 90.6961 39.924 90.6961 39.3V35.64H91.8481V39.168C91.8481 39.792 91.9961 40.26 92.2921 40.572C92.5961 40.884 93.0201 41.04 93.5641 41.04C93.9641 41.04 94.3121 40.96 94.6081 40.8C94.9041 40.632 95.1321 40.392 95.2921 40.08C95.4521 39.76 95.5321 39.376 95.5321 38.928V35.64H96.6841V42H95.5921V40.284L95.7721 40.74C95.5641 41.164 95.2521 41.492 94.8361 41.724C94.4201 41.956 93.9521 42.072 93.4321 42.072ZM44.26 60V51.6H45.46V60H44.26ZM50.4348 60.072C49.8188 60.072 49.2668 59.936 48.7788 59.664C48.2988 59.392 47.9188 59.012 47.6388 58.524C47.3588 58.036 47.2188 57.468 47.2188 56.82C47.2188 56.172 47.3588 55.608 47.6388 55.128C47.9188 54.64 48.2988 54.26 48.7788 53.988C49.2668 53.716 49.8188 53.58 50.4348 53.58C50.9708 53.58 51.4548 53.7 51.8868 53.94C52.3188 54.18 52.6628 54.54 52.9188 55.02C53.1828 55.5 53.3148 56.1 53.3148 56.82C53.3148 57.54 53.1868 58.14 52.9308 58.62C52.6828 59.1 52.3428 59.464 51.9108 59.712C51.4788 59.952 50.9868 60.072 50.4348 60.072ZM50.5308 59.064C50.9308 59.064 51.2908 58.972 51.6108 58.788C51.9388 58.604 52.1948 58.344 52.3788 58.008C52.5708 57.664 52.6668 57.268 52.6668 56.82C52.6668 56.364 52.5708 55.972 52.3788 55.644C52.1948 55.308 51.9388 55.048 51.6108 54.864C51.2908 54.68 50.9308 54.588 50.5308 54.588C50.1228 54.588 49.7588 54.68 49.4388 54.864C49.1188 55.048 48.8628 55.308 48.6708 55.644C48.4788 55.972 48.3828 56.364 48.3828 56.82C48.3828 57.268 48.4788 57.664 48.6708 58.008C48.8628 58.344 49.1188 58.604 49.4388 58.788C49.7588 58.972 50.1228 59.064 50.5308 59.064ZM52.7028 60V58.284L52.7748 56.808L52.6548 55.332V51.096H53.8068V60H52.7028ZM58.8185 60.072C58.1385 60.072 57.5385 59.932 57.0185 59.652C56.5065 59.372 56.1065 58.988 55.8185 58.5C55.5385 58.012 55.3985 57.452 55.3985 56.82C55.3985 56.188 55.5345 55.628 55.8065 55.14C56.0865 54.652 56.4665 54.272 56.9465 54C57.4345 53.72 57.9825 53.58 58.5905 53.58C59.2065 53.58 59.7505 53.716 60.2225 53.988C60.6945 54.26 61.0625 54.644 61.3265 55.14C61.5985 55.628 61.7345 56.2 61.7345 56.856C61.7345 56.904 61.7305 56.96 61.7225 57.024C61.7225 57.088 61.7185 57.148 61.7105 57.204H56.2985V56.376H61.1105L60.6425 56.664C60.6505 56.256 60.5665 55.892 60.3905 55.572C60.2145 55.252 59.9705 55.004 59.6585 54.828C59.3545 54.644 58.9985 54.552 58.5905 54.552C58.1905 54.552 57.8345 54.644 57.5225 54.828C57.2105 55.004 56.9665 55.256 56.7905 55.584C56.6145 55.904 56.5265 56.272 56.5265 56.688V56.88C56.5265 57.304 56.6225 57.684 56.8145 58.02C57.0145 58.348 57.2905 58.604 57.6425 58.788C57.9945 58.972 58.3985 59.064 58.8545 59.064C59.2305 59.064 59.5705 59 59.8745 58.872C60.1865 58.744 60.4585 58.552 60.6905 58.296L61.3265 59.04C61.0385 59.376 60.6785 59.632 60.2465 59.808C59.8225 59.984 59.3465 60.072 58.8185 60.072ZM66.7302 53.58C67.2502 53.58 67.7062 53.68 68.0982 53.88C68.4982 54.08 68.8102 54.384 69.0342 54.792C69.2582 55.2 69.3702 55.716 69.3702 56.34V60H68.2182V56.472C68.2182 55.856 68.0662 55.392 67.7622 55.08C67.4662 54.768 67.0462 54.612 66.5022 54.612C66.0942 54.612 65.7382 54.692 65.4342 54.852C65.1302 55.012 64.8942 55.248 64.7262 55.56C64.5662 55.872 64.4862 56.26 64.4862 56.724V60H63.3342V53.64H64.4382V55.356L64.2582 54.9C64.4662 54.484 64.7862 54.16 65.2182 53.928C65.6502 53.696 66.1542 53.58 66.7302 53.58ZM73.6862 60.072C73.0462 60.072 72.5502 59.9 72.1982 59.556C71.8462 59.212 71.6702 58.72 71.6702 58.08V52.248H72.8222V58.032C72.8222 58.376 72.9062 58.64 73.0742 58.824C73.2502 59.008 73.4982 59.1 73.8182 59.1C74.1782 59.1 74.4782 59 74.7182 58.8L75.0782 59.628C74.9022 59.78 74.6902 59.892 74.4422 59.964C74.2022 60.036 73.9502 60.072 73.6862 60.072ZM70.5902 54.588V53.64H74.6462V54.588H70.5902ZM76.4709 60V53.64H77.6229V60H76.4709ZM77.0469 52.416C76.8229 52.416 76.6349 52.344 76.4829 52.2C76.3389 52.056 76.2669 51.88 76.2669 51.672C76.2669 51.456 76.3389 51.276 76.4829 51.132C76.6349 50.988 76.8229 50.916 77.0469 50.916C77.2709 50.916 77.4549 50.988 77.5989 51.132C77.7509 51.268 77.8269 51.44 77.8269 51.648C77.8269 51.864 77.7549 52.048 77.6109 52.2C77.4669 52.344 77.2789 52.416 77.0469 52.416ZM79.9905 60V53.076C79.9905 52.452 80.1705 51.956 80.5305 51.588C80.8985 51.212 81.4185 51.024 82.0905 51.024C82.3385 51.024 82.5745 51.056 82.7985 51.12C83.0305 51.176 83.2265 51.268 83.3865 51.396L83.0385 52.272C82.9185 52.176 82.7825 52.104 82.6305 52.056C82.4785 52 82.3185 51.972 82.1505 51.972C81.8145 51.972 81.5585 52.068 81.3825 52.26C81.2065 52.444 81.1185 52.72 81.1185 53.088V53.94L81.1425 54.468V60H79.9905ZM78.9105 54.588V53.64H82.9665V54.588H78.9105ZM84.4461 62.4C84.1421 62.4 83.8461 62.348 83.5581 62.244C83.2701 62.148 83.0221 62.004 82.8141 61.812L83.3061 60.948C83.4661 61.1 83.6421 61.216 83.8341 61.296C84.0261 61.376 84.2301 61.416 84.4461 61.416C84.7261 61.416 84.9581 61.344 85.1421 61.2C85.3261 61.056 85.4981 60.8 85.6581 60.432L86.0541 59.556L86.1741 59.412L88.6701 53.64H89.7981L86.7141 60.636C86.5301 61.084 86.3221 61.436 86.0901 61.692C85.8661 61.948 85.6181 62.128 85.3461 62.232C85.0741 62.344 84.7741 62.4 84.4461 62.4ZM85.9581 60.204L83.0541 53.64H84.2541L86.7261 59.304L85.9581 60.204ZM95.4399 60L93.0759 53.64H94.1679L96.2679 59.4H95.7519L97.9359 53.64H98.9079L101.044 59.4H100.54L102.688 53.64H103.72L101.344 60H100.24L98.2359 54.744H98.5719L96.5439 60H95.4399ZM104.889 60V53.64H106.041V60H104.889ZM105.465 52.416C105.241 52.416 105.053 52.344 104.901 52.2C104.757 52.056 104.685 51.88 104.685 51.672C104.685 51.456 104.757 51.276 104.901 51.132C105.053 50.988 105.241 50.916 105.465 50.916C105.689 50.916 105.873 50.988 106.017 51.132C106.169 51.268 106.245 51.44 106.245 51.648C106.245 51.864 106.173 52.048 106.029 52.2C105.885 52.344 105.697 52.416 105.465 52.416ZM110.424 60.072C109.784 60.072 109.288 59.9 108.936 59.556C108.584 59.212 108.408 58.72 108.408 58.08V52.248H109.56V58.032C109.56 58.376 109.644 58.64 109.812 58.824C109.988 59.008 110.236 59.1 110.556 59.1C110.916 59.1 111.216 59 111.456 58.8L111.816 59.628C111.64 59.78 111.428 59.892 111.18 59.964C110.94 60.036 110.688 60.072 110.424 60.072ZM107.328 54.588V53.64H111.384V54.588H107.328ZM116.605 53.58C117.125 53.58 117.581 53.68 117.973 53.88C118.373 54.08 118.685 54.384 118.909 54.792C119.133 55.2 119.245 55.716 119.245 56.34V60H118.093V56.472C118.093 55.856 117.941 55.392 117.637 55.08C117.341 54.768 116.921 54.612 116.377 54.612C115.969 54.612 115.613 54.692 115.309 54.852C115.005 55.012 114.769 55.248 114.601 55.56C114.441 55.872 114.361 56.26 114.361 56.724V60H113.209V51.096H114.361V55.356L114.133 54.9C114.341 54.484 114.661 54.16 115.093 53.928C115.525 53.696 116.029 53.58 116.605 53.58Z" fill="#003B79"/>
</svg>
