<svg width="157" height="72" viewBox="0 0 157 72" fill="none" xmlns="http://www.w3.org/2000/svg">
<path d="M122.947 0H0.525391L34.0199 35.9915L0.525391 72H122.947L156.442 35.9915L122.947 0Z" fill="#FCCA4D"/>
<path d="M50.634 24.216C49.626 24.216 48.66 24.084 47.736 23.82C46.812 23.544 46.068 23.19 45.504 22.758L46.494 20.562C47.034 20.946 47.67 21.264 48.402 21.516C49.146 21.756 49.896 21.876 50.652 21.876C51.228 21.876 51.69 21.822 52.038 21.714C52.398 21.594 52.662 21.432 52.83 21.228C52.998 21.024 53.082 20.79 53.082 20.526C53.082 20.19 52.95 19.926 52.686 19.734C52.422 19.53 52.074 19.368 51.642 19.248C51.21 19.116 50.73 18.996 50.202 18.888C49.686 18.768 49.164 18.624 48.636 18.456C48.12 18.288 47.646 18.072 47.214 17.808C46.782 17.544 46.428 17.196 46.152 16.764C45.888 16.332 45.756 15.78 45.756 15.108C45.756 14.388 45.948 13.734 46.332 13.146C46.728 12.546 47.316 12.072 48.096 11.724C48.888 11.364 49.878 11.184 51.066 11.184C51.858 11.184 52.638 11.28 53.406 11.472C54.174 11.652 54.852 11.928 55.44 12.3L54.54 14.514C53.952 14.178 53.364 13.932 52.776 13.776C52.188 13.608 51.612 13.524 51.048 13.524C50.484 13.524 50.022 13.59 49.662 13.722C49.302 13.854 49.044 14.028 48.888 14.244C48.732 14.448 48.654 14.688 48.654 14.964C48.654 15.288 48.786 15.552 49.05 15.756C49.314 15.948 49.662 16.104 50.094 16.224C50.526 16.344 51 16.464 51.516 16.584C52.044 16.704 52.566 16.842 53.082 16.998C53.61 17.154 54.09 17.364 54.522 17.628C54.954 17.892 55.302 18.24 55.566 18.672C55.842 19.104 55.98 19.65 55.98 20.31C55.98 21.018 55.782 21.666 55.386 22.254C54.99 22.842 54.396 23.316 53.604 23.676C52.824 24.036 51.834 24.216 50.634 24.216ZM61.7345 24.144C60.5945 24.144 59.7065 23.856 59.0705 23.28C58.4345 22.692 58.1165 21.822 58.1165 20.67V12.174H60.9245V20.634C60.9245 21.042 61.0325 21.36 61.2485 21.588C61.4645 21.804 61.7585 21.912 62.1305 21.912C62.5745 21.912 62.9525 21.792 63.2645 21.552L64.0205 23.532C63.7325 23.736 63.3845 23.892 62.9765 24C62.5805 24.096 62.1665 24.144 61.7345 24.144ZM56.6225 16.692V14.532H63.3365V16.692H56.6225ZM70.104 24.144C69 24.144 68.028 23.928 67.188 23.496C66.36 23.064 65.718 22.476 65.262 21.732C64.806 20.976 64.578 20.118 64.578 19.158C64.578 18.186 64.8 17.328 65.244 16.584C65.7 15.828 66.318 15.24 67.098 14.82C67.878 14.388 68.76 14.172 69.744 14.172C70.692 14.172 71.544 14.376 72.3 14.784C73.068 15.18 73.674 15.756 74.118 16.512C74.562 17.256 74.784 18.15 74.784 19.194C74.784 19.302 74.778 19.428 74.766 19.572C74.754 19.704 74.742 19.83 74.73 19.95H66.864V18.312H73.254L72.174 18.798C72.174 18.294 72.072 17.856 71.868 17.484C71.664 17.112 71.382 16.824 71.022 16.62C70.662 16.404 70.242 16.296 69.762 16.296C69.282 16.296 68.856 16.404 68.484 16.62C68.124 16.824 67.842 17.118 67.638 17.502C67.434 17.874 67.332 18.318 67.332 18.834V19.266C67.332 19.794 67.446 20.262 67.674 20.67C67.914 21.066 68.244 21.372 68.664 21.588C69.096 21.792 69.6 21.894 70.176 21.894C70.692 21.894 71.142 21.816 71.526 21.66C71.922 21.504 72.282 21.27 72.606 20.958L74.1 22.578C73.656 23.082 73.098 23.472 72.426 23.748C71.754 24.012 70.98 24.144 70.104 24.144ZM82.3774 24.144C81.5614 24.144 80.8474 23.964 80.2354 23.604C79.6234 23.244 79.1434 22.698 78.7954 21.966C78.4594 21.222 78.2914 20.286 78.2914 19.158C78.2914 18.018 78.4534 17.082 78.7774 16.35C79.1014 15.618 79.5694 15.072 80.1814 14.712C80.7934 14.352 81.5254 14.172 82.3774 14.172C83.2894 14.172 84.1054 14.382 84.8254 14.802C85.5574 15.21 86.1334 15.786 86.5534 16.53C86.9854 17.274 87.2014 18.15 87.2014 19.158C87.2014 20.178 86.9854 21.06 86.5534 21.804C86.1334 22.548 85.5574 23.124 84.8254 23.532C84.1054 23.94 83.2894 24.144 82.3774 24.144ZM76.6534 27.492V14.316H79.3354V16.296L79.2814 19.176L79.4614 22.038V27.492H76.6534ZM81.8914 21.84C82.3594 21.84 82.7734 21.732 83.1334 21.516C83.5054 21.3 83.7994 20.994 84.0154 20.598C84.2434 20.19 84.3574 19.71 84.3574 19.158C84.3574 18.594 84.2434 18.114 84.0154 17.718C83.7994 17.322 83.5054 17.016 83.1334 16.8C82.7734 16.584 82.3594 16.476 81.8914 16.476C81.4234 16.476 81.0034 16.584 80.6314 16.8C80.2594 17.016 79.9654 17.322 79.7494 17.718C79.5334 18.114 79.4254 18.594 79.4254 19.158C79.4254 19.71 79.5334 20.19 79.7494 20.598C79.9654 20.994 80.2594 21.3 80.6314 21.516C81.0034 21.732 81.4234 21.84 81.8914 21.84ZM93.4768 24V22.11L98.3368 17.52C98.7208 17.172 99.0028 16.86 99.1828 16.584C99.3628 16.308 99.4828 16.056 99.5428 15.828C99.6148 15.6 99.6508 15.39 99.6508 15.198C99.6508 14.694 99.4768 14.31 99.1288 14.046C98.7928 13.77 98.2948 13.632 97.6348 13.632C97.1068 13.632 96.6148 13.734 96.1588 13.938C95.7148 14.142 95.3368 14.46 95.0248 14.892L92.9008 13.524C93.3808 12.804 94.0528 12.234 94.9168 11.814C95.7808 11.394 96.7768 11.184 97.9048 11.184C98.8408 11.184 99.6568 11.34 100.353 11.652C101.061 11.952 101.607 12.378 101.991 12.93C102.387 13.482 102.585 14.142 102.585 14.91C102.585 15.318 102.531 15.726 102.423 16.134C102.327 16.53 102.123 16.95 101.811 17.394C101.511 17.838 101.067 18.336 100.479 18.888L96.4468 22.686L95.8888 21.624H102.999V24H93.4768ZM105.858 17.682C105.378 17.682 104.964 17.52 104.616 17.196C104.28 16.86 104.112 16.434 104.112 15.918C104.112 15.402 104.28 14.988 104.616 14.676C104.964 14.352 105.378 14.19 105.858 14.19C106.35 14.19 106.764 14.352 107.1 14.676C107.436 14.988 107.604 15.402 107.604 15.918C107.604 16.434 107.436 16.86 107.1 17.196C106.764 17.52 106.35 17.682 105.858 17.682ZM105.858 24.144C105.378 24.144 104.964 23.982 104.616 23.658C104.28 23.322 104.112 22.896 104.112 22.38C104.112 21.864 104.28 21.45 104.616 21.138C104.964 20.814 105.378 20.652 105.858 20.652C106.35 20.652 106.764 20.814 107.1 21.138C107.436 21.45 107.604 21.864 107.604 22.38C107.604 22.896 107.436 23.322 107.1 23.658C106.764 23.982 106.35 24.144 105.858 24.144ZM50.016 42.096C49.376 42.096 48.784 41.992 48.24 41.784C47.704 41.568 47.236 41.268 46.836 40.884C46.444 40.492 46.136 40.036 45.912 39.516C45.688 38.996 45.576 38.424 45.576 37.8C45.576 37.176 45.688 36.604 45.912 36.084C46.136 35.564 46.448 35.112 46.848 34.728C47.248 34.336 47.716 34.036 48.252 33.828C48.796 33.612 49.388 33.504 50.028 33.504C50.676 33.504 51.272 33.616 51.816 33.84C52.368 34.056 52.836 34.38 53.22 34.812L52.44 35.568C52.12 35.232 51.76 34.984 51.36 34.824C50.96 34.656 50.532 34.572 50.076 34.572C49.604 34.572 49.164 34.652 48.756 34.812C48.356 34.972 48.008 35.196 47.712 35.484C47.416 35.772 47.184 36.116 47.016 36.516C46.856 36.908 46.776 37.336 46.776 37.8C46.776 38.264 46.856 38.696 47.016 39.096C47.184 39.488 47.416 39.828 47.712 40.116C48.008 40.404 48.356 40.628 48.756 40.788C49.164 40.948 49.604 41.028 50.076 41.028C50.532 41.028 50.96 40.948 51.36 40.788C51.76 40.62 52.12 40.364 52.44 40.02L53.22 40.776C52.836 41.208 52.368 41.536 51.816 41.76C51.272 41.984 50.672 42.096 50.016 42.096ZM58.1599 35.58C58.6799 35.58 59.1359 35.68 59.5279 35.88C59.9279 36.08 60.2399 36.384 60.4639 36.792C60.6879 37.2 60.7999 37.716 60.7999 38.34V42H59.6479V38.472C59.6479 37.856 59.4959 37.392 59.1919 37.08C58.8959 36.768 58.4759 36.612 57.9319 36.612C57.5239 36.612 57.1679 36.692 56.8639 36.852C56.5599 37.012 56.3239 37.248 56.1559 37.56C55.9959 37.872 55.9159 38.26 55.9159 38.724V42H54.7639V33.096H55.9159V37.356L55.6879 36.9C55.8959 36.484 56.2159 36.16 56.6479 35.928C57.0799 35.696 57.5839 35.58 58.1599 35.58ZM65.6558 42.072C65.0158 42.072 64.4478 41.932 63.9518 41.652C63.4558 41.372 63.0638 40.988 62.7758 40.5C62.4878 40.004 62.3438 39.444 62.3438 38.82C62.3438 38.188 62.4878 37.628 62.7758 37.14C63.0638 36.652 63.4558 36.272 63.9518 36C64.4478 35.72 65.0158 35.58 65.6558 35.58C66.2878 35.58 66.8518 35.72 67.3478 36C67.8518 36.272 68.2438 36.652 68.5238 37.14C68.8118 37.62 68.9558 38.18 68.9558 38.82C68.9558 39.452 68.8118 40.012 68.5238 40.5C68.2438 40.988 67.8518 41.372 67.3478 41.652C66.8518 41.932 66.2878 42.072 65.6558 42.072ZM65.6558 41.064C66.0638 41.064 66.4278 40.972 66.7478 40.788C67.0758 40.604 67.3318 40.344 67.5158 40.008C67.6998 39.664 67.7918 39.268 67.7918 38.82C67.7918 38.364 67.6998 37.972 67.5158 37.644C67.3318 37.308 67.0758 37.048 66.7478 36.864C66.4278 36.68 66.0638 36.588 65.6558 36.588C65.2478 36.588 64.8838 36.68 64.5638 36.864C64.2438 37.048 63.9878 37.308 63.7958 37.644C63.6038 37.972 63.5078 38.364 63.5078 38.82C63.5078 39.268 63.6038 39.664 63.7958 40.008C63.9878 40.344 64.2438 40.604 64.5638 40.788C64.8838 40.972 65.2478 41.064 65.6558 41.064ZM73.273 42.072C72.633 42.072 72.065 41.932 71.569 41.652C71.073 41.372 70.681 40.988 70.393 40.5C70.105 40.004 69.961 39.444 69.961 38.82C69.961 38.188 70.105 37.628 70.393 37.14C70.681 36.652 71.073 36.272 71.569 36C72.065 35.72 72.633 35.58 73.273 35.58C73.905 35.58 74.469 35.72 74.965 36C75.469 36.272 75.861 36.652 76.141 37.14C76.429 37.62 76.573 38.18 76.573 38.82C76.573 39.452 76.429 40.012 76.141 40.5C75.861 40.988 75.469 41.372 74.965 41.652C74.469 41.932 73.905 42.072 73.273 42.072ZM73.273 41.064C73.681 41.064 74.045 40.972 74.365 40.788C74.693 40.604 74.949 40.344 75.133 40.008C75.317 39.664 75.409 39.268 75.409 38.82C75.409 38.364 75.317 37.972 75.133 37.644C74.949 37.308 74.693 37.048 74.365 36.864C74.045 36.68 73.681 36.588 73.273 36.588C72.865 36.588 72.501 36.68 72.181 36.864C71.861 37.048 71.605 37.308 71.413 37.644C71.221 37.972 71.125 38.364 71.125 38.82C71.125 39.268 71.221 39.664 71.413 40.008C71.605 40.344 71.861 40.604 72.181 40.788C72.501 40.972 72.865 41.064 73.273 41.064ZM79.9902 42.072C79.4622 42.072 78.9582 42 78.4782 41.856C78.0062 41.712 77.6342 41.536 77.3622 41.328L77.8422 40.416C78.1142 40.6 78.4502 40.756 78.8502 40.884C79.2502 41.012 79.6582 41.076 80.0742 41.076C80.6102 41.076 80.9942 41 81.2262 40.848C81.4662 40.696 81.5862 40.484 81.5862 40.212C81.5862 40.012 81.5142 39.856 81.3702 39.744C81.2262 39.632 81.0342 39.548 80.7942 39.492C80.5622 39.436 80.3022 39.388 80.0142 39.348C79.7262 39.3 79.4382 39.244 79.1502 39.18C78.8622 39.108 78.5982 39.012 78.3582 38.892C78.1182 38.764 77.9262 38.592 77.7822 38.376C77.6382 38.152 77.5662 37.856 77.5662 37.488C77.5662 37.104 77.6742 36.768 77.8902 36.48C78.1062 36.192 78.4102 35.972 78.8022 35.82C79.2022 35.66 79.6742 35.58 80.2182 35.58C80.6342 35.58 81.0542 35.632 81.4782 35.736C81.9102 35.832 82.2622 35.972 82.5342 36.156L82.0422 37.068C81.7542 36.876 81.4542 36.744 81.1422 36.672C80.8302 36.6 80.5182 36.564 80.2062 36.564C79.7022 36.564 79.3262 36.648 79.0782 36.816C78.8302 36.976 78.7062 37.184 78.7062 37.44C78.7062 37.656 78.7782 37.824 78.9222 37.944C79.0742 38.056 79.2662 38.144 79.4982 38.208C79.7382 38.272 80.0022 38.328 80.2902 38.376C80.5782 38.416 80.8662 38.472 81.1542 38.544C81.4422 38.608 81.7022 38.7 81.9342 38.82C82.1742 38.94 82.3662 39.108 82.5102 39.324C82.6622 39.54 82.7382 39.828 82.7382 40.188C82.7382 40.572 82.6262 40.904 82.4022 41.184C82.1782 41.464 81.8622 41.684 81.4542 41.844C81.0462 41.996 80.5582 42.072 79.9902 42.072ZM87.0099 42.072C86.3299 42.072 85.7299 41.932 85.2099 41.652C84.6979 41.372 84.2979 40.988 84.0099 40.5C83.7299 40.012 83.5899 39.452 83.5899 38.82C83.5899 38.188 83.7259 37.628 83.9979 37.14C84.2779 36.652 84.6579 36.272 85.1379 36C85.6259 35.72 86.1739 35.58 86.7819 35.58C87.3979 35.58 87.9419 35.716 88.4139 35.988C88.8859 36.26 89.2539 36.644 89.5179 37.14C89.7899 37.628 89.9259 38.2 89.9259 38.856C89.9259 38.904 89.9219 38.96 89.9139 39.024C89.9139 39.088 89.9099 39.148 89.9019 39.204H84.4899V38.376H89.3019L88.8339 38.664C88.8419 38.256 88.7579 37.892 88.5819 37.572C88.4059 37.252 88.1619 37.004 87.8499 36.828C87.5459 36.644 87.1899 36.552 86.7819 36.552C86.3819 36.552 86.0259 36.644 85.7139 36.828C85.4019 37.004 85.1579 37.256 84.9819 37.584C84.8059 37.904 84.7179 38.272 84.7179 38.688V38.88C84.7179 39.304 84.8139 39.684 85.0059 40.02C85.2059 40.348 85.4819 40.604 85.8339 40.788C86.1859 40.972 86.5899 41.064 87.0459 41.064C87.4219 41.064 87.7619 41 88.0659 40.872C88.3779 40.744 88.6499 40.552 88.8819 40.296L89.5179 41.04C89.2299 41.376 88.8699 41.632 88.4379 41.808C88.0139 41.984 87.5379 42.072 87.0099 42.072ZM95.0243 44.4C94.7203 44.4 94.4243 44.348 94.1363 44.244C93.8483 44.148 93.6002 44.004 93.3922 43.812L93.8843 42.948C94.0443 43.1 94.2203 43.216 94.4123 43.296C94.6043 43.376 94.8083 43.416 95.0243 43.416C95.3043 43.416 95.5363 43.344 95.7203 43.2C95.9043 43.056 96.0763 42.8 96.2363 42.432L96.6323 41.556L96.7523 41.412L99.2483 35.64H100.376L97.2923 42.636C97.1083 43.084 96.9003 43.436 96.6683 43.692C96.4443 43.948 96.1963 44.128 95.9243 44.232C95.6523 44.344 95.3523 44.4 95.0243 44.4ZM96.5363 42.204L93.6322 35.64H94.8323L97.3043 41.304L96.5363 42.204ZM104 42.072C103.36 42.072 102.792 41.932 102.296 41.652C101.8 41.372 101.408 40.988 101.12 40.5C100.832 40.004 100.688 39.444 100.688 38.82C100.688 38.188 100.832 37.628 101.12 37.14C101.408 36.652 101.8 36.272 102.296 36C102.792 35.72 103.36 35.58 104 35.58C104.632 35.58 105.196 35.72 105.692 36C106.196 36.272 106.588 36.652 106.868 37.14C107.156 37.62 107.3 38.18 107.3 38.82C107.3 39.452 107.156 40.012 106.868 40.5C106.588 40.988 106.196 41.372 105.692 41.652C105.196 41.932 104.632 42.072 104 42.072ZM104 41.064C104.408 41.064 104.772 40.972 105.092 40.788C105.42 40.604 105.676 40.344 105.86 40.008C106.044 39.664 106.136 39.268 106.136 38.82C106.136 38.364 106.044 37.972 105.86 37.644C105.676 37.308 105.42 37.048 105.092 36.864C104.772 36.68 104.408 36.588 104 36.588C103.592 36.588 103.228 36.68 102.908 36.864C102.588 37.048 102.332 37.308 102.14 37.644C101.948 37.972 101.852 38.364 101.852 38.82C101.852 39.268 101.948 39.664 102.14 40.008C102.332 40.344 102.588 40.604 102.908 40.788C103.228 40.972 103.592 41.064 104 41.064ZM111.569 42.072C111.025 42.072 110.545 41.972 110.129 41.772C109.721 41.572 109.401 41.268 109.169 40.86C108.945 40.444 108.833 39.924 108.833 39.3V35.64H109.985V39.168C109.985 39.792 110.133 40.26 110.429 40.572C110.733 40.884 111.157 41.04 111.701 41.04C112.101 41.04 112.449 40.96 112.745 40.8C113.041 40.632 113.269 40.392 113.429 40.08C113.589 39.76 113.669 39.376 113.669 38.928V35.64H114.821V42H113.729V40.284L113.909 40.74C113.701 41.164 113.389 41.492 112.973 41.724C112.557 41.956 112.089 42.072 111.569 42.072ZM117.014 42V35.64H118.118V37.368L118.01 36.936C118.186 36.496 118.482 36.16 118.898 35.928C119.314 35.696 119.826 35.58 120.434 35.58V36.696C120.386 36.688 120.338 36.684 120.29 36.684C120.25 36.684 120.21 36.684 120.17 36.684C119.554 36.684 119.066 36.868 118.706 37.236C118.346 37.604 118.166 38.136 118.166 38.832V42H117.014ZM44.988 60L48.792 51.6H49.98L53.796 60H52.536L49.14 52.272H49.62L46.224 60H44.988ZM46.608 57.9L46.932 56.94H51.66L52.008 57.9H46.608ZM57.4505 60.072C56.8345 60.072 56.2825 59.936 55.7945 59.664C55.3145 59.392 54.9345 59.012 54.6545 58.524C54.3745 58.036 54.2345 57.468 54.2345 56.82C54.2345 56.172 54.3745 55.608 54.6545 55.128C54.9345 54.64 55.3145 54.26 55.7945 53.988C56.2825 53.716 56.8345 53.58 57.4505 53.58C57.9865 53.58 58.4705 53.7 58.9025 53.94C59.3345 54.18 59.6785 54.54 59.9345 55.02C60.1985 55.5 60.3305 56.1 60.3305 56.82C60.3305 57.54 60.2025 58.14 59.9465 58.62C59.6985 59.1 59.3585 59.464 58.9265 59.712C58.4945 59.952 58.0025 60.072 57.4505 60.072ZM57.5465 59.064C57.9465 59.064 58.3065 58.972 58.6265 58.788C58.9545 58.604 59.2105 58.344 59.3945 58.008C59.5865 57.664 59.6825 57.268 59.6825 56.82C59.6825 56.364 59.5865 55.972 59.3945 55.644C59.2105 55.308 58.9545 55.048 58.6265 54.864C58.3065 54.68 57.9465 54.588 57.5465 54.588C57.1385 54.588 56.7745 54.68 56.4545 54.864C56.1345 55.048 55.8785 55.308 55.6865 55.644C55.4945 55.972 55.3985 56.364 55.3985 56.82C55.3985 57.268 55.4945 57.664 55.6865 58.008C55.8785 58.344 56.1345 58.604 56.4545 58.788C56.7745 58.972 57.1385 59.064 57.5465 59.064ZM59.7185 60V58.284L59.7905 56.808L59.6705 55.332V51.096H60.8225V60H59.7185ZM64.6702 60L61.8862 53.64H63.0862L65.5582 59.4H64.9822L67.5022 53.64H68.6302L65.8462 60H64.6702ZM72.3615 60.072C71.6815 60.072 71.0815 59.932 70.5615 59.652C70.0495 59.372 69.6495 58.988 69.3615 58.5C69.0815 58.012 68.9415 57.452 68.9415 56.82C68.9415 56.188 69.0775 55.628 69.3495 55.14C69.6295 54.652 70.0095 54.272 70.4895 54C70.9775 53.72 71.5255 53.58 72.1335 53.58C72.7495 53.58 73.2935 53.716 73.7655 53.988C74.2375 54.26 74.6055 54.644 74.8695 55.14C75.1415 55.628 75.2775 56.2 75.2775 56.856C75.2775 56.904 75.2735 56.96 75.2655 57.024C75.2655 57.088 75.2615 57.148 75.2535 57.204H69.8415V56.376H74.6535L74.1855 56.664C74.1935 56.256 74.1095 55.892 73.9335 55.572C73.7575 55.252 73.5135 55.004 73.2015 54.828C72.8975 54.644 72.5415 54.552 72.1335 54.552C71.7335 54.552 71.3775 54.644 71.0655 54.828C70.7535 55.004 70.5095 55.256 70.3335 55.584C70.1575 55.904 70.0695 56.272 70.0695 56.688V56.88C70.0695 57.304 70.1655 57.684 70.3575 58.02C70.5575 58.348 70.8335 58.604 71.1855 58.788C71.5375 58.972 71.9415 59.064 72.3975 59.064C72.7735 59.064 73.1135 59 73.4175 58.872C73.7295 58.744 74.0015 58.552 74.2335 58.296L74.8695 59.04C74.5815 59.376 74.2215 59.632 73.7895 59.808C73.3655 59.984 72.8895 60.072 72.3615 60.072ZM80.2732 53.58C80.7932 53.58 81.2492 53.68 81.6412 53.88C82.0412 54.08 82.3532 54.384 82.5772 54.792C82.8012 55.2 82.9132 55.716 82.9132 56.34V60H81.7612V56.472C81.7612 55.856 81.6092 55.392 81.3052 55.08C81.0092 54.768 80.5892 54.612 80.0452 54.612C79.6372 54.612 79.2812 54.692 78.9772 54.852C78.6732 55.012 78.4372 55.248 78.2692 55.56C78.1092 55.872 78.0292 56.26 78.0292 56.724V60H76.8772V53.64H77.9812V55.356L77.8012 54.9C78.0092 54.484 78.3292 54.16 78.7612 53.928C79.1932 53.696 79.6972 53.58 80.2732 53.58ZM87.2291 60.072C86.5891 60.072 86.0931 59.9 85.7411 59.556C85.3891 59.212 85.2131 58.72 85.2131 58.08V52.248H86.3651V58.032C86.3651 58.376 86.4491 58.64 86.6171 58.824C86.7931 59.008 87.0411 59.1 87.3611 59.1C87.7211 59.1 88.0211 59 88.2611 58.8L88.6211 59.628C88.4451 59.78 88.2331 59.892 87.9851 59.964C87.7451 60.036 87.4931 60.072 87.2291 60.072ZM84.1331 54.588V53.64H88.1891V54.588H84.1331ZM92.6899 60.072C92.1459 60.072 91.6659 59.972 91.2499 59.772C90.8419 59.572 90.5219 59.268 90.2899 58.86C90.0659 58.444 89.9539 57.924 89.9539 57.3V53.64H91.1059V57.168C91.1059 57.792 91.2539 58.26 91.5499 58.572C91.8539 58.884 92.2779 59.04 92.8219 59.04C93.2219 59.04 93.5699 58.96 93.8659 58.8C94.1619 58.632 94.3899 58.392 94.5499 58.08C94.7099 57.76 94.7899 57.376 94.7899 56.928V53.64H95.9419V60H94.8499V58.284L95.0299 58.74C94.8219 59.164 94.5099 59.492 94.0939 59.724C93.6779 59.956 93.2099 60.072 92.6899 60.072ZM98.135 60V53.64H99.239V55.368L99.131 54.936C99.307 54.496 99.603 54.16 100.019 53.928C100.435 53.696 100.947 53.58 101.555 53.58V54.696C101.507 54.688 101.459 54.684 101.411 54.684C101.371 54.684 101.331 54.684 101.291 54.684C100.675 54.684 100.187 54.868 99.827 55.236C99.467 55.604 99.287 56.136 99.287 56.832V60H98.135ZM105.748 60.072C105.068 60.072 104.468 59.932 103.948 59.652C103.436 59.372 103.036 58.988 102.748 58.5C102.468 58.012 102.328 57.452 102.328 56.82C102.328 56.188 102.464 55.628 102.736 55.14C103.016 54.652 103.396 54.272 103.876 54C104.364 53.72 104.912 53.58 105.52 53.58C106.136 53.58 106.68 53.716 107.152 53.988C107.624 54.26 107.992 54.644 108.256 55.14C108.528 55.628 108.664 56.2 108.664 56.856C108.664 56.904 108.66 56.96 108.652 57.024C108.652 57.088 108.648 57.148 108.64 57.204H103.228V56.376H108.04L107.572 56.664C107.58 56.256 107.496 55.892 107.32 55.572C107.144 55.252 106.9 55.004 106.588 54.828C106.284 54.644 105.928 54.552 105.52 54.552C105.12 54.552 104.764 54.644 104.452 54.828C104.14 55.004 103.896 55.256 103.72 55.584C103.544 55.904 103.456 56.272 103.456 56.688V56.88C103.456 57.304 103.552 57.684 103.744 58.02C103.944 58.348 104.22 58.604 104.572 58.788C104.924 58.972 105.328 59.064 105.784 59.064C106.16 59.064 106.5 59 106.804 58.872C107.116 58.744 107.388 58.552 107.62 58.296L108.256 59.04C107.968 59.376 107.608 59.632 107.176 59.808C106.752 59.984 106.276 60.072 105.748 60.072Z" fill="#003B79"/>
</svg>
