<svg width="156" height="72" viewBox="0 0 156 72" fill="none" xmlns="http://www.w3.org/2000/svg">
<path d="M122.489 0H0.0668945L33.5614 35.9915L0.0668945 72H122.489L156 35.9915L122.489 0Z" fill="#F5F1F1"/>
<path d="M33.7444 36.1618L33.9029 35.9915L33.7444 35.8212L0.641059 0.25H122.38L155.659 35.9916L122.38 71.75H0.640877L33.7444 36.1618Z" stroke="black" stroke-opacity="0.2" stroke-width="0.5"/>
<path d="M46.634 24.216C45.626 24.216 44.66 24.084 43.736 23.82C42.812 23.544 42.068 23.19 41.504 22.758L42.494 20.562C43.034 20.946 43.67 21.264 44.402 21.516C45.146 21.756 45.896 21.876 46.652 21.876C47.228 21.876 47.69 21.822 48.038 21.714C48.398 21.594 48.662 21.432 48.83 21.228C48.998 21.024 49.082 20.79 49.082 20.526C49.082 20.19 48.95 19.926 48.686 19.734C48.422 19.53 48.074 19.368 47.642 19.248C47.21 19.116 46.73 18.996 46.202 18.888C45.686 18.768 45.164 18.624 44.636 18.456C44.12 18.288 43.646 18.072 43.214 17.808C42.782 17.544 42.428 17.196 42.152 16.764C41.888 16.332 41.756 15.78 41.756 15.108C41.756 14.388 41.948 13.734 42.332 13.146C42.728 12.546 43.316 12.072 44.096 11.724C44.888 11.364 45.878 11.184 47.066 11.184C47.858 11.184 48.638 11.28 49.406 11.472C50.174 11.652 50.852 11.928 51.44 12.3L50.54 14.514C49.952 14.178 49.364 13.932 48.776 13.776C48.188 13.608 47.612 13.524 47.048 13.524C46.484 13.524 46.022 13.59 45.662 13.722C45.302 13.854 45.044 14.028 44.888 14.244C44.732 14.448 44.654 14.688 44.654 14.964C44.654 15.288 44.786 15.552 45.05 15.756C45.314 15.948 45.662 16.104 46.094 16.224C46.526 16.344 47 16.464 47.516 16.584C48.044 16.704 48.566 16.842 49.082 16.998C49.61 17.154 50.09 17.364 50.522 17.628C50.954 17.892 51.302 18.24 51.566 18.672C51.842 19.104 51.98 19.65 51.98 20.31C51.98 21.018 51.782 21.666 51.386 22.254C50.99 22.842 50.396 23.316 49.604 23.676C48.824 24.036 47.834 24.216 46.634 24.216ZM57.7345 24.144C56.5945 24.144 55.7065 23.856 55.0705 23.28C54.4345 22.692 54.1165 21.822 54.1165 20.67V12.174H56.9245V20.634C56.9245 21.042 57.0325 21.36 57.2485 21.588C57.4645 21.804 57.7585 21.912 58.1305 21.912C58.5745 21.912 58.9525 21.792 59.2645 21.552L60.0205 23.532C59.7325 23.736 59.3845 23.892 58.9765 24C58.5805 24.096 58.1665 24.144 57.7345 24.144ZM52.6225 16.692V14.532H59.3365V16.692H52.6225ZM66.104 24.144C65 24.144 64.028 23.928 63.188 23.496C62.36 23.064 61.718 22.476 61.262 21.732C60.806 20.976 60.578 20.118 60.578 19.158C60.578 18.186 60.8 17.328 61.244 16.584C61.7 15.828 62.318 15.24 63.098 14.82C63.878 14.388 64.76 14.172 65.744 14.172C66.692 14.172 67.544 14.376 68.3 14.784C69.068 15.18 69.674 15.756 70.118 16.512C70.562 17.256 70.784 18.15 70.784 19.194C70.784 19.302 70.778 19.428 70.766 19.572C70.754 19.704 70.742 19.83 70.73 19.95H62.864V18.312H69.254L68.174 18.798C68.174 18.294 68.072 17.856 67.868 17.484C67.664 17.112 67.382 16.824 67.022 16.62C66.662 16.404 66.242 16.296 65.762 16.296C65.282 16.296 64.856 16.404 64.484 16.62C64.124 16.824 63.842 17.118 63.638 17.502C63.434 17.874 63.332 18.318 63.332 18.834V19.266C63.332 19.794 63.446 20.262 63.674 20.67C63.914 21.066 64.244 21.372 64.664 21.588C65.096 21.792 65.6 21.894 66.176 21.894C66.692 21.894 67.142 21.816 67.526 21.66C67.922 21.504 68.282 21.27 68.606 20.958L70.1 22.578C69.656 23.082 69.098 23.472 68.426 23.748C67.754 24.012 66.98 24.144 66.104 24.144ZM78.3774 24.144C77.5614 24.144 76.8474 23.964 76.2354 23.604C75.6234 23.244 75.1434 22.698 74.7954 21.966C74.4594 21.222 74.2914 20.286 74.2914 19.158C74.2914 18.018 74.4534 17.082 74.7774 16.35C75.1014 15.618 75.5694 15.072 76.1814 14.712C76.7934 14.352 77.5254 14.172 78.3774 14.172C79.2894 14.172 80.1054 14.382 80.8254 14.802C81.5574 15.21 82.1334 15.786 82.5534 16.53C82.9854 17.274 83.2014 18.15 83.2014 19.158C83.2014 20.178 82.9854 21.06 82.5534 21.804C82.1334 22.548 81.5574 23.124 80.8254 23.532C80.1054 23.94 79.2894 24.144 78.3774 24.144ZM72.6534 27.492V14.316H75.3354V16.296L75.2814 19.176L75.4614 22.038V27.492H72.6534ZM77.8914 21.84C78.3594 21.84 78.7734 21.732 79.1334 21.516C79.5054 21.3 79.7994 20.994 80.0154 20.598C80.2434 20.19 80.3574 19.71 80.3574 19.158C80.3574 18.594 80.2434 18.114 80.0154 17.718C79.7994 17.322 79.5054 17.016 79.1334 16.8C78.7734 16.584 78.3594 16.476 77.8914 16.476C77.4234 16.476 77.0034 16.584 76.6314 16.8C76.2594 17.016 75.9654 17.322 75.7494 17.718C75.5334 18.114 75.4254 18.594 75.4254 19.158C75.4254 19.71 75.5334 20.19 75.7494 20.598C75.9654 20.994 76.2594 21.3 76.6314 21.516C77.0034 21.732 77.4234 21.84 77.8914 21.84ZM93.8688 24.216C92.9928 24.216 92.1228 24.102 91.2588 23.874C90.4068 23.634 89.6748 23.298 89.0628 22.866L90.2148 20.634C90.6948 20.982 91.2468 21.258 91.8708 21.462C92.5068 21.666 93.1488 21.768 93.7968 21.768C94.5288 21.768 95.1048 21.624 95.5248 21.336C95.9448 21.048 96.1548 20.646 96.1548 20.13C96.1548 19.806 96.0708 19.518 95.9028 19.266C95.7348 19.014 95.4348 18.822 95.0028 18.69C94.5828 18.558 93.9888 18.492 93.2208 18.492H89.9988L90.6468 11.4H98.3328V13.74H91.6908L93.2028 12.408L92.7528 17.466L91.2408 16.134H93.9048C95.1528 16.134 96.1548 16.308 96.9108 16.656C97.6788 16.992 98.2368 17.454 98.5848 18.042C98.9328 18.63 99.1068 19.296 99.1068 20.04C99.1068 20.784 98.9208 21.474 98.5488 22.11C98.1768 22.734 97.6008 23.244 96.8208 23.64C96.0528 24.024 95.0688 24.216 93.8688 24.216ZM101.946 17.682C101.466 17.682 101.052 17.52 100.704 17.196C100.368 16.86 100.2 16.434 100.2 15.918C100.2 15.402 100.368 14.988 100.704 14.676C101.052 14.352 101.466 14.19 101.946 14.19C102.438 14.19 102.852 14.352 103.188 14.676C103.524 14.988 103.692 15.402 103.692 15.918C103.692 16.434 103.524 16.86 103.188 17.196C102.852 17.52 102.438 17.682 101.946 17.682ZM101.946 24.144C101.466 24.144 101.052 23.982 100.704 23.658C100.368 23.322 100.2 22.896 100.2 22.38C100.2 21.864 100.368 21.45 100.704 21.138C101.052 20.814 101.466 20.652 101.946 20.652C102.438 20.652 102.852 20.814 103.188 21.138C103.524 21.45 103.692 21.864 103.692 22.38C103.692 22.896 103.524 23.322 103.188 23.658C102.852 23.982 102.438 24.144 101.946 24.144ZM43.34 37.572H47.672V38.604H43.34V37.572ZM43.46 42H42.26V33.6H48.188V34.644H43.46V42ZM49.7092 42V35.64H50.8612V42H49.7092ZM50.2852 34.416C50.0612 34.416 49.8732 34.344 49.7212 34.2C49.5772 34.056 49.5052 33.88 49.5052 33.672C49.5052 33.456 49.5772 33.276 49.7212 33.132C49.8732 32.988 50.0612 32.916 50.2852 32.916C50.5092 32.916 50.6932 32.988 50.8372 33.132C50.9892 33.268 51.0652 33.44 51.0652 33.648C51.0652 33.864 50.9932 34.048 50.8492 34.2C50.7052 34.344 50.5172 34.416 50.2852 34.416ZM56.4568 35.58C56.9768 35.58 57.4328 35.68 57.8248 35.88C58.2248 36.08 58.5368 36.384 58.7608 36.792C58.9848 37.2 59.0968 37.716 59.0968 38.34V42H57.9448V38.472C57.9448 37.856 57.7928 37.392 57.4888 37.08C57.1928 36.768 56.7728 36.612 56.2288 36.612C55.8208 36.612 55.4648 36.692 55.1608 36.852C54.8568 37.012 54.6208 37.248 54.4528 37.56C54.2928 37.872 54.2128 38.26 54.2128 38.724V42H53.0608V35.64H54.1648V37.356L53.9848 36.9C54.1928 36.484 54.5128 36.16 54.9448 35.928C55.3768 35.696 55.8808 35.58 56.4568 35.58ZM63.8567 42.072C63.2407 42.072 62.6887 41.936 62.2007 41.664C61.7207 41.392 61.3407 41.012 61.0607 40.524C60.7807 40.036 60.6407 39.468 60.6407 38.82C60.6407 38.172 60.7807 37.608 61.0607 37.128C61.3407 36.64 61.7207 36.26 62.2007 35.988C62.6887 35.716 63.2407 35.58 63.8567 35.58C64.3927 35.58 64.8767 35.7 65.3087 35.94C65.7407 36.18 66.0847 36.54 66.3407 37.02C66.6047 37.5 66.7367 38.1 66.7367 38.82C66.7367 39.54 66.6087 40.14 66.3527 40.62C66.1047 41.1 65.7647 41.464 65.3327 41.712C64.9007 41.952 64.4087 42.072 63.8567 42.072ZM63.9527 41.064C64.3527 41.064 64.7127 40.972 65.0327 40.788C65.3607 40.604 65.6167 40.344 65.8007 40.008C65.9927 39.664 66.0887 39.268 66.0887 38.82C66.0887 38.364 65.9927 37.972 65.8007 37.644C65.6167 37.308 65.3607 37.048 65.0327 36.864C64.7127 36.68 64.3527 36.588 63.9527 36.588C63.5447 36.588 63.1807 36.68 62.8607 36.864C62.5407 37.048 62.2847 37.308 62.0927 37.644C61.9007 37.972 61.8047 38.364 61.8047 38.82C61.8047 39.268 61.9007 39.664 62.0927 40.008C62.2847 40.344 62.5407 40.604 62.8607 40.788C63.1807 40.972 63.5447 41.064 63.9527 41.064ZM66.1247 42V40.284L66.1967 38.808L66.0767 37.332V33.096H67.2287V42H66.1247ZM42.26 60V51.6H45.536C46.272 51.6 46.9 51.716 47.42 51.948C47.94 52.18 48.34 52.516 48.62 52.956C48.9 53.396 49.04 53.92 49.04 54.528C49.04 55.136 48.9 55.66 48.62 56.1C48.34 56.532 47.94 56.868 47.42 57.108C46.9 57.34 46.272 57.456 45.536 57.456H42.92L43.46 56.892V60H42.26ZM43.46 57.012L42.92 56.412H45.5C46.268 56.412 46.848 56.248 47.24 55.92C47.64 55.592 47.84 55.128 47.84 54.528C47.84 53.928 47.64 53.464 47.24 53.136C46.848 52.808 46.268 52.644 45.5 52.644H42.92L43.46 52.044V57.012ZM54.5244 60V58.656L54.4644 58.404V56.112C54.4644 55.624 54.3204 55.248 54.0324 54.984C53.7524 54.712 53.3284 54.576 52.7604 54.576C52.3844 54.576 52.0164 54.64 51.6564 54.768C51.2964 54.888 50.9924 55.052 50.7444 55.26L50.2644 54.396C50.5924 54.132 50.9844 53.932 51.4404 53.796C51.9044 53.652 52.3884 53.58 52.8924 53.58C53.7644 53.58 54.4364 53.792 54.9084 54.216C55.3804 54.64 55.6164 55.288 55.6164 56.16V60H54.5244ZM52.4364 60.072C51.9644 60.072 51.5484 59.992 51.1884 59.832C50.8364 59.672 50.5644 59.452 50.3724 59.172C50.1804 58.884 50.0844 58.56 50.0844 58.2C50.0844 57.856 50.1644 57.544 50.3244 57.264C50.4924 56.984 50.7604 56.76 51.1284 56.592C51.5044 56.424 52.0084 56.34 52.6404 56.34H54.6564V57.168H52.6884C52.1124 57.168 51.7244 57.264 51.5244 57.456C51.3244 57.648 51.2244 57.88 51.2244 58.152C51.2244 58.464 51.3484 58.716 51.5964 58.908C51.8444 59.092 52.1884 59.184 52.6284 59.184C53.0604 59.184 53.4364 59.088 53.7564 58.896C54.0844 58.704 54.3204 58.424 54.4644 58.056L54.6924 58.848C54.5404 59.224 54.2724 59.524 53.8884 59.748C53.5044 59.964 53.0204 60.072 52.4364 60.072ZM57.7483 60V53.64H58.8523V55.368L58.7443 54.936C58.9203 54.496 59.2163 54.16 59.6323 53.928C60.0483 53.696 60.5603 53.58 61.1683 53.58V54.696C61.1203 54.688 61.0723 54.684 61.0243 54.684C60.9843 54.684 60.9443 54.684 60.9043 54.684C60.2883 54.684 59.8003 54.868 59.4403 55.236C59.0803 55.604 58.9003 56.136 58.9003 56.832V60H57.7483ZM65.0299 60.072C64.3899 60.072 63.8939 59.9 63.5419 59.556C63.1899 59.212 63.0139 58.72 63.0139 58.08V52.248H64.1659V58.032C64.1659 58.376 64.2499 58.64 64.4179 58.824C64.5939 59.008 64.8419 59.1 65.1619 59.1C65.5219 59.1 65.8219 59 66.0619 58.8L66.4219 59.628C66.2459 59.78 66.0339 59.892 65.7859 59.964C65.5459 60.036 65.2939 60.072 65.0299 60.072ZM61.9339 54.588V53.64H65.9899V54.588H61.9339ZM71.2107 53.58C71.7307 53.58 72.1867 53.68 72.5787 53.88C72.9787 54.08 73.2907 54.384 73.5147 54.792C73.7387 55.2 73.8507 55.716 73.8507 56.34V60H72.6987V56.472C72.6987 55.856 72.5467 55.392 72.2427 55.08C71.9467 54.768 71.5267 54.612 70.9827 54.612C70.5747 54.612 70.2187 54.692 69.9147 54.852C69.6107 55.012 69.3747 55.248 69.2067 55.56C69.0467 55.872 68.9667 56.26 68.9667 56.724V60H67.8147V53.64H68.9187V55.356L68.7387 54.9C68.9467 54.484 69.2667 54.16 69.6987 53.928C70.1307 53.696 70.6347 53.58 71.2107 53.58ZM78.8146 60.072C78.1346 60.072 77.5346 59.932 77.0146 59.652C76.5026 59.372 76.1026 58.988 75.8146 58.5C75.5346 58.012 75.3946 57.452 75.3946 56.82C75.3946 56.188 75.5306 55.628 75.8026 55.14C76.0826 54.652 76.4626 54.272 76.9426 54C77.4306 53.72 77.9786 53.58 78.5866 53.58C79.2026 53.58 79.7466 53.716 80.2186 53.988C80.6906 54.26 81.0586 54.644 81.3226 55.14C81.5946 55.628 81.7306 56.2 81.7306 56.856C81.7306 56.904 81.7266 56.96 81.7186 57.024C81.7186 57.088 81.7146 57.148 81.7066 57.204H76.2946V56.376H81.1066L80.6386 56.664C80.6466 56.256 80.5626 55.892 80.3866 55.572C80.2106 55.252 79.9666 55.004 79.6546 54.828C79.3506 54.644 78.9946 54.552 78.5866 54.552C78.1866 54.552 77.8306 54.644 77.5186 54.828C77.2066 55.004 76.9626 55.256 76.7866 55.584C76.6106 55.904 76.5226 56.272 76.5226 56.688V56.88C76.5226 57.304 76.6186 57.684 76.8106 58.02C77.0106 58.348 77.2866 58.604 77.6386 58.788C77.9906 58.972 78.3946 59.064 78.8506 59.064C79.2266 59.064 79.5666 59 79.8706 58.872C80.1826 58.744 80.4546 58.552 80.6866 58.296L81.3226 59.04C81.0346 59.376 80.6746 59.632 80.2426 59.808C79.8186 59.984 79.3426 60.072 78.8146 60.072ZM83.3303 60V53.64H84.4343V55.368L84.3263 54.936C84.5023 54.496 84.7983 54.16 85.2143 53.928C85.6303 53.696 86.1423 53.58 86.7503 53.58V54.696C86.7023 54.688 86.6543 54.684 86.6063 54.684C86.5663 54.684 86.5263 54.684 86.4863 54.684C85.8703 54.684 85.3823 54.868 85.0223 55.236C84.6623 55.604 84.4823 56.136 84.4823 56.832V60H83.3303Z" fill="black"/>
</svg>
