<svg width="156" height="72" viewBox="0 0 156 72" fill="none" xmlns="http://www.w3.org/2000/svg">
<path d="M122.422 0H0V72H122.422L155.916 35.9915L122.422 0Z" fill="#FCCA4D"/>
<path d="M31.634 32.216C30.626 32.216 29.66 32.084 28.736 31.82C27.812 31.544 27.068 31.19 26.504 30.758L27.494 28.562C28.034 28.946 28.67 29.264 29.402 29.516C30.146 29.756 30.896 29.876 31.652 29.876C32.228 29.876 32.69 29.822 33.038 29.714C33.398 29.594 33.662 29.432 33.83 29.228C33.998 29.024 34.082 28.79 34.082 28.526C34.082 28.19 33.95 27.926 33.686 27.734C33.422 27.53 33.074 27.368 32.642 27.248C32.21 27.116 31.73 26.996 31.202 26.888C30.686 26.768 30.164 26.624 29.636 26.456C29.12 26.288 28.646 26.072 28.214 25.808C27.782 25.544 27.428 25.196 27.152 24.764C26.888 24.332 26.756 23.78 26.756 23.108C26.756 22.388 26.948 21.734 27.332 21.146C27.728 20.546 28.316 20.072 29.096 19.724C29.888 19.364 30.878 19.184 32.066 19.184C32.858 19.184 33.638 19.28 34.406 19.472C35.174 19.652 35.852 19.928 36.44 20.3L35.54 22.514C34.952 22.178 34.364 21.932 33.776 21.776C33.188 21.608 32.612 21.524 32.048 21.524C31.484 21.524 31.022 21.59 30.662 21.722C30.302 21.854 30.044 22.028 29.888 22.244C29.732 22.448 29.654 22.688 29.654 22.964C29.654 23.288 29.786 23.552 30.05 23.756C30.314 23.948 30.662 24.104 31.094 24.224C31.526 24.344 32 24.464 32.516 24.584C33.044 24.704 33.566 24.842 34.082 24.998C34.61 25.154 35.09 25.364 35.522 25.628C35.954 25.892 36.302 26.24 36.566 26.672C36.842 27.104 36.98 27.65 36.98 28.31C36.98 29.018 36.782 29.666 36.386 30.254C35.99 30.842 35.396 31.316 34.604 31.676C33.824 32.036 32.834 32.216 31.634 32.216ZM42.7345 32.144C41.5945 32.144 40.7065 31.856 40.0705 31.28C39.4345 30.692 39.1165 29.822 39.1165 28.67V20.174H41.9245V28.634C41.9245 29.042 42.0325 29.36 42.2485 29.588C42.4645 29.804 42.7585 29.912 43.1305 29.912C43.5745 29.912 43.9525 29.792 44.2645 29.552L45.0205 31.532C44.7325 31.736 44.3845 31.892 43.9765 32C43.5805 32.096 43.1665 32.144 42.7345 32.144ZM37.6225 24.692V22.532H44.3365V24.692H37.6225ZM51.104 32.144C50 32.144 49.028 31.928 48.188 31.496C47.36 31.064 46.718 30.476 46.262 29.732C45.806 28.976 45.578 28.118 45.578 27.158C45.578 26.186 45.8 25.328 46.244 24.584C46.7 23.828 47.318 23.24 48.098 22.82C48.878 22.388 49.76 22.172 50.744 22.172C51.692 22.172 52.544 22.376 53.3 22.784C54.068 23.18 54.674 23.756 55.118 24.512C55.562 25.256 55.784 26.15 55.784 27.194C55.784 27.302 55.778 27.428 55.766 27.572C55.754 27.704 55.742 27.83 55.73 27.95H47.864V26.312H54.254L53.174 26.798C53.174 26.294 53.072 25.856 52.868 25.484C52.664 25.112 52.382 24.824 52.022 24.62C51.662 24.404 51.242 24.296 50.762 24.296C50.282 24.296 49.856 24.404 49.484 24.62C49.124 24.824 48.842 25.118 48.638 25.502C48.434 25.874 48.332 26.318 48.332 26.834V27.266C48.332 27.794 48.446 28.262 48.674 28.67C48.914 29.066 49.244 29.372 49.664 29.588C50.096 29.792 50.6 29.894 51.176 29.894C51.692 29.894 52.142 29.816 52.526 29.66C52.922 29.504 53.282 29.27 53.606 28.958L55.1 30.578C54.656 31.082 54.098 31.472 53.426 31.748C52.754 32.012 51.98 32.144 51.104 32.144ZM63.3774 32.144C62.5614 32.144 61.8474 31.964 61.2354 31.604C60.6234 31.244 60.1434 30.698 59.7954 29.966C59.4594 29.222 59.2914 28.286 59.2914 27.158C59.2914 26.018 59.4534 25.082 59.7774 24.35C60.1014 23.618 60.5694 23.072 61.1814 22.712C61.7934 22.352 62.5254 22.172 63.3774 22.172C64.2894 22.172 65.1054 22.382 65.8254 22.802C66.5574 23.21 67.1334 23.786 67.5534 24.53C67.9854 25.274 68.2014 26.15 68.2014 27.158C68.2014 28.178 67.9854 29.06 67.5534 29.804C67.1334 30.548 66.5574 31.124 65.8254 31.532C65.1054 31.94 64.2894 32.144 63.3774 32.144ZM57.6534 35.492V22.316H60.3354V24.296L60.2814 27.176L60.4614 30.038V35.492H57.6534ZM62.8914 29.84C63.3594 29.84 63.7734 29.732 64.1334 29.516C64.5054 29.3 64.7994 28.994 65.0154 28.598C65.2434 28.19 65.3574 27.71 65.3574 27.158C65.3574 26.594 65.2434 26.114 65.0154 25.718C64.7994 25.322 64.5054 25.016 64.1334 24.8C63.7734 24.584 63.3594 24.476 62.8914 24.476C62.4234 24.476 62.0034 24.584 61.6314 24.8C61.2594 25.016 60.9654 25.322 60.7494 25.718C60.5334 26.114 60.4254 26.594 60.4254 27.158C60.4254 27.71 60.5334 28.19 60.7494 28.598C60.9654 28.994 61.2594 29.3 61.6314 29.516C62.0034 29.732 62.4234 29.84 62.8914 29.84ZM76.5288 32V20.48L77.7888 21.74H74.0088V19.4H79.4448V32H76.5288ZM83.2896 25.682C82.8096 25.682 82.3956 25.52 82.0476 25.196C81.7116 24.86 81.5436 24.434 81.5436 23.918C81.5436 23.402 81.7116 22.988 82.0476 22.676C82.3956 22.352 82.8096 22.19 83.2896 22.19C83.7816 22.19 84.1956 22.352 84.5316 22.676C84.8676 22.988 85.0356 23.402 85.0356 23.918C85.0356 24.434 84.8676 24.86 84.5316 25.196C84.1956 25.52 83.7816 25.682 83.2896 25.682ZM83.2896 32.144C82.8096 32.144 82.3956 31.982 82.0476 31.658C81.7116 31.322 81.5436 30.896 81.5436 30.38C81.5436 29.864 81.7116 29.45 82.0476 29.138C82.3956 28.814 82.8096 28.652 83.2896 28.652C83.7816 28.652 84.1956 28.814 84.5316 29.138C84.8676 29.45 85.0356 29.864 85.0356 30.38C85.0356 30.896 84.8676 31.322 84.5316 31.658C84.1956 31.982 83.7816 32.144 83.2896 32.144ZM27.26 50V41.6H28.244L33.8 48.5H33.284V41.6H34.484V50H33.5L27.944 43.1H28.46V50H27.26ZM40.7783 50V48.656L40.7183 48.404V46.112C40.7183 45.624 40.5743 45.248 40.2863 44.984C40.0063 44.712 39.5823 44.576 39.0143 44.576C38.6383 44.576 38.2703 44.64 37.9103 44.768C37.5503 44.888 37.2463 45.052 36.9983 45.26L36.5183 44.396C36.8463 44.132 37.2383 43.932 37.6943 43.796C38.1583 43.652 38.6423 43.58 39.1463 43.58C40.0183 43.58 40.6903 43.792 41.1623 44.216C41.6343 44.64 41.8703 45.288 41.8703 46.16V50H40.7783ZM38.6903 50.072C38.2183 50.072 37.8023 49.992 37.4423 49.832C37.0903 49.672 36.8183 49.452 36.6263 49.172C36.4343 48.884 36.3383 48.56 36.3383 48.2C36.3383 47.856 36.4183 47.544 36.5783 47.264C36.7463 46.984 37.0143 46.76 37.3823 46.592C37.7583 46.424 38.2623 46.34 38.8943 46.34H40.9103V47.168H38.9423C38.3663 47.168 37.9783 47.264 37.7783 47.456C37.5783 47.648 37.4783 47.88 37.4783 48.152C37.4783 48.464 37.6023 48.716 37.8503 48.908C38.0983 49.092 38.4423 49.184 38.8823 49.184C39.3143 49.184 39.6903 49.088 40.0103 48.896C40.3383 48.704 40.5743 48.424 40.7183 48.056L40.9463 48.848C40.7943 49.224 40.5263 49.524 40.1423 49.748C39.7583 49.964 39.2743 50.072 38.6903 50.072ZM51.9582 43.58C52.4702 43.58 52.9222 43.68 53.3142 43.88C53.7062 44.08 54.0102 44.384 54.2262 44.792C54.4502 45.2 54.5622 45.716 54.5622 46.34V50H53.4102V46.472C53.4102 45.856 53.2662 45.392 52.9782 45.08C52.6902 44.768 52.2862 44.612 51.7662 44.612C51.3822 44.612 51.0462 44.692 50.7582 44.852C50.4702 45.012 50.2462 45.248 50.0862 45.56C49.9342 45.872 49.8582 46.26 49.8582 46.724V50H48.7062V46.472C48.7062 45.856 48.5622 45.392 48.2742 45.08C47.9942 44.768 47.5902 44.612 47.0622 44.612C46.6862 44.612 46.3542 44.692 46.0662 44.852C45.7782 45.012 45.5542 45.248 45.3942 45.56C45.2342 45.872 45.1542 46.26 45.1542 46.724V50H44.0022V43.64H45.1062V45.332L44.9262 44.9C45.1262 44.484 45.4342 44.16 45.8502 43.928C46.2662 43.696 46.7502 43.58 47.3022 43.58C47.9102 43.58 48.4342 43.732 48.8742 44.036C49.3142 44.332 49.6022 44.784 49.7382 45.392L49.2702 45.2C49.4622 44.712 49.7982 44.32 50.2782 44.024C50.7582 43.728 51.3182 43.58 51.9582 43.58ZM59.5138 50.072C58.8338 50.072 58.2338 49.932 57.7138 49.652C57.2018 49.372 56.8018 48.988 56.5138 48.5C56.2338 48.012 56.0938 47.452 56.0938 46.82C56.0938 46.188 56.2298 45.628 56.5018 45.14C56.7818 44.652 57.1618 44.272 57.6418 44C58.1298 43.72 58.6778 43.58 59.2858 43.58C59.9018 43.58 60.4458 43.716 60.9178 43.988C61.3898 44.26 61.7578 44.644 62.0218 45.14C62.2938 45.628 62.4298 46.2 62.4298 46.856C62.4298 46.904 62.4258 46.96 62.4178 47.024C62.4178 47.088 62.4138 47.148 62.4058 47.204H56.9938V46.376H61.8058L61.3378 46.664C61.3458 46.256 61.2618 45.892 61.0858 45.572C60.9098 45.252 60.6658 45.004 60.3538 44.828C60.0498 44.644 59.6938 44.552 59.2858 44.552C58.8858 44.552 58.5298 44.644 58.2178 44.828C57.9058 45.004 57.6618 45.256 57.4858 45.584C57.3098 45.904 57.2218 46.272 57.2218 46.688V46.88C57.2218 47.304 57.3178 47.684 57.5098 48.02C57.7098 48.348 57.9858 48.604 58.3378 48.788C58.6898 48.972 59.0938 49.064 59.5498 49.064C59.9258 49.064 60.2658 49 60.5698 48.872C60.8818 48.744 61.1538 48.552 61.3858 48.296L62.0218 49.04C61.7338 49.376 61.3738 49.632 60.9418 49.808C60.5178 49.984 60.0418 50.072 59.5138 50.072ZM69.6402 50.096C69.0722 50.096 68.5682 50.004 68.1282 49.82C67.6882 49.636 67.3402 49.38 67.0842 49.052C66.8282 48.724 66.7002 48.344 66.7002 47.912C66.7002 47.536 66.7842 47.192 66.9522 46.88C67.1202 46.568 67.3882 46.268 67.7562 45.98C68.1242 45.684 68.6082 45.38 69.2082 45.068C69.6962 44.812 70.0762 44.588 70.3482 44.396C70.6282 44.204 70.8242 44.024 70.9362 43.856C71.0562 43.68 71.1162 43.492 71.1162 43.292C71.1162 43.02 71.0202 42.8 70.8282 42.632C70.6362 42.456 70.3602 42.368 70.0002 42.368C69.6242 42.368 69.3282 42.464 69.1122 42.656C68.9042 42.84 68.8002 43.084 68.8002 43.388C68.8002 43.54 68.8242 43.688 68.8722 43.832C68.9282 43.968 69.0242 44.124 69.1602 44.3C69.3042 44.468 69.5082 44.684 69.7722 44.948L74.2122 49.364L73.5642 50.132L68.8482 45.44C68.5682 45.16 68.3482 44.912 68.1882 44.696C68.0282 44.472 67.9122 44.256 67.8402 44.048C67.7682 43.84 67.7322 43.628 67.7322 43.412C67.7322 43.036 67.8242 42.708 68.0082 42.428C68.2002 42.14 68.4642 41.92 68.8002 41.768C69.1442 41.608 69.5442 41.528 70.0002 41.528C70.4242 41.528 70.7922 41.6 71.1042 41.744C71.4162 41.88 71.6562 42.08 71.8242 42.344C72.0002 42.6 72.0882 42.912 72.0882 43.28C72.0882 43.6 72.0082 43.896 71.8482 44.168C71.6962 44.44 71.4482 44.704 71.1042 44.96C70.7602 45.216 70.2962 45.492 69.7122 45.788C69.2322 46.036 68.8562 46.268 68.5842 46.484C68.3122 46.692 68.1162 46.9 67.9962 47.108C67.8842 47.316 67.8282 47.544 67.8282 47.792C67.8282 48.056 67.9042 48.292 68.0562 48.5C68.2162 48.7 68.4362 48.856 68.7162 48.968C69.0042 49.08 69.3362 49.136 69.7122 49.136C70.2482 49.136 70.7322 49.02 71.1642 48.788C71.5962 48.556 71.9562 48.208 72.2442 47.744C72.5402 47.28 72.7562 46.704 72.8922 46.016L73.8162 46.316C73.6562 47.124 73.3802 47.808 72.9882 48.368C72.6042 48.928 72.1282 49.356 71.5602 49.652C70.9922 49.948 70.3522 50.096 69.6402 50.096ZM79.9614 45.224H84.2814V46.244H79.9614V45.224ZM80.0694 48.956H84.9654V50H78.8694V41.6H84.7974V42.644H80.0694V48.956ZM94.6964 43.58C95.2084 43.58 95.6604 43.68 96.0524 43.88C96.4444 44.08 96.7484 44.384 96.9644 44.792C97.1884 45.2 97.3004 45.716 97.3004 46.34V50H96.1484V46.472C96.1484 45.856 96.0044 45.392 95.7164 45.08C95.4284 44.768 95.0244 44.612 94.5044 44.612C94.1204 44.612 93.7844 44.692 93.4964 44.852C93.2084 45.012 92.9844 45.248 92.8244 45.56C92.6724 45.872 92.5964 46.26 92.5964 46.724V50H91.4444V46.472C91.4444 45.856 91.3004 45.392 91.0124 45.08C90.7324 44.768 90.3284 44.612 89.8004 44.612C89.4244 44.612 89.0924 44.692 88.8044 44.852C88.5164 45.012 88.2924 45.248 88.1324 45.56C87.9724 45.872 87.8924 46.26 87.8924 46.724V50H86.7404V43.64H87.8444V45.332L87.6644 44.9C87.8644 44.484 88.1724 44.16 88.5884 43.928C89.0044 43.696 89.4884 43.58 90.0404 43.58C90.6484 43.58 91.1724 43.732 91.6124 44.036C92.0524 44.332 92.3404 44.784 92.4764 45.392L92.0084 45.2C92.2004 44.712 92.5364 44.32 93.0164 44.024C93.4964 43.728 94.0564 43.58 94.6964 43.58ZM103.368 50V48.656L103.308 48.404V46.112C103.308 45.624 103.164 45.248 102.876 44.984C102.596 44.712 102.172 44.576 101.604 44.576C101.228 44.576 100.86 44.64 100.5 44.768C100.14 44.888 99.8361 45.052 99.5881 45.26L99.1081 44.396C99.4361 44.132 99.8281 43.932 100.284 43.796C100.748 43.652 101.232 43.58 101.736 43.58C102.608 43.58 103.28 43.792 103.752 44.216C104.224 44.64 104.46 45.288 104.46 46.16V50H103.368ZM101.28 50.072C100.808 50.072 100.392 49.992 100.032 49.832C99.6801 49.672 99.4081 49.452 99.2161 49.172C99.0241 48.884 98.9281 48.56 98.9281 48.2C98.9281 47.856 99.0081 47.544 99.1681 47.264C99.3361 46.984 99.6041 46.76 99.9721 46.592C100.348 46.424 100.852 46.34 101.484 46.34H103.5V47.168H101.532C100.956 47.168 100.568 47.264 100.368 47.456C100.168 47.648 100.068 47.88 100.068 48.152C100.068 48.464 100.192 48.716 100.44 48.908C100.688 49.092 101.032 49.184 101.472 49.184C101.904 49.184 102.28 49.088 102.6 48.896C102.928 48.704 103.164 48.424 103.308 48.056L103.536 48.848C103.384 49.224 103.116 49.524 102.732 49.748C102.348 49.964 101.864 50.072 101.28 50.072ZM106.592 50V43.64H107.744V50H106.592ZM107.168 42.416C106.944 42.416 106.756 42.344 106.604 42.2C106.46 42.056 106.388 41.88 106.388 41.672C106.388 41.456 106.46 41.276 106.604 41.132C106.756 40.988 106.944 40.916 107.168 40.916C107.392 40.916 107.576 40.988 107.72 41.132C107.872 41.268 107.948 41.44 107.948 41.648C107.948 41.864 107.876 42.048 107.732 42.2C107.588 42.344 107.4 42.416 107.168 42.416ZM109.944 50V41.096H111.096V50H109.944Z" fill="#003B79"/>
</svg>
