<svg width="157" height="72" viewBox="0 0 157 72" fill="none" xmlns="http://www.w3.org/2000/svg">
<path d="M122.98 0H0.558594L34.0531 35.9915L0.558594 72H122.98L156.475 35.9915L122.98 0Z" fill="#FCCA4D"/>
<path d="M46.634 24.216C45.626 24.216 44.66 24.084 43.736 23.82C42.812 23.544 42.068 23.19 41.504 22.758L42.494 20.562C43.034 20.946 43.67 21.264 44.402 21.516C45.146 21.756 45.896 21.876 46.652 21.876C47.228 21.876 47.69 21.822 48.038 21.714C48.398 21.594 48.662 21.432 48.83 21.228C48.998 21.024 49.082 20.79 49.082 20.526C49.082 20.19 48.95 19.926 48.686 19.734C48.422 19.53 48.074 19.368 47.642 19.248C47.21 19.116 46.73 18.996 46.202 18.888C45.686 18.768 45.164 18.624 44.636 18.456C44.12 18.288 43.646 18.072 43.214 17.808C42.782 17.544 42.428 17.196 42.152 16.764C41.888 16.332 41.756 15.78 41.756 15.108C41.756 14.388 41.948 13.734 42.332 13.146C42.728 12.546 43.316 12.072 44.096 11.724C44.888 11.364 45.878 11.184 47.066 11.184C47.858 11.184 48.638 11.28 49.406 11.472C50.174 11.652 50.852 11.928 51.44 12.3L50.54 14.514C49.952 14.178 49.364 13.932 48.776 13.776C48.188 13.608 47.612 13.524 47.048 13.524C46.484 13.524 46.022 13.59 45.662 13.722C45.302 13.854 45.044 14.028 44.888 14.244C44.732 14.448 44.654 14.688 44.654 14.964C44.654 15.288 44.786 15.552 45.05 15.756C45.314 15.948 45.662 16.104 46.094 16.224C46.526 16.344 47 16.464 47.516 16.584C48.044 16.704 48.566 16.842 49.082 16.998C49.61 17.154 50.09 17.364 50.522 17.628C50.954 17.892 51.302 18.24 51.566 18.672C51.842 19.104 51.98 19.65 51.98 20.31C51.98 21.018 51.782 21.666 51.386 22.254C50.99 22.842 50.396 23.316 49.604 23.676C48.824 24.036 47.834 24.216 46.634 24.216ZM57.7345 24.144C56.5945 24.144 55.7065 23.856 55.0705 23.28C54.4345 22.692 54.1165 21.822 54.1165 20.67V12.174H56.9245V20.634C56.9245 21.042 57.0325 21.36 57.2485 21.588C57.4645 21.804 57.7585 21.912 58.1305 21.912C58.5745 21.912 58.9525 21.792 59.2645 21.552L60.0205 23.532C59.7325 23.736 59.3845 23.892 58.9765 24C58.5805 24.096 58.1665 24.144 57.7345 24.144ZM52.6225 16.692V14.532H59.3365V16.692H52.6225ZM66.104 24.144C65 24.144 64.028 23.928 63.188 23.496C62.36 23.064 61.718 22.476 61.262 21.732C60.806 20.976 60.578 20.118 60.578 19.158C60.578 18.186 60.8 17.328 61.244 16.584C61.7 15.828 62.318 15.24 63.098 14.82C63.878 14.388 64.76 14.172 65.744 14.172C66.692 14.172 67.544 14.376 68.3 14.784C69.068 15.18 69.674 15.756 70.118 16.512C70.562 17.256 70.784 18.15 70.784 19.194C70.784 19.302 70.778 19.428 70.766 19.572C70.754 19.704 70.742 19.83 70.73 19.95H62.864V18.312H69.254L68.174 18.798C68.174 18.294 68.072 17.856 67.868 17.484C67.664 17.112 67.382 16.824 67.022 16.62C66.662 16.404 66.242 16.296 65.762 16.296C65.282 16.296 64.856 16.404 64.484 16.62C64.124 16.824 63.842 17.118 63.638 17.502C63.434 17.874 63.332 18.318 63.332 18.834V19.266C63.332 19.794 63.446 20.262 63.674 20.67C63.914 21.066 64.244 21.372 64.664 21.588C65.096 21.792 65.6 21.894 66.176 21.894C66.692 21.894 67.142 21.816 67.526 21.66C67.922 21.504 68.282 21.27 68.606 20.958L70.1 22.578C69.656 23.082 69.098 23.472 68.426 23.748C67.754 24.012 66.98 24.144 66.104 24.144ZM78.3774 24.144C77.5614 24.144 76.8474 23.964 76.2354 23.604C75.6234 23.244 75.1434 22.698 74.7954 21.966C74.4594 21.222 74.2914 20.286 74.2914 19.158C74.2914 18.018 74.4534 17.082 74.7774 16.35C75.1014 15.618 75.5694 15.072 76.1814 14.712C76.7934 14.352 77.5254 14.172 78.3774 14.172C79.2894 14.172 80.1054 14.382 80.8254 14.802C81.5574 15.21 82.1334 15.786 82.5534 16.53C82.9854 17.274 83.2014 18.15 83.2014 19.158C83.2014 20.178 82.9854 21.06 82.5534 21.804C82.1334 22.548 81.5574 23.124 80.8254 23.532C80.1054 23.94 79.2894 24.144 78.3774 24.144ZM72.6534 27.492V14.316H75.3354V16.296L75.2814 19.176L75.4614 22.038V27.492H72.6534ZM77.8914 21.84C78.3594 21.84 78.7734 21.732 79.1334 21.516C79.5054 21.3 79.7994 20.994 80.0154 20.598C80.2434 20.19 80.3574 19.71 80.3574 19.158C80.3574 18.594 80.2434 18.114 80.0154 17.718C79.7994 17.322 79.5054 17.016 79.1334 16.8C78.7734 16.584 78.3594 16.476 77.8914 16.476C77.4234 16.476 77.0034 16.584 76.6314 16.8C76.2594 17.016 75.9654 17.322 75.7494 17.718C75.5334 18.114 75.4254 18.594 75.4254 19.158C75.4254 19.71 75.5334 20.19 75.7494 20.598C75.9654 20.994 76.2594 21.3 76.6314 21.516C77.0034 21.732 77.4234 21.84 77.8914 21.84ZM89.4408 21.354V19.392L95.3808 11.4H98.4408L92.6268 19.392L91.2048 18.978H101.123V21.354H89.4408ZM96.2268 24V21.354L96.3168 18.978V16.62H99.0708V24H96.2268ZM103.792 17.682C103.312 17.682 102.898 17.52 102.55 17.196C102.214 16.86 102.046 16.434 102.046 15.918C102.046 15.402 102.214 14.988 102.55 14.676C102.898 14.352 103.312 14.19 103.792 14.19C104.284 14.19 104.698 14.352 105.034 14.676C105.37 14.988 105.538 15.402 105.538 15.918C105.538 16.434 105.37 16.86 105.034 17.196C104.698 17.52 104.284 17.682 103.792 17.682ZM103.792 24.144C103.312 24.144 102.898 23.982 102.55 23.658C102.214 23.322 102.046 22.896 102.046 22.38C102.046 21.864 102.214 21.45 102.55 21.138C102.898 20.814 103.312 20.652 103.792 20.652C104.284 20.652 104.698 20.814 105.034 21.138C105.37 21.45 105.538 21.864 105.538 22.38C105.538 22.896 105.37 23.322 105.034 23.658C104.698 23.982 104.284 24.144 103.792 24.144ZM42.26 42V33.6H45.536C46.272 33.6 46.9 33.716 47.42 33.948C47.94 34.18 48.34 34.516 48.62 34.956C48.9 35.396 49.04 35.92 49.04 36.528C49.04 37.136 48.9 37.66 48.62 38.1C48.34 38.532 47.94 38.868 47.42 39.108C46.9 39.34 46.272 39.456 45.536 39.456H42.92L43.46 38.892V42H42.26ZM43.46 39.012L42.92 38.412H45.5C46.268 38.412 46.848 38.248 47.24 37.92C47.64 37.592 47.84 37.128 47.84 36.528C47.84 35.928 47.64 35.464 47.24 35.136C46.848 34.808 46.268 34.644 45.5 34.644H42.92L43.46 34.044V39.012ZM50.5178 42V35.64H51.6218V37.368L51.5138 36.936C51.6898 36.496 51.9858 36.16 52.4018 35.928C52.8178 35.696 53.3298 35.58 53.9378 35.58V36.696C53.8898 36.688 53.8418 36.684 53.7938 36.684C53.7538 36.684 53.7138 36.684 53.6738 36.684C53.0578 36.684 52.5698 36.868 52.2098 37.236C51.8498 37.604 51.6698 38.136 51.6698 38.832V42H50.5178ZM58.023 42.072C57.383 42.072 56.815 41.932 56.319 41.652C55.823 41.372 55.431 40.988 55.143 40.5C54.855 40.004 54.711 39.444 54.711 38.82C54.711 38.188 54.855 37.628 55.143 37.14C55.431 36.652 55.823 36.272 56.319 36C56.815 35.72 57.383 35.58 58.023 35.58C58.655 35.58 59.219 35.72 59.715 36C60.219 36.272 60.611 36.652 60.891 37.14C61.179 37.62 61.323 38.18 61.323 38.82C61.323 39.452 61.179 40.012 60.891 40.5C60.611 40.988 60.219 41.372 59.715 41.652C59.219 41.932 58.655 42.072 58.023 42.072ZM58.023 41.064C58.431 41.064 58.795 40.972 59.115 40.788C59.443 40.604 59.699 40.344 59.883 40.008C60.067 39.664 60.159 39.268 60.159 38.82C60.159 38.364 60.067 37.972 59.883 37.644C59.699 37.308 59.443 37.048 59.115 36.864C58.795 36.68 58.431 36.588 58.023 36.588C57.615 36.588 57.251 36.68 56.931 36.864C56.611 37.048 56.355 37.308 56.163 37.644C55.971 37.972 55.875 38.364 55.875 38.82C55.875 39.268 55.971 39.664 56.163 40.008C56.355 40.344 56.611 40.604 56.931 40.788C57.251 40.972 57.615 41.064 58.023 41.064ZM64.4084 42L61.6244 35.64H62.8244L65.2964 41.4H64.7204L67.2404 35.64H68.3684L65.5844 42H64.4084ZM69.4436 42V35.64H70.5956V42H69.4436ZM70.0196 34.416C69.7956 34.416 69.6076 34.344 69.4556 34.2C69.3116 34.056 69.2396 33.88 69.2396 33.672C69.2396 33.456 69.3116 33.276 69.4556 33.132C69.6076 32.988 69.7956 32.916 70.0196 32.916C70.2436 32.916 70.4276 32.988 70.5716 33.132C70.7236 33.268 70.7996 33.44 70.7996 33.648C70.7996 33.864 70.7276 34.048 70.5836 34.2C70.4396 34.344 70.2516 34.416 70.0196 34.416ZM75.4231 42.072C74.8071 42.072 74.2551 41.936 73.7671 41.664C73.2871 41.392 72.9071 41.012 72.6271 40.524C72.3471 40.036 72.2071 39.468 72.2071 38.82C72.2071 38.172 72.3471 37.608 72.6271 37.128C72.9071 36.64 73.2871 36.26 73.7671 35.988C74.2551 35.716 74.8071 35.58 75.4231 35.58C75.9591 35.58 76.4431 35.7 76.8751 35.94C77.3071 36.18 77.6511 36.54 77.9071 37.02C78.1711 37.5 78.3031 38.1 78.3031 38.82C78.3031 39.54 78.1751 40.14 77.9191 40.62C77.6711 41.1 77.3311 41.464 76.8991 41.712C76.4671 41.952 75.9751 42.072 75.4231 42.072ZM75.5191 41.064C75.9191 41.064 76.2791 40.972 76.5991 40.788C76.9271 40.604 77.1831 40.344 77.3671 40.008C77.5591 39.664 77.6551 39.268 77.6551 38.82C77.6551 38.364 77.5591 37.972 77.3671 37.644C77.1831 37.308 76.9271 37.048 76.5991 36.864C76.2791 36.68 75.9191 36.588 75.5191 36.588C75.1111 36.588 74.7471 36.68 74.4271 36.864C74.1071 37.048 73.8511 37.308 73.6591 37.644C73.4671 37.972 73.3711 38.364 73.3711 38.82C73.3711 39.268 73.4671 39.664 73.6591 40.008C73.8511 40.344 74.1071 40.604 74.4271 40.788C74.7471 40.972 75.1111 41.064 75.5191 41.064ZM77.6911 42V40.284L77.7631 38.808L77.6431 37.332V33.096H78.7951V42H77.6911ZM83.8068 42.072C83.1268 42.072 82.5268 41.932 82.0068 41.652C81.4948 41.372 81.0948 40.988 80.8068 40.5C80.5268 40.012 80.3868 39.452 80.3868 38.82C80.3868 38.188 80.5228 37.628 80.7948 37.14C81.0748 36.652 81.4548 36.272 81.9348 36C82.4228 35.72 82.9708 35.58 83.5788 35.58C84.1948 35.58 84.7388 35.716 85.2108 35.988C85.6828 36.26 86.0508 36.644 86.3148 37.14C86.5868 37.628 86.7228 38.2 86.7228 38.856C86.7228 38.904 86.7188 38.96 86.7108 39.024C86.7108 39.088 86.7068 39.148 86.6988 39.204H81.2868V38.376H86.0988L85.6308 38.664C85.6388 38.256 85.5548 37.892 85.3788 37.572C85.2028 37.252 84.9588 37.004 84.6468 36.828C84.3428 36.644 83.9868 36.552 83.5788 36.552C83.1788 36.552 82.8228 36.644 82.5108 36.828C82.1988 37.004 81.9548 37.256 81.7788 37.584C81.6028 37.904 81.5148 38.272 81.5148 38.688V38.88C81.5148 39.304 81.6108 39.684 81.8028 40.02C82.0028 40.348 82.2788 40.604 82.6308 40.788C82.9828 40.972 83.3868 41.064 83.8428 41.064C84.2188 41.064 84.5588 41 84.8628 40.872C85.1748 40.744 85.4468 40.552 85.6788 40.296L86.3148 41.04C86.0268 41.376 85.6668 41.632 85.2348 41.808C84.8108 41.984 84.3348 42.072 83.8068 42.072ZM42.26 60V51.6H46.028C46.996 51.6 47.74 51.796 48.26 52.188C48.78 52.572 49.04 53.1 49.04 53.772C49.04 54.228 48.936 54.612 48.728 54.924C48.528 55.236 48.256 55.476 47.912 55.644C47.568 55.812 47.196 55.896 46.796 55.896L47.012 55.536C47.492 55.536 47.916 55.62 48.284 55.788C48.652 55.956 48.944 56.204 49.16 56.532C49.376 56.852 49.484 57.252 49.484 57.732C49.484 58.452 49.212 59.012 48.668 59.412C48.132 59.804 47.332 60 46.268 60H42.26ZM43.46 59.028H46.22C46.884 59.028 47.392 58.916 47.744 58.692C48.096 58.468 48.272 58.116 48.272 57.636C48.272 57.148 48.096 56.792 47.744 56.568C47.392 56.344 46.884 56.232 46.22 56.232H43.352V55.26H45.92C46.528 55.26 47 55.148 47.336 54.924C47.672 54.7 47.84 54.364 47.84 53.916C47.84 53.468 47.672 53.132 47.336 52.908C47 52.684 46.528 52.572 45.92 52.572H43.46V59.028ZM55.122 60V58.656L55.062 58.404V56.112C55.062 55.624 54.918 55.248 54.63 54.984C54.35 54.712 53.926 54.576 53.358 54.576C52.982 54.576 52.614 54.64 52.254 54.768C51.894 54.888 51.59 55.052 51.342 55.26L50.862 54.396C51.19 54.132 51.582 53.932 52.038 53.796C52.502 53.652 52.986 53.58 53.49 53.58C54.362 53.58 55.034 53.792 55.506 54.216C55.978 54.64 56.214 55.288 56.214 56.16V60H55.122ZM53.034 60.072C52.562 60.072 52.146 59.992 51.786 59.832C51.434 59.672 51.162 59.452 50.97 59.172C50.778 58.884 50.682 58.56 50.682 58.2C50.682 57.856 50.762 57.544 50.922 57.264C51.09 56.984 51.358 56.76 51.726 56.592C52.102 56.424 52.606 56.34 53.238 56.34H55.254V57.168H53.286C52.71 57.168 52.322 57.264 52.122 57.456C51.922 57.648 51.822 57.88 51.822 58.152C51.822 58.464 51.946 58.716 52.194 58.908C52.442 59.092 52.786 59.184 53.226 59.184C53.658 59.184 54.034 59.088 54.354 58.896C54.682 58.704 54.918 58.424 55.062 58.056L55.29 58.848C55.138 59.224 54.87 59.524 54.486 59.748C54.102 59.964 53.618 60.072 53.034 60.072ZM61.1179 60.072C60.4699 60.072 59.8899 59.932 59.3779 59.652C58.8739 59.372 58.4779 58.988 58.1899 58.5C57.9019 58.012 57.7579 57.452 57.7579 56.82C57.7579 56.188 57.9019 55.628 58.1899 55.14C58.4779 54.652 58.8739 54.272 59.3779 54C59.8899 53.72 60.4699 53.58 61.1179 53.58C61.6939 53.58 62.2059 53.696 62.6539 53.928C63.1099 54.152 63.4619 54.488 63.7099 54.936L62.8339 55.5C62.6259 55.188 62.3699 54.96 62.0659 54.816C61.7699 54.664 61.4499 54.588 61.1059 54.588C60.6899 54.588 60.3179 54.68 59.9899 54.864C59.6619 55.048 59.4019 55.308 59.2099 55.644C59.0179 55.972 58.9219 56.364 58.9219 56.82C58.9219 57.276 59.0179 57.672 59.2099 58.008C59.4019 58.344 59.6619 58.604 59.9899 58.788C60.3179 58.972 60.6899 59.064 61.1059 59.064C61.4499 59.064 61.7699 58.992 62.0659 58.848C62.3699 58.696 62.6259 58.464 62.8339 58.152L63.7099 58.704C63.4619 59.144 63.1099 59.484 62.6539 59.724C62.2059 59.956 61.6939 60.072 61.1179 60.072ZM66.0553 58.464L66.0793 56.988L69.7393 53.64H71.1313L68.3233 56.4L67.6993 56.928L66.0553 58.464ZM65.1193 60V51.096H66.2713V60H65.1193ZM69.9793 60L67.4833 56.904L68.2273 55.98L71.3953 60H69.9793ZM75.0401 62.4C74.4561 62.4 73.8881 62.316 73.3361 62.148C72.7921 61.988 72.3481 61.756 72.0041 61.452L72.5561 60.564C72.8521 60.82 73.2161 61.02 73.6481 61.164C74.0801 61.316 74.5321 61.392 75.0041 61.392C75.7561 61.392 76.3081 61.216 76.6601 60.864C77.0121 60.512 77.1881 59.976 77.1881 59.256V57.912L77.3081 56.652L77.2481 55.38V53.64H78.3401V59.136C78.3401 60.256 78.0601 61.08 77.5001 61.608C76.9401 62.136 76.1201 62.4 75.0401 62.4ZM74.8961 59.736C74.2801 59.736 73.7281 59.608 73.2401 59.352C72.7601 59.088 72.3761 58.724 72.0881 58.26C71.8081 57.796 71.6681 57.26 71.6681 56.652C71.6681 56.036 71.8081 55.5 72.0881 55.044C72.3761 54.58 72.7601 54.22 73.2401 53.964C73.7281 53.708 74.2801 53.58 74.8961 53.58C75.4401 53.58 75.9361 53.692 76.3841 53.916C76.8321 54.132 77.1881 54.468 77.4521 54.924C77.7241 55.38 77.8601 55.956 77.8601 56.652C77.8601 57.34 77.7241 57.912 77.4521 58.368C77.1881 58.824 76.8321 59.168 76.3841 59.4C75.9361 59.624 75.4401 59.736 74.8961 59.736ZM75.0281 58.728C75.4521 58.728 75.8281 58.64 76.1561 58.464C76.4841 58.288 76.7401 58.044 76.9241 57.732C77.1161 57.42 77.2121 57.06 77.2121 56.652C77.2121 56.244 77.1161 55.884 76.9241 55.572C76.7401 55.26 76.4841 55.02 76.1561 54.852C75.8281 54.676 75.4521 54.588 75.0281 54.588C74.6041 54.588 74.2241 54.676 73.8881 54.852C73.5601 55.02 73.3001 55.26 73.1081 55.572C72.9241 55.884 72.8321 56.244 72.8321 56.652C72.8321 57.06 72.9241 57.42 73.1081 57.732C73.3001 58.044 73.5601 58.288 73.8881 58.464C74.2241 58.64 74.6041 58.728 75.0281 58.728ZM80.5412 60V53.64H81.6452V55.368L81.5372 54.936C81.7132 54.496 82.0092 54.16 82.4252 53.928C82.8412 53.696 83.3532 53.58 83.9612 53.58V54.696C83.9132 54.688 83.8652 54.684 83.8172 54.684C83.7772 54.684 83.7372 54.684 83.6972 54.684C83.0812 54.684 82.5932 54.868 82.2332 55.236C81.8732 55.604 81.6932 56.136 81.6932 56.832V60H80.5412ZM88.0465 60.072C87.4065 60.072 86.8385 59.932 86.3425 59.652C85.8465 59.372 85.4545 58.988 85.1665 58.5C84.8785 58.004 84.7345 57.444 84.7345 56.82C84.7345 56.188 84.8785 55.628 85.1665 55.14C85.4545 54.652 85.8465 54.272 86.3425 54C86.8385 53.72 87.4065 53.58 88.0465 53.58C88.6785 53.58 89.2425 53.72 89.7385 54C90.2425 54.272 90.6345 54.652 90.9145 55.14C91.2025 55.62 91.3465 56.18 91.3465 56.82C91.3465 57.452 91.2025 58.012 90.9145 58.5C90.6345 58.988 90.2425 59.372 89.7385 59.652C89.2425 59.932 88.6785 60.072 88.0465 60.072ZM88.0465 59.064C88.4545 59.064 88.8185 58.972 89.1385 58.788C89.4665 58.604 89.7225 58.344 89.9065 58.008C90.0905 57.664 90.1825 57.268 90.1825 56.82C90.1825 56.364 90.0905 55.972 89.9065 55.644C89.7225 55.308 89.4665 55.048 89.1385 54.864C88.8185 54.68 88.4545 54.588 88.0465 54.588C87.6385 54.588 87.2745 54.68 86.9545 54.864C86.6345 55.048 86.3785 55.308 86.1865 55.644C85.9945 55.972 85.8985 56.364 85.8985 56.82C85.8985 57.268 85.9945 57.664 86.1865 58.008C86.3785 58.344 86.6345 58.604 86.9545 58.788C87.2745 58.972 87.6385 59.064 88.0465 59.064ZM95.6157 60.072C95.0717 60.072 94.5917 59.972 94.1757 59.772C93.7677 59.572 93.4477 59.268 93.2157 58.86C92.9917 58.444 92.8797 57.924 92.8797 57.3V53.64H94.0317V57.168C94.0317 57.792 94.1797 58.26 94.4757 58.572C94.7797 58.884 95.2037 59.04 95.7477 59.04C96.1477 59.04 96.4957 58.96 96.7917 58.8C97.0877 58.632 97.3157 58.392 97.4757 58.08C97.6357 57.76 97.7157 57.376 97.7157 56.928V53.64H98.8677V60H97.7757V58.284L97.9557 58.74C97.7477 59.164 97.4357 59.492 97.0197 59.724C96.6037 59.956 96.1357 60.072 95.6157 60.072ZM104.457 53.58C104.977 53.58 105.433 53.68 105.825 53.88C106.225 54.08 106.537 54.384 106.761 54.792C106.985 55.2 107.097 55.716 107.097 56.34V60H105.945V56.472C105.945 55.856 105.793 55.392 105.489 55.08C105.193 54.768 104.773 54.612 104.229 54.612C103.821 54.612 103.465 54.692 103.161 54.852C102.857 55.012 102.621 55.248 102.453 55.56C102.293 55.872 102.213 56.26 102.213 56.724V60H101.061V53.64H102.165V55.356L101.985 54.9C102.193 54.484 102.513 54.16 102.945 53.928C103.377 53.696 103.881 53.58 104.457 53.58ZM111.857 60.072C111.241 60.072 110.689 59.936 110.201 59.664C109.721 59.392 109.341 59.012 109.061 58.524C108.781 58.036 108.641 57.468 108.641 56.82C108.641 56.172 108.781 55.608 109.061 55.128C109.341 54.64 109.721 54.26 110.201 53.988C110.689 53.716 111.241 53.58 111.857 53.58C112.393 53.58 112.877 53.7 113.309 53.94C113.741 54.18 114.085 54.54 114.341 55.02C114.605 55.5 114.737 56.1 114.737 56.82C114.737 57.54 114.609 58.14 114.353 58.62C114.105 59.1 113.765 59.464 113.333 59.712C112.901 59.952 112.409 60.072 111.857 60.072ZM111.953 59.064C112.353 59.064 112.713 58.972 113.033 58.788C113.361 58.604 113.617 58.344 113.801 58.008C113.993 57.664 114.089 57.268 114.089 56.82C114.089 56.364 113.993 55.972 113.801 55.644C113.617 55.308 113.361 55.048 113.033 54.864C112.713 54.68 112.353 54.588 111.953 54.588C111.545 54.588 111.181 54.68 110.861 54.864C110.541 55.048 110.285 55.308 110.093 55.644C109.901 55.972 109.805 56.364 109.805 56.82C109.805 57.268 109.901 57.664 110.093 58.008C110.285 58.344 110.541 58.604 110.861 58.788C111.181 58.972 111.545 59.064 111.953 59.064ZM114.125 60V58.284L114.197 56.808L114.077 55.332V51.096H115.229V60H114.125Z" fill="#003B79"/>
</svg>
