<svg width="115" height="80" viewBox="0 0 115 80" fill="none" xmlns="http://www.w3.org/2000/svg">
<path d="M114.567 40C114.567 62.0934 88.921 80 57.2852 80C25.6495 80 0 62.0934 0 40C0 17.9066 25.6464 0 57.2822 0C88.9179 0 114.564 17.9097 114.564 40" fill="#003B79"/>
<path d="M102.192 39.9785C102.192 55.944 82.2118 68.8856 57.5652 68.8856C32.9186 68.8856 12.9355 55.944 12.9355 39.9785C12.9355 24.0129 32.9155 11.0713 57.5652 11.0713C82.2149 11.0713 102.192 24.0129 102.192 39.9785Z" fill="white"/>
<path d="M23.533 16.5316L21.6289 13.3354L22.9455 12.551C23.2285 12.3818 23.4992 12.2833 23.7545 12.2556C24.0098 12.2249 24.2467 12.2649 24.4559 12.3695C24.6682 12.474 24.8435 12.6432 24.9819 12.8801C25.1204 13.1139 25.188 13.3508 25.1788 13.5846C25.1696 13.8214 25.0927 14.0429 24.945 14.2552C24.7974 14.4674 24.582 14.6582 24.299 14.8273L23.3115 15.4149L23.41 14.9781L24.1237 16.1809L23.53 16.5346L23.533 16.5316ZM23.45 15.0396L23.0132 14.9104L23.9729 14.3382C24.2344 14.1813 24.4005 14.0091 24.4651 13.8183C24.5328 13.6276 24.5051 13.4338 24.3851 13.2308C24.2621 13.0278 24.1052 12.9109 23.9053 12.8801C23.7084 12.8493 23.4777 12.9109 23.2162 13.0678L22.2564 13.6399L22.3487 13.1908L23.45 15.0396Z" fill="white"/>
<path d="M29.181 13.5446C28.7195 13.763 28.2981 13.803 27.9136 13.6676C27.529 13.5323 27.2214 13.2185 26.9907 12.7263L26.0955 10.8283L26.72 10.533L27.6059 12.4094C27.769 12.7571 27.9628 12.9724 28.1843 13.0585C28.4058 13.1447 28.6549 13.1231 28.9287 12.997C29.2025 12.8678 29.3748 12.6925 29.4486 12.4648C29.5224 12.2372 29.4763 11.9511 29.3132 11.6066L28.4273 9.73006L29.0425 9.4409L29.9377 11.3389C30.1684 11.828 30.2146 12.2649 30.0761 12.6494C29.9377 13.0339 29.6393 13.3323 29.181 13.5476V13.5446Z" fill="white"/>
<path d="M32.4233 12.0465L31.1159 8.56418L31.7619 8.32116L32.8632 11.2589L34.6843 10.576L34.8904 11.1236L32.4202 12.0495L32.4233 12.0465Z" fill="white"/>
<path d="M36.3824 10.6529L35.3119 7.0876L35.9732 6.88764L36.8746 9.89003L38.7388 9.33016L38.9079 9.89003L36.3824 10.6498V10.6529Z" fill="white"/>
<path d="M40.4307 9.50242L39.5478 5.88787L40.2184 5.72483L41.1013 9.33938L40.4307 9.50242Z" fill="white"/>
<path d="M43.0701 8.8841L42.3994 5.22341L42.9593 5.12189L45.771 7.51827L45.4941 7.57056L44.9773 4.75275L45.651 4.6297L46.3216 8.29039L45.7617 8.39191L42.9501 5.99554L43.227 5.94324L43.7438 8.76105L43.0701 8.8841Z" fill="white"/>
<path d="M50.0069 7.85665C49.7178 7.88741 49.4471 7.87203 49.1948 7.80435C48.9426 7.73668 48.718 7.62901 48.5211 7.47827C48.3212 7.32754 48.1612 7.13989 48.0381 6.9184C47.9151 6.69692 47.8382 6.44774 47.8074 6.17396C47.7767 5.90018 47.7982 5.6387 47.872 5.39568C47.9459 5.15266 48.0628 4.93425 48.2258 4.74352C48.3888 4.5528 48.5857 4.39591 48.8195 4.27594C49.0533 4.15596 49.3117 4.07906 49.6009 4.0483C49.9146 4.01446 50.2038 4.03292 50.4653 4.10674C50.7298 4.18057 50.9575 4.3067 51.1513 4.48512L50.7637 4.95578C50.6037 4.82658 50.4345 4.73737 50.2592 4.68815C50.0838 4.63893 49.8962 4.62355 49.6962 4.64508C49.5024 4.66662 49.3271 4.71891 49.1671 4.79889C49.0072 4.87887 48.8749 4.98654 48.7703 5.11574C48.6626 5.24494 48.5857 5.3926 48.5396 5.55872C48.4903 5.72483 48.478 5.90325 48.4996 6.0909C48.5211 6.27855 48.5703 6.44774 48.6534 6.59848C48.7365 6.74921 48.8441 6.87841 48.9764 6.983C49.1087 7.0876 49.2594 7.16142 49.4286 7.20757C49.5978 7.25371 49.7793 7.26602 49.9792 7.24448C50.1638 7.22295 50.3361 7.17681 50.5022 7.0999C50.6652 7.02299 50.819 6.9061 50.9575 6.75229L51.4035 7.22295C51.2282 7.39829 51.0159 7.5398 50.7698 7.64747C50.5237 7.75513 50.2684 7.82281 50.01 7.8505L50.0069 7.85665ZM50.7452 7.21064L50.5914 5.82635L51.2405 5.75559L51.4035 7.2291L50.7421 7.21064H50.7452Z" fill="white"/>
<path d="M59.1248 7.37676L59.1771 4.23902L57.9436 4.21749L57.9528 3.63301L61.109 3.6853L61.0997 4.26978L59.8662 4.24825L59.8139 7.38599L59.1217 7.37368L59.1248 7.37676Z" fill="white"/>
<path d="M64.2744 7.67208C63.9852 7.65054 63.7207 7.57979 63.4869 7.46597C63.25 7.35215 63.0501 7.20142 62.884 7.01377C62.7178 6.82919 62.5948 6.61693 62.5148 6.37699C62.4348 6.13705 62.4041 5.88172 62.4256 5.60486C62.4471 5.328 62.5179 5.07883 62.6348 4.85734C62.7517 4.63278 62.9086 4.44513 63.1024 4.28824C63.2962 4.13135 63.5177 4.01446 63.7699 3.93755C64.0222 3.86065 64.2898 3.83604 64.5759 3.85757C64.865 3.88218 65.1265 3.94986 65.3634 4.06368C65.5972 4.1775 65.7971 4.32823 65.9632 4.51588C66.1294 4.70045 66.2524 4.91271 66.3355 5.15266C66.4154 5.3926 66.4462 5.64793 66.4247 5.92479C66.4031 6.20165 66.3324 6.45082 66.2155 6.67538C66.0986 6.89995 65.9417 7.09067 65.7479 7.24756C65.5541 7.40137 65.3326 7.51827 65.0835 7.59517C64.8343 7.67208 64.5666 7.69669 64.2806 7.67515L64.2744 7.67208ZM64.3175 7.06606C64.5051 7.08144 64.6805 7.06606 64.8435 7.01377C65.0065 6.96147 65.1511 6.88457 65.2803 6.77382C65.4064 6.66615 65.508 6.53388 65.5849 6.38314C65.6618 6.22933 65.7079 6.06014 65.7233 5.86941C65.7387 5.67869 65.7202 5.50335 65.6679 5.34031C65.6156 5.17727 65.5357 5.03268 65.428 4.90656C65.3203 4.77736 65.1911 4.67584 65.0373 4.60202C64.8835 4.52511 64.7112 4.47897 64.5266 4.46359C64.339 4.4482 64.1637 4.46666 64.0037 4.51896C63.8407 4.57125 63.6961 4.65123 63.5699 4.7589C63.4407 4.86657 63.3392 4.99885 63.2623 5.14958C63.1854 5.30339 63.1362 5.47258 63.1239 5.66331C63.1085 5.85096 63.127 6.0263 63.1793 6.18934C63.2316 6.35238 63.3115 6.50004 63.4192 6.62616C63.5269 6.75536 63.6561 6.85688 63.8099 6.93378C63.9637 7.01069 64.1329 7.05683 64.3205 7.06914L64.3175 7.06606Z" fill="white"/>
<path d="M69.6855 8.32423C69.3994 8.28117 69.141 8.19503 68.9164 8.06583C68.6918 7.93663 68.5011 7.77359 68.3473 7.57671C68.1935 7.37984 68.0858 7.15835 68.0243 6.91225C67.9628 6.66615 67.9505 6.40775 67.9935 6.13397C68.0366 5.86019 68.1227 5.61717 68.255 5.39875C68.3873 5.18034 68.5596 5.00192 68.7657 4.86042C68.9718 4.71891 69.2025 4.6174 69.4578 4.56202C69.7131 4.50665 69.9839 4.5005 70.273 4.54357C70.5837 4.58971 70.8575 4.68507 71.0944 4.8235C71.3282 4.96193 71.5189 5.14343 71.6604 5.36799L71.1651 5.72176C71.0421 5.55564 70.9036 5.42644 70.7498 5.33415C70.5929 5.24187 70.4145 5.17727 70.2146 5.1465C70.0208 5.11882 69.8393 5.1219 69.6639 5.15881C69.4886 5.19572 69.3348 5.2634 69.1963 5.36184C69.0579 5.46028 68.9472 5.58333 68.858 5.73099C68.7687 5.87864 68.7103 6.04784 68.6826 6.23548C68.6549 6.42006 68.6611 6.59848 68.7011 6.76459C68.7411 6.93071 68.8118 7.08452 68.9133 7.21987C69.0148 7.35523 69.141 7.46597 69.2917 7.55518C69.4424 7.64131 69.6178 7.70284 69.8147 7.73052C69.9962 7.75821 70.1777 7.75513 70.3561 7.72437C70.5345 7.69361 70.7129 7.61978 70.8883 7.50596L71.199 8.07506C70.9836 8.20118 70.7406 8.28117 70.4761 8.32116C70.2084 8.36115 69.9469 8.36115 69.6885 8.32116L69.6855 8.32423ZM70.5653 7.88741L70.7744 6.50927L71.4204 6.60771L71.1959 8.07506L70.5622 7.88741H70.5653Z" fill="white"/>
<path d="M73.8045 8.40114L75.8533 8.85949L75.7271 9.42552L73.0016 8.81643L73.8137 5.18342L76.4654 5.77713L76.3393 6.34315L74.3613 5.90018L73.8014 8.40114H73.8045ZM74.0998 6.83227L75.9056 7.23525L75.7825 7.78897L73.9768 7.38599L74.0998 6.83227Z" fill="white"/>
<path d="M78.1543 10.0961L79.0371 7.0876L77.8528 6.73998L78.0189 6.17704L81.049 7.06606L80.8829 7.62901L79.6985 7.2814L78.8157 10.293L78.1512 10.0992L78.1543 10.0961Z" fill="white"/>
<path d="M82.0949 11.3605L81.4489 11.1174L82.7655 7.63516L83.4115 7.87818L82.0949 11.3605ZM84.5097 10.5699L82.6056 9.85003L82.8147 9.29939L84.7189 10.0192L84.5097 10.5699ZM85.2111 8.5611L85.8571 8.80412L84.5405 12.2864L83.8945 12.0434L85.2111 8.5611Z" fill="white"/>
<path d="M87.2599 12.8678L89.1517 13.7784L88.8995 14.3013L86.3831 13.0924L87.9951 9.73621L90.4437 10.9113L90.1946 11.4343L88.3673 10.5576L87.2568 12.8678H87.2599ZM87.9028 11.4066L89.5701 12.2064L89.324 12.7201L87.6567 11.9203L87.9028 11.4066Z" fill="white"/>
<path d="M90.4253 15.135L92.3387 11.9419L93.6522 12.7294C93.9352 12.8986 94.1506 13.0893 94.2982 13.3015C94.4459 13.5138 94.5228 13.7384 94.532 13.9752C94.5382 14.2121 94.4736 14.4459 94.3321 14.6797C94.1906 14.9135 94.0152 15.0827 93.806 15.1842C93.5969 15.2857 93.3631 15.3226 93.1077 15.2919C92.8524 15.2611 92.5817 15.1596 92.2987 14.9904L91.3143 14.3998L91.7388 14.289L91.019 15.4887L90.4253 15.135ZM91.6988 14.3536L91.6035 13.9137L92.5602 14.489C92.8217 14.6459 93.0524 14.7074 93.2523 14.6735C93.4523 14.6397 93.6123 14.5228 93.7322 14.3228C93.8553 14.1198 93.883 13.9229 93.8153 13.7353C93.7476 13.5476 93.5846 13.3754 93.3231 13.2185L92.3664 12.6432L92.8063 12.511L91.6988 14.3567V14.3536ZM92.514 16.3839L92.4002 14.7412L93.0339 15.1196L93.1508 16.7654L92.511 16.3839H92.514Z" fill="white"/>
<path d="M23.0901 67.3568L24.9419 64.1298L26.4554 64.9973C26.843 65.2188 27.0953 65.4649 27.2091 65.7325C27.326 66.0002 27.3106 66.2647 27.163 66.517C27.0645 66.6892 26.9384 66.8123 26.7907 66.8892C26.64 66.9661 26.48 66.9968 26.3078 66.9876C26.1355 66.9784 25.9725 66.9261 25.8156 66.8369L25.994 66.72C26.1755 66.8246 26.3201 66.9507 26.4247 67.0984C26.5323 67.246 26.5908 67.4091 26.6031 67.5844C26.6154 67.7598 26.5662 67.9412 26.4585 68.1289C26.2985 68.4058 26.0709 68.5596 25.7694 68.5903C25.468 68.6211 25.1111 68.5196 24.6928 68.2796L23.087 67.3598L23.0901 67.3568ZM23.9575 67.2306L24.9266 67.7874C25.1511 67.9166 25.3449 67.9782 25.508 67.972C25.671 67.9659 25.7971 67.8828 25.8925 67.7198C25.9848 67.5598 25.9909 67.4091 25.914 67.2645C25.8371 67.1199 25.6864 66.9845 25.4618 66.8553L24.4467 66.2739L24.7143 65.8094L25.6095 66.3232C25.8187 66.4431 26.0002 66.4985 26.154 66.4893C26.3078 66.48 26.4277 66.4001 26.5139 66.2524C26.6 66.1017 26.6092 65.9571 26.5385 65.8187C26.4677 65.6802 26.3293 65.551 26.1201 65.4311L25.2711 64.945L23.9575 67.2337V67.2306Z" fill="white"/>
<path d="M27.7874 69.9193L29.3163 66.5262L30.7129 67.1537C31.0144 67.2891 31.2482 67.4521 31.4204 67.6459C31.5927 67.8397 31.6942 68.0551 31.7281 68.2858C31.7619 68.5196 31.725 68.7595 31.6112 69.0087C31.4973 69.2579 31.3435 69.4455 31.1467 69.5716C30.9498 69.6978 30.7221 69.7624 30.4637 69.7593C30.2053 69.7593 29.9254 69.6885 29.627 69.5532L28.5811 69.0825L28.9902 68.9226L28.415 70.1961L27.7844 69.9131L27.7874 69.9193ZM28.9625 68.9964L28.818 68.5688L29.8362 69.0272C30.1131 69.1533 30.3499 69.1871 30.5437 69.1317C30.7375 69.0764 30.8821 68.941 30.9805 68.7288C31.079 68.5103 31.0821 68.3135 30.9959 68.135C30.9067 67.9566 30.7252 67.8028 30.4453 67.6767L29.4271 67.2183L29.8485 67.0338L28.9625 68.9964ZM30.0085 70.919L29.707 69.3009L30.3807 69.6055L30.6883 71.2266L30.0085 70.9221V70.919Z" fill="white"/>
<path d="M32.4817 71.8849L33.7799 68.3965L34.4259 68.6365L33.1277 72.1249L32.4817 71.8849Z" fill="white"/>
<path d="M35.2473 72.894L36.3085 69.3286L37.8682 69.7931C38.2558 69.91 38.5726 70.0854 38.8218 70.3222C39.0679 70.5591 39.234 70.8329 39.3202 71.1467C39.4032 71.4604 39.394 71.7957 39.2863 72.1587C39.1787 72.5156 39.0064 72.8017 38.7634 73.0201C38.5203 73.2385 38.2312 73.38 37.8959 73.4415C37.5606 73.503 37.1976 73.4784 36.81 73.3615L35.2503 72.897L35.2473 72.894ZM36.0748 72.531L36.9422 72.7894C37.2099 72.8693 37.459 72.8878 37.6836 72.8447C37.9082 72.8017 38.102 72.7032 38.265 72.5525C38.4281 72.4018 38.545 72.2018 38.6157 71.9588C38.6895 71.7096 38.6988 71.4789 38.6465 71.2666C38.5942 71.0544 38.4834 70.8667 38.3204 70.7068C38.1543 70.5468 37.9389 70.4268 37.6713 70.3468L36.8038 70.0884L36.0748 72.534V72.531Z" fill="white"/>
<path d="M42.3656 74.8166C42.0826 74.7551 41.8303 74.6535 41.6119 74.512C41.3935 74.3705 41.2151 74.1952 41.0736 73.9891C40.9321 73.783 40.8367 73.5553 40.7906 73.3062C40.7414 73.057 40.7475 72.7955 40.806 72.5248C40.8644 72.2541 40.9659 72.0142 41.1105 71.808C41.2551 71.5989 41.4366 71.4297 41.6519 71.3005C41.8673 71.1713 42.1041 71.0851 42.3625 71.0451C42.6209 71.0052 42.8916 71.0144 43.1777 71.0728C43.4854 71.1374 43.753 71.2482 43.9806 71.402C44.2083 71.5558 44.3836 71.7465 44.5128 71.9772L43.9991 72.3033C43.8883 72.1311 43.7561 71.9926 43.6053 71.8911C43.4546 71.7896 43.2823 71.7158 43.0824 71.6727C42.8916 71.6327 42.7101 71.6265 42.5317 71.6542C42.3564 71.6819 42.1964 71.7404 42.0549 71.8296C41.9134 71.9188 41.7934 72.0357 41.695 72.1772C41.5966 72.3187 41.5289 72.4848 41.4889 72.6725C41.4489 72.857 41.4458 73.0324 41.4766 73.2016C41.5073 73.3708 41.5689 73.5276 41.6612 73.6692C41.7534 73.8107 41.8734 73.9306 42.0211 74.026C42.1687 74.1214 42.3379 74.1921 42.5317 74.2321C42.7101 74.269 42.8916 74.2782 43.0731 74.2567C43.2546 74.2352 43.4331 74.1737 43.6146 74.0691L43.8914 74.6566C43.6668 74.7674 43.4238 74.8381 43.1562 74.8627C42.8886 74.8873 42.6271 74.872 42.3687 74.8166H42.3656ZM43.2669 74.4321L43.5561 73.0693L44.196 73.2047L43.8883 74.6566L43.2669 74.4321Z" fill="white"/>
<path d="M45.8663 75.4103L46.4354 71.7311L47.1184 71.8357L46.5493 75.5149L45.8663 75.4103Z" fill="white"/>
<path d="M48.7426 75.8317L49.1056 72.128L49.6716 72.1833L51.7142 75.2626L51.4343 75.2349L51.7142 72.3833L52.3971 72.451L52.0341 76.1547L51.4681 76.0994L49.4255 73.0201L49.7055 73.0478L49.4255 75.8994L48.7426 75.8317Z" fill="white"/>
<path d="M55.9963 76.3916C55.7071 76.3824 55.4395 76.3301 55.1996 76.2286C54.9596 76.1271 54.7504 75.9886 54.5751 75.8133C54.3998 75.6349 54.2644 75.4287 54.1721 75.1919C54.0798 74.955 54.0368 74.6997 54.046 74.4228C54.0521 74.146 54.1106 73.8937 54.2152 73.6599C54.3198 73.4292 54.4674 73.2293 54.6551 73.0631C54.8427 72.897 55.0611 72.7709 55.3072 72.6817C55.5533 72.5956 55.824 72.5556 56.1132 72.5648C56.4301 72.574 56.7131 72.6325 56.9622 72.7432C57.2114 72.854 57.4206 73.0078 57.5898 73.2139L57.1437 73.6261C57.0022 73.4754 56.8484 73.3646 56.6823 73.2908C56.5162 73.2169 56.3316 73.177 56.1286 73.1708C55.9348 73.1647 55.7533 73.1923 55.5841 73.2508C55.4149 73.3092 55.2703 73.3954 55.1473 73.5092C55.0242 73.623 54.9258 73.7584 54.8581 73.9153C54.7874 74.0721 54.7504 74.2475 54.7443 74.4382C54.7381 74.6259 54.7658 74.8012 54.8273 74.9612C54.8889 75.1211 54.9781 75.2626 55.095 75.3857C55.2119 75.5087 55.3503 75.6041 55.5133 75.6718C55.6733 75.7394 55.8548 75.7764 56.0517 75.7825C56.2363 75.7887 56.4147 75.7641 56.5869 75.7087C56.7592 75.6564 56.9253 75.561 57.0853 75.4287L57.4637 75.9548C57.2637 76.1055 57.0361 76.2163 56.7777 76.2901C56.5193 76.3639 56.2578 76.3947 55.9963 76.3885V76.3916ZM56.8146 75.8502L56.8546 74.4567L57.5067 74.4751L57.4637 75.9579L56.8115 75.8502H56.8146Z" fill="white"/>
<path d="M64.7789 76.0901L64.379 72.3895L65.9971 72.2141C66.4001 72.171 66.76 72.211 67.0799 72.331C67.3998 72.4541 67.6582 72.6417 67.8582 72.9001C68.0581 73.1554 68.1781 73.4723 68.2181 73.8445C68.2581 74.2136 68.2089 74.5459 68.0704 74.8412C67.932 75.1365 67.7198 75.3764 67.4337 75.5641C67.1476 75.7517 66.803 75.8686 66.4031 75.9117L64.7851 76.0871L64.7789 76.0901ZM65.4034 75.4349L66.3016 75.3365C66.5785 75.3057 66.8154 75.2288 67.0061 75.0996C67.1968 74.9704 67.3383 74.8074 67.4275 74.6043C67.5167 74.4013 67.5506 74.1737 67.5229 73.9214C67.4952 73.663 67.4152 73.4477 67.2829 73.2692C67.1507 73.0939 66.9784 72.9616 66.7631 72.8786C66.5477 72.7955 66.3016 72.7678 66.0248 72.7986L65.1265 72.897L65.4003 75.4349H65.4034Z" fill="white"/>
<path d="M70.2853 75.3949L69.6762 71.725L70.3592 71.6112L70.9682 75.2811L70.2853 75.3949Z" fill="white"/>
<path d="M74.2013 74.6474L71.805 71.3681L72.5371 71.2051L74.6843 74.1737L74.2629 74.2659L74.9642 70.6637L75.6379 70.513L74.8658 74.4967L74.2013 74.6443V74.6474Z" fill="white"/>
<path d="M77.9697 73.7338L76.9546 70.153L77.619 69.9654L78.6342 73.5461L77.9697 73.7338Z" fill="white"/>
<path d="M80.7567 72.9032L79.5109 69.3963L81.0428 68.8518C81.4243 68.7165 81.7842 68.6703 82.1226 68.7165C82.461 68.7626 82.7594 68.8856 83.0116 69.0887C83.2639 69.2917 83.4546 69.5716 83.5807 69.9254C83.7068 70.2761 83.7345 70.6114 83.6669 70.9313C83.5992 71.2513 83.4484 71.5343 83.2146 71.7834C82.9809 72.0326 82.6702 72.2233 82.2918 72.3587L80.7598 72.9032H80.7567ZM81.212 72.1218L82.0641 71.8204C82.3287 71.7281 82.5379 71.5958 82.6948 71.4266C82.8517 71.2574 82.9501 71.0667 82.9901 70.8483C83.0301 70.6299 83.0085 70.4022 82.9224 70.1623C82.8363 69.9193 82.7071 69.7254 82.5379 69.5839C82.3687 69.4424 82.1718 69.3563 81.9442 69.3225C81.7165 69.2917 81.4704 69.3225 81.2059 69.4147L80.3538 69.7162L81.209 72.1218H81.212Z" fill="white"/>
<path d="M86.4601 70.07L88.3704 69.1963L88.6103 69.7224L86.0724 70.8821L84.5251 67.4983L86.9953 66.3693L87.2353 66.8953L85.3926 67.7382L86.457 70.07H86.4601ZM85.7464 68.6395L87.4291 67.8705L87.6659 68.3873L85.9832 69.1563L85.7464 68.6395Z" fill="white"/>
<path d="M91.4404 68.3012C91.1882 68.4457 90.9267 68.5442 90.6529 68.6057C90.3792 68.6642 90.1454 68.6765 89.9423 68.6395L89.887 68.0551C90.0746 68.0827 90.2838 68.0766 90.5114 68.0366C90.7421 67.9966 90.9575 67.9197 91.1574 67.8059C91.3266 67.7105 91.4528 67.6121 91.5389 67.5167C91.6219 67.4214 91.6712 67.326 91.6835 67.2337C91.6958 67.1414 91.6835 67.0553 91.6342 66.9753C91.5789 66.8769 91.4989 66.8184 91.3912 66.7969C91.2866 66.7784 91.1667 66.7815 91.0344 66.8092C90.9021 66.8369 90.7575 66.8769 90.6037 66.923C90.4499 66.9692 90.2899 67.0122 90.13 67.0491C89.97 67.0861 89.8131 67.1014 89.6624 67.0984C89.5117 67.0984 89.3701 67.0584 89.2379 66.9876C89.1025 66.9169 88.9887 66.7938 88.8903 66.6216C88.7918 66.4462 88.7457 66.2586 88.758 66.0586C88.7703 65.8587 88.8472 65.6618 88.9887 65.4618C89.1302 65.2649 89.3517 65.0834 89.647 64.9143C89.8408 64.8035 90.0469 64.7205 90.2684 64.6589C90.4868 64.6005 90.6929 64.5759 90.8867 64.5882L90.9636 65.1634C90.7698 65.1603 90.5853 65.1788 90.4068 65.225C90.2284 65.2711 90.0684 65.3326 89.9269 65.4157C89.7608 65.511 89.6378 65.6064 89.5578 65.7048C89.4778 65.8033 89.4317 65.8986 89.4194 65.9909C89.4071 66.0832 89.4255 66.1693 89.4747 66.2524C89.5301 66.3508 89.6101 66.4093 89.7147 66.4308C89.8193 66.4524 89.9362 66.4462 90.0685 66.4154C90.2007 66.3847 90.3453 66.3478 90.5022 66.3016C90.6591 66.2555 90.819 66.2124 90.9759 66.1755C91.1359 66.1386 91.2897 66.1201 91.4404 66.1201C91.5881 66.1201 91.7296 66.157 91.8619 66.2278C91.9942 66.2985 92.108 66.4185 92.2064 66.5908C92.3049 66.7631 92.3479 66.9507 92.3356 67.1507C92.3233 67.3506 92.2464 67.5506 92.1018 67.7474C91.9572 67.9443 91.7358 68.1289 91.4404 68.2981V68.3012Z" fill="white"/>
<path d="M105.853 28.3288L105.859 29.9346L104.542 30.8544L106.071 31.3405L106.538 32.8786L107.474 31.5743L109.083 31.6081L108.129 30.313L108.658 28.7934L107.132 29.2979L105.853 28.3288Z" fill="white"/>
<path d="M110.673 39.1171L109.418 40.123L107.88 39.6616L108.449 41.1659L107.535 42.4856L109.141 42.4087L110.116 43.6853L110.538 42.1349L112.054 41.6027L110.71 40.7229L110.673 39.1171Z" fill="white"/>
<path d="M106.951 50.2561L105.699 51.2651L104.158 50.8037L104.73 52.3049L103.816 53.6276L105.422 53.5476L106.397 54.8273L106.818 53.2769L108.332 52.7448L106.988 51.865L106.951 50.2561Z" fill="white"/>
<path d="M10.4222 28.3288L10.413 29.9346L11.7327 30.8544L10.2007 31.3405L9.73621 32.8786L8.79797 31.5743L7.19219 31.6081L8.14274 30.313L7.6167 28.7934L9.14251 29.2979L10.4222 28.3288Z" fill="white"/>
<path d="M5.60178 39.1171L6.8538 40.123L8.39499 39.6616L7.82281 41.1659L8.73952 42.4856L7.13374 42.4087L6.15858 43.6853L5.73714 42.1349L4.22056 41.6027L5.56487 40.7229L5.60178 39.1171Z" fill="white"/>
<path d="M9.324 50.2561L10.576 51.2651L12.1141 50.8037L11.545 52.3049L12.4587 53.6276L10.8529 53.5476L9.87772 54.8273L9.45628 53.2769L7.93971 52.7448L9.28709 51.865L9.324 50.2561Z" fill="white"/>
<path d="M41.8703 55.7195C41.5996 55.4487 41.4612 55.1011 41.4612 54.6889C41.4612 54.2767 41.5966 53.9476 41.8703 53.6953C42.141 53.4461 42.4856 53.3231 42.8978 53.3262C43.31 53.3262 43.6545 53.4554 43.9252 53.7076C44.196 53.9599 44.3313 54.2921 44.3313 54.7043C44.3313 55.1165 44.196 55.4611 43.9252 55.7287C43.6545 55.9994 43.31 56.1347 42.8978 56.1317C42.4856 56.1286 42.141 55.9902 41.8703 55.7164" fill="white"/>
<path d="M72.5463 58.4542C72.3126 58.2758 72.0049 58.2296 71.7127 58.205C70.2792 58.0758 68.818 58.2819 67.4767 58.8018C66.5631 59.1556 65.7079 59.6539 64.8035 60.0261C66.7477 59.8016 68.7072 59.6939 70.6637 59.7185C71.1528 59.7247 71.6296 59.6755 72.0941 59.6047C72.1618 59.5801 72.2326 59.5616 72.2972 59.537C72.4725 59.4693 72.654 59.3894 72.7524 59.2294C72.9063 58.9802 72.7771 58.6326 72.5433 58.4542" fill="#B22234"/>
<path d="M63.0378 58.0328C61.7519 57.6359 59.6416 58.2358 58.405 58.6019C56.7223 59.1002 55.1165 59.9123 53.3692 60.0754C52.957 60.1154 52.4956 60.0969 52.1972 59.8139C52.0249 59.6478 51.9326 59.414 51.8004 59.214C51.1697 58.2573 49.81 58.2266 48.6657 58.2604C44.6451 58.3773 40.6122 58.0051 36.6777 57.1591C36.5608 57.1345 36.4439 57.113 36.327 57.0853C36.1394 57.0453 35.9517 57.0022 35.7641 56.9592C35.2165 56.8392 34.6658 56.7315 34.1152 56.6885C34.0906 56.6885 34.066 56.6854 34.0414 56.6823C33.8783 56.6731 33.7153 56.6669 33.5523 56.67C33.4046 56.6731 33.26 56.6823 33.1124 56.6977C33.1893 57.3991 33.9029 57.842 34.5766 58.0512C36.0625 58.5126 37.6621 58.3465 39.2217 58.4204C39.8893 58.4511 40.5476 58.525 41.1874 58.7095C41.5135 58.8049 41.8273 58.9279 42.1349 59.0602C42.6517 59.2848 43.1531 59.5493 43.6607 59.7924C43.9868 59.9462 44.3129 60.0938 44.6543 60.2138C45.1373 60.3861 45.6387 60.4968 46.1463 60.5614C46.6539 60.626 47.1676 60.6383 47.6782 60.5922C48.2043 60.546 48.7272 60.4507 49.2317 60.2907C49.2533 60.2845 49.2748 60.2784 49.2932 60.2692C49.4994 60.2015 49.7147 60.1307 49.9331 60.0692C50.21 59.9892 50.4899 59.9246 50.7606 59.9185C50.8867 59.9154 51.0067 59.9277 51.1267 59.9523C51.2959 59.9862 51.4558 60.0446 51.6066 60.1523C51.6527 60.1861 51.6927 60.2292 51.7358 60.2692C51.7757 60.3061 51.8219 60.3399 51.8588 60.383C51.9234 60.4507 51.988 60.5214 52.0526 60.5891C52.0711 60.6076 52.0864 60.6291 52.1049 60.6475C52.8524 61.4012 53.9845 61.5919 55.0396 61.7088C56.87 61.9088 58.7126 62.0072 60.5553 61.9949C60.9952 61.9949 61.5335 61.918 61.6935 61.5089C61.7673 61.3212 61.7335 61.1367 61.6412 60.9644C61.5889 60.8629 61.515 60.7675 61.432 60.6783C61.4227 60.666 61.4104 60.6568 61.3981 60.6475C61.3705 60.6199 61.3458 60.5952 61.3182 60.5706C61.2505 60.5091 61.1828 60.4537 61.1121 60.4014C61.0659 60.3676 61.0228 60.3368 60.9798 60.3061C61.3089 59.9092 61.8873 59.8631 62.401 59.8354C63.7115 59.7708 64.5759 58.5034 63.0439 58.0297" fill="#B22234"/>
<path d="M36.4562 58.9033C35.8164 58.7957 35.1365 58.9556 34.5059 58.851C34.3767 58.8295 34.2506 58.8018 34.1275 58.7526C33.6722 58.5711 33.3277 58.1989 32.9247 57.922C32.5217 57.6452 31.9711 57.4667 31.5527 57.719C31.2697 57.7774 31.1713 58.1681 31.3005 58.4265C31.4297 58.6849 31.7035 58.8357 31.9619 58.9618C33.0047 59.4755 34.1029 59.8816 35.2257 60.1861C35.7548 60.3307 36.287 60.4568 36.8284 60.5522C37.0776 60.5952 37.336 60.6322 37.579 60.5583C38.8741 60.1584 36.9853 58.9987 36.4501 58.9064" fill="#B22234"/>
<path d="M75.2842 56.7715C75.1119 56.7038 74.9212 56.6638 74.7428 56.6454C74.7243 56.6454 74.7058 56.6392 74.6874 56.6392C74.1829 56.5962 71.9834 56.3808 71.7373 56.9376C71.6819 57.0607 71.725 57.1683 71.8234 57.2606C71.8573 57.2914 71.9003 57.3222 71.9465 57.3498C72.0695 57.4237 72.2264 57.4852 72.4079 57.5406C72.6048 57.6021 72.8201 57.6513 73.0324 57.6944C73.4415 57.7805 73.8291 57.839 73.9922 57.8943C74.1829 57.9589 74.3767 58.0235 74.5736 58.0697C74.7489 58.1097 74.9242 58.1281 75.1027 58.1066C75.481 58.0574 75.8563 57.7467 75.8256 57.3683C75.8133 57.2053 75.7302 57.0761 75.6164 56.9715C75.5241 56.8884 75.4103 56.8238 75.2842 56.7746" fill="#B22234"/>
<path d="M31.4297 29.464C31.4297 29.464 32.3464 30.3499 33.4477 30.2269L33.4692 30.4668L32.7832 30.7283L31.1774 30.5068L31.4327 29.464H31.4297Z" fill="white"/>
<path d="M84.522 52.0465C85.4326 54.9535 83.1654 58.2666 80.9229 59.9554C80.1077 60.5614 79.1725 61.0567 78.1666 61.2074C79.1325 60.9244 79.9846 60.3738 80.7537 59.7431C82.8547 57.962 85.0265 54.935 84.519 52.0495L84.522 52.0465Z" fill="#B22234"/>
<path d="M24.5513 54.4028C24.3328 54.4582 24.1883 54.6335 24.1267 54.8181C23.9083 55.4241 24.5574 55.8671 25.0988 55.8517C25.4803 55.8579 25.874 55.7287 26.2832 55.5903C26.6923 55.4518 27.1014 55.3042 27.526 55.1688C28.3904 54.8981 29.3194 54.6889 30.2269 54.8612C31.1128 55.0181 32.0326 55.5533 32.3187 56.4485C31.8388 55.7348 30.9928 55.3903 30.1623 55.3257C29.3255 55.2549 28.5073 55.4887 27.7044 55.7379C26.8523 55.9809 25.9786 56.3993 25.065 56.3224C24.5697 56.267 24.0591 55.9717 23.8929 55.4795C23.7299 55.015 24.0406 54.3998 24.5513 54.4059V54.4028Z" fill="#B22234"/>
<path d="M97.7959 39.6432H97.8051C97.5467 38.6188 92.2803 39.2986 91.5758 39.1141C91.2897 39.0525 88.4811 40.0677 88.152 40.1477L81.9196 39.6955C81.7319 39.1387 81.3228 38.8218 81.0644 38.3358C81.3874 36.1886 79.1633 34.3705 77.9759 32.9432C76.85 31.4266 74.8135 31.5466 73.1401 31.2113C77.2714 22.4071 65.9479 22.2964 68.6642 29.9808C68.658 29.9715 68.6549 29.9623 68.6488 29.9531C68.6488 29.9408 68.6426 29.9316 68.6395 29.9193C68.1873 29.1225 67.4644 28.2089 66.5139 28.1104C70.1684 19.8816 58.0143 20.6414 62.1334 27.892C62.1026 27.9443 62.0688 27.9997 62.0411 28.0551C62.0318 28.0551 62.0195 28.0551 62.0103 28.0551C61.918 28.2273 61.7581 28.3504 61.6012 28.4673C61.392 28.618 61.2105 28.7718 61.0228 28.9472C60.5522 29.384 59.9862 29.6578 59.4417 29.9869C58.8787 30.3253 58.2266 30.6052 57.799 31.119C57.4975 31.4789 57.2268 31.928 57.1899 32.4079C57.1499 32.9063 57.4944 33.4477 57.7467 33.8599C58.1312 34.4905 58.6265 34.795 59.2479 35.158C59.5032 35.3088 59.6447 35.5272 59.7247 35.8071C59.8323 36.1855 59.9431 36.4593 59.9616 36.8592C59.9831 37.3175 60.0323 37.8036 60.0415 38.2742C60.0477 38.5296 60.0415 38.7818 60.0138 39.0341C59.9523 39.6216 59.7678 40.0031 59.214 40.1015C59.1894 40.1015 59.1679 40.0984 59.1433 40.0954C59.0418 40.1046 58.9433 40.1138 58.8449 40.1138H58.7188C58.688 40.12 58.6572 40.1261 58.6265 40.1323C58.0358 40.1231 57.4514 40.0246 56.8607 39.9877C56.4331 39.96 55.9994 39.9846 55.5779 39.9569C55.5626 39.9569 55.5503 39.9569 55.5349 39.9539C55.4795 39.9477 55.4241 39.9416 55.3688 39.9354C55.0181 39.8831 54.6643 39.7693 54.3321 39.6616C54.3044 39.6524 54.2767 39.6432 54.249 39.6339C54.206 39.6155 54.166 39.597 54.1229 39.5786C53.8583 39.4617 53.5938 39.3755 53.3169 39.2986C53.1201 39.2279 52.9232 39.154 52.7263 39.0894C52.5202 39.0218 52.3141 38.9602 52.1049 38.9049C52.0526 38.8772 51.9972 38.8526 51.9419 38.8372C51.825 38.8064 51.7111 38.8034 51.5973 38.7726C51.5112 38.7357 51.4497 38.6772 51.4527 38.5819C51.4527 38.5757 51.4558 38.5665 51.4589 38.5603C51.5481 38.0774 51.7173 37.6129 51.7973 37.1268C51.8742 36.6346 51.9542 36.1424 52.028 35.6502C52.151 34.8412 52.2556 34.026 52.3479 33.2108C52.3387 33.1862 52.3356 33.1585 52.3418 33.1247C52.4002 32.8355 52.4125 32.5463 52.4125 32.251C52.4125 32.171 52.4648 32.1249 52.5294 32.1157C52.5386 32.1034 52.5479 32.0911 52.5602 32.0818C52.9447 31.8142 53.4461 31.7865 53.883 31.6542C54.4674 31.4789 55.0058 31.1897 55.5533 30.9313C56.1317 30.6575 56.7192 30.3653 57.2083 29.9469C58.002 29.2732 58.4573 28.2612 58.7003 27.2645C58.9556 26.2124 58.7649 25.0342 59.1771 24.0252C59.2325 23.8899 59.3002 23.7576 59.3801 23.6345C59.7185 23.1177 60.9429 22.7609 60.1554 21.9826C60.2107 21.7058 60.1061 21.3828 59.897 21.189C59.9216 20.9306 59.7862 20.6352 59.5709 20.4876C59.5555 19.9892 58.9156 19.7339 58.5834 20.1215C57.8051 20.0877 57.3345 21.0659 57.2883 21.6658C57.276 21.835 56.3039 22.3087 56.1317 22.4225C54.8827 23.0931 51.4681 24.985 51.4681 24.985L51.3358 25.0558C51.3358 25.0558 51.3082 24.742 51.262 24.499C51.3451 24.419 51.5173 24.2436 51.5173 24.2436C51.5173 24.2436 51.6465 23.7699 51.7942 23.5546C51.9572 23.3023 52.0095 23.1885 52.7417 22.9578C52.8186 22.8317 52.8955 22.7117 52.9785 22.5886C53.0155 22.4194 52.957 22.2349 52.7324 22.0103H52.7263C52.7817 21.7334 52.6771 21.4104 52.4679 21.2166C52.4925 20.9582 52.3572 20.6629 52.1418 20.5153C52.1295 20.0169 51.4897 19.7616 51.1574 20.1492C50.3791 20.1154 49.9054 21.0936 49.8623 21.6935L49.3671 22.0195C48.7703 21.8319 48.0997 21.9765 47.5121 22.1795C47.103 22.3241 46.6815 22.4748 46.3308 22.7394C46.1709 22.8593 46.0325 22.9978 45.8971 23.1454C45.7833 23.2654 45.4357 23.5576 45.3495 23.5361C45.1311 23.4838 44.9127 23.4315 44.6912 23.3823C44.479 23.3331 44.2667 23.2869 44.0545 23.2408C43.9499 23.2162 43.8422 23.1916 43.7345 23.167C43.6853 23.1547 43.5223 23.1424 43.4484 23.1085C43.2085 22.5579 42.6978 22.1334 41.9165 22.1334C41.8703 22.1334 41.8273 22.1334 41.7873 22.1364C41.6919 22.1149 41.5996 22.0964 41.5073 22.0841C41.5381 22.0841 41.7381 21.3858 41.7534 21.3212C41.7842 21.1797 41.7996 21.0351 41.815 20.8906C41.8519 20.5368 41.8919 20.1984 41.9719 19.8539C42.0211 19.6385 42.058 19.4232 42.0764 19.2048C42.1103 18.8357 42.0949 18.4604 42.0057 18.1004C41.8611 17.5098 41.5104 16.9899 41.0028 16.6515C40.5168 16.3285 39.9292 16.184 39.3478 16.1932C38.748 16.2024 38.1481 16.3778 37.6405 16.7008C37.1084 17.0422 36.6961 17.5529 36.4808 18.1497C36.207 18.9126 36.2593 19.7462 36.4654 20.5183C36.5546 20.8413 36.6685 21.1582 36.8007 21.4658C36.73 21.3028 35.0165 21.878 34.8473 21.9426C34.1091 22.2164 33.4015 22.5825 32.7647 23.0501C32.1341 23.5146 31.5743 24.0775 31.1743 24.7543C30.5899 25.7294 30.5037 27.2614 30.839 28.3381C30.9928 28.8303 31.2513 29.2825 31.6419 29.6209C32.0726 29.9992 32.8909 30.3007 33.4538 30.2115C33.46 30.3007 33.46 30.2792 33.4754 30.393L26.9968 33.6999C25.8556 33.7737 23.4254 33.4692 22.4071 34.0783C21.7642 34.5613 18.1035 35.7425 18.0174 36.7238C17.3991 38.0374 19.0848 41.0398 20.5706 40.6737C21.2505 40.8767 23.9053 39.1571 24.5051 38.9079C26.2155 38.1297 27.1076 36.0994 27.9074 34.5151L33.2139 31.7865C32.494 33.2816 32.0849 34.2198 31.9096 35.0411C31.888 35.0319 31.8696 35.0258 31.848 35.0165C31.8327 35.4657 31.7834 35.884 31.8142 36.2901C29.2025 35.641 25.4495 38.3635 24.8343 42.5779C24.8343 42.5779 24.8404 42.5779 24.8435 42.5779C24.8435 42.5779 24.8435 42.5809 24.8435 42.584C24.9358 42.6025 25.0311 42.6179 25.1234 42.6425C29.1625 43.6915 33.14 44.4913 37.1422 45.0758C37.2929 45.0296 37.456 45.005 37.6375 45.005C37.9205 45.005 38.1635 45.0665 38.3696 45.1711C39.071 44.9958 39.8339 44.9619 40.5937 45.0758C41.2828 45.1773 43.5315 45.0696 44.2359 44.9466C45.7956 44.6758 47.3306 44.2975 48.8657 43.9191C49.527 43.7561 50.1915 43.5961 50.859 43.4454C51.0375 43.1531 51.3174 42.907 51.7204 42.7655C52.9847 42.3256 54.369 42.4856 55.6856 42.3072C56.9469 42.1349 58.1774 41.8303 59.4355 41.6335C60.14 41.5227 60.8536 41.4643 61.5704 41.4458C61.5704 41.4458 61.5643 41.4427 61.5612 41.4397C62.1795 41.4212 62.804 41.4335 63.4254 41.4612C64.5266 41.5104 65.631 41.6119 66.72 41.7104C67.0553 41.7411 67.3875 41.7719 67.7198 41.7996C67.7198 41.7996 67.7228 41.7996 67.7259 41.7996C70.3007 42.0149 72.9585 43.2639 75.2626 44.3898C77.133 45.3034 79.7108 47.0107 80.1723 49.1948C80.1815 49.2379 80.1877 49.284 80.1938 49.3271C80.2092 49.4563 80.2123 49.5824 80.2 49.7055C80.2 49.7055 80.2 49.7055 80.2 49.7085C81.4151 49.6808 82.6332 49.6409 83.8545 49.5793C83.8545 49.5793 83.8545 49.5763 83.8545 49.5732C83.8637 49.5732 83.873 49.5732 83.8822 49.5732C83.4146 48.235 80.7691 46.3585 79.7908 45.3926L79.7785 45.4018C80.0308 44.0298 79.6493 42.6025 78.9572 41.3597C78.951 41.3597 78.9449 41.3566 78.9387 41.3535C78.788 41.0859 78.6249 40.8275 78.4496 40.5783L79.2433 40.6368C79.3571 40.7998 80.0492 41.2736 80.4491 41.0367C80.8675 41.0059 81.3566 41.209 81.6858 40.8152L87.4875 41.2366C90.2746 43.7807 91.2343 44.116 94.9935 43.9191C95.4672 43.9191 95.9009 43.6791 96.1501 43.2762C96.3993 42.5779 98.4265 40.4491 97.799 39.6309L97.7959 39.6432ZM66.5969 38.0435C66.5969 38.0435 66.5908 38.0435 66.5877 38.0435C66.5139 38.0681 66.4308 38.1604 66.3693 38.2189C66.3878 38.1943 66.3632 38.225 66.3632 38.225C65.9202 38.5849 65.8494 39.2832 66.0678 39.7416C65.388 39.1448 65.8248 37.6221 66.8092 37.6467C67.1876 37.2683 67.446 36.3978 67.6244 35.9148C67.5844 36.3793 67.5721 37.2191 67.3814 37.6805C67.9074 37.7882 68.4581 38.265 68.5811 38.7511C68.5565 38.7511 68.5257 38.7572 68.5011 38.7603C68.1289 38.182 67.2799 37.902 66.5969 38.0405V38.0435ZM68.9195 26.7754C69.6701 24.4528 72.9001 24.3605 73.4169 26.8307C71.6696 26.1786 69.3717 27.286 68.9718 29.1933C68.6949 28.3535 68.6672 27.5075 68.9195 26.7754ZM61.9242 25.8371C60.909 22.3487 66.7784 21.5458 66.6092 25.148C63.7607 24.2375 63.5638 26.7784 61.9242 25.8371ZM58.8726 33.7737C57.3129 33.4661 57.7067 31.362 58.851 30.7129H58.8572C60.9398 29.6209 62.884 28.5134 64.0591 26.397C65.4834 26.0186 66.3109 26.7907 65.3665 28.1227L66.9199 30.0977C66.9199 30.0977 66.9199 30.1007 66.9199 30.1038L68.5442 32.1649C68.5442 32.1649 68.5473 32.1649 68.5503 32.1649C68.8733 32.0634 69.4148 32.0203 69.667 31.7711C69.1933 32.411 67.5475 32.4602 66.9999 33.1862C65.874 33.9952 65.7725 35.5426 65.2311 36.7177C64.6559 37.6344 64.0191 38.9356 64.3759 39.9262C63.8991 38.951 64.4251 37.6036 65.0096 36.6131C65.5233 34.8966 66.1509 32.8017 68.1504 32.2972L65.0158 28.3135C64.7266 28.3965 64.4651 28.9287 64.136 28.6672C62.1826 30.0146 61.232 33.1923 58.8787 33.7768L58.8726 33.7737ZM27.446 38.5788C27.6367 38.3081 27.8428 38.0558 28.0581 37.8282C28.2273 38.9633 28.7564 39.8923 29.5132 40.6614C32.208 43.4023 37.8436 44.0698 40.7783 44.4205C40.5506 44.4144 39.6401 44.3836 38.3665 44.2452C35.6871 43.8945 31.6204 43.2639 29.1994 41.1813C28.3965 40.4891 27.7721 39.6339 27.4429 38.5757L27.446 38.5788ZM48.7518 28.738L47.4906 30.9036C45.5403 32.9001 43.3808 34.832 42.9347 30.9682L45.4818 29.5778C45.4357 30.0085 45.2019 30.2361 45.0727 30.6945C46.1155 29.9469 47.7736 29.4332 48.7518 28.738ZM49.8347 28.6857C49.81 28.7041 49.7824 28.7195 49.7547 28.738L49.8347 28.6857ZM44.8758 38.4865C48.0597 38.5142 51.8065 39.2433 54.7689 40.4061C52.1664 39.6955 47.5706 38.8064 44.8758 38.4865ZM43.833 33.9583C43.9899 34.8904 43.5961 35.7764 43.1347 36.6623C43.1316 36.6623 43.1285 36.6623 43.1254 36.6623C42.5317 37.8067 41.8242 38.9572 42.0426 40.2276C42.0795 41.0798 42.5871 42.0764 43.2208 42.5963C43.3069 42.6671 43.3931 42.7286 43.4823 42.7809C43.2946 42.6978 43.1224 42.5933 42.9655 42.4702C41.8488 41.5843 41.5166 39.7939 41.9842 38.4311C42.4025 36.8284 43.9529 35.6287 43.836 33.9583H43.833ZM57.7897 21.9795C57.7313 20.5245 59.2694 19.6632 59.534 21.4258C59.7708 21.5704 59.7924 21.835 59.857 22.1087C60.0108 22.3856 60.0661 22.7794 59.6447 22.8224C58.7588 23.1054 58.6757 24.2652 58.5803 25.025C58.2173 30.1561 56.6731 30.4484 52.0218 31.8357C52.1757 32.6171 51.908 34.7612 51.6189 36.4193H51.6096C51.4558 37.2868 51.2989 38.0189 51.1913 38.3481C51.4435 37.3698 51.9388 33.1154 51.6465 31.9188C51.6404 31.9188 51.6342 31.9188 51.6312 31.9188C51.4158 30.6852 50.7852 29.5347 49.8685 28.6857C51.6035 28.4765 53.6184 28.9933 55.2273 27.9782C56.2024 26.2493 57.5744 24.499 57.7251 22.4564L51.5327 25.8402L49.1394 27.1353L49.1333 27.1445C48.555 27.4614 47.8351 27.8551 47.0691 28.2704C45.4326 29.1656 43.5838 30.1746 42.4702 30.7867L36.6961 34.2752L42.1841 31.3712C41.2828 34.1583 40.1846 35.0873 38.0035 36.4562C37.9974 36.4562 37.9912 36.4562 37.9882 36.4562C37.7882 36.5823 37.5821 36.7085 37.3637 36.8438C36.9638 37.1514 36.5454 37.0499 36.1394 36.7546C36.1055 36.73 36.0686 36.7023 36.0348 36.6746C36.0255 36.6685 36.0194 36.6623 36.0102 36.6562C35.9855 36.6346 35.9609 36.6131 35.9332 36.5916C35.9148 36.5762 35.8994 36.5608 35.881 36.5454C35.8686 36.5331 35.8563 36.5208 35.844 36.5116C35.1396 35.844 34.4936 34.7458 34.0783 34.4228C33.7245 34.0291 33.8414 33.3554 34.309 33.1093L37.3729 31.3743C38.2865 30.7744 39.7047 30.9098 40.7414 30.9006L35.681 33.9645C39.7662 31.8327 45.2665 28.8426 49.284 26.6339C49.3025 26.68 49.324 26.7231 49.3455 26.7661C49.9885 26.397 50.2899 26.154 50.8898 25.7541V25.7479L50.9882 25.6925C52.8709 24.6651 55.9225 22.9947 57.799 21.9734L57.7897 21.9795ZM44.9004 28.778L42.744 29.9469C42.5963 28.9779 43.9714 28.1474 44.9004 28.778ZM50.3638 22.0011C50.3053 20.546 51.8465 19.6878 52.108 21.4474C52.3448 21.5919 52.3664 21.8596 52.431 22.1303C52.5848 22.4071 52.6402 22.8009 52.2187 22.844C51.5666 23.0531 51.4251 23.6838 51.219 24.3267V24.3298C51.2128 24.3298 51.219 24.3267 51.219 24.3267C51.219 24.3267 50.9975 23.6376 50.7544 23.2346C50.5145 22.8716 50.21 22.5548 49.8654 22.2933C49.8593 22.2902 49.8562 22.2841 49.85 22.281C50.0285 22.1826 50.2007 22.0903 50.3638 22.0011ZM37.1084 18.1127C37.9512 16.2732 41.0244 16.3839 41.5504 18.4511C38.8741 17.2975 38.8157 19.2079 36.9299 19.9277C36.8377 19.3432 36.8438 18.6941 37.1114 18.1127H37.1084ZM31.968 29.5501C31.0667 27.9289 33.5492 23.7022 35.2411 23.1547C37.6467 22.8317 36.5823 26.0002 35.6072 27.0184C34.8104 26.6369 33.6784 26.4554 33.0478 27.2122C34.4536 26.8215 35.9825 27.5844 37.4344 27.2276C38.6403 27.2706 39.7601 25.3449 40.5014 27.1568L45.7341 24.4497C46.5677 22.0288 50.7206 21.9057 50.7052 24.862C49.1671 24.4282 47.3675 24.5113 46.3647 25.8863C45.9432 25.8248 45.451 25.5172 45.6479 24.945L40.5876 27.5598C40.6337 28.1443 39.8462 28.7165 39.3663 28.2704C39.1971 28.0243 39.0833 27.6859 38.7264 27.6736C36.5516 27.9197 34.2106 30.836 31.9619 29.547L31.968 29.5501ZM27.6705 34.2259H27.6644L20.8506 37.7697L27.326 34.795C26.6308 36.2163 25.8187 37.8836 24.3113 38.5849C22.5517 39.4494 19.8047 41.7904 18.5773 38.7849C18.1589 37.6405 18.0604 36.7915 18.8726 36.2409C21.5458 34.955 23.0408 33.7553 26.2216 34.0967L19.6478 37.3883L27.1137 34.0783C30.2176 32.4879 35.7118 29.6608 38.8126 28.0704C38.8003 28.2058 38.8464 28.3442 38.9479 28.4273C35.9609 29.9623 30.6391 32.6971 27.6705 34.2229V34.2259ZM56.3716 41.5535C51.2682 42.7132 44.9435 43.9806 40.0277 43.3931C42.3595 43.2608 46.46 43.1777 49.3332 42.5071C51.5604 41.9349 53.9014 41.1997 56.2639 40.8367C57.5959 40.6522 58.9618 40.5199 60.3338 40.4461C60.3307 40.443 60.3245 40.4399 60.3215 40.4368C61.4166 40.3784 62.521 40.3568 63.6222 40.3845C63.6222 40.3845 63.6222 40.3845 63.6222 40.3876C67.1937 40.4707 70.7437 41.0275 73.9491 42.2672C75.641 43.0793 77.8774 45.1496 79.0556 46.014C77.8097 45.2665 75.4534 43.39 73.7738 42.6548C68.3442 40.8675 62.0534 40.8398 56.3655 41.5566L56.3716 41.5535ZM79.0464 40.2553C78.7603 40.2338 78.3235 40.203 77.9697 40.1784C77.9697 40.1784 77.9697 40.1784 77.9697 40.1753C77.859 40.1661 77.7544 40.16 77.6652 40.1507L68.6211 39.4955C68.5165 39.4863 68.4365 39.3971 68.4427 39.2925C68.4458 39.2156 68.5011 39.154 68.5688 39.1294C68.5903 39.1233 68.6149 39.1202 68.6395 39.1202C69.6824 39.1971 78.2896 39.8185 79.0894 39.877C79.0771 40 79.0833 40.1292 79.1079 40.2615L79.0495 40.2553H79.0464ZM79.1171 39.4924L78.0928 39.4186C77.9759 38.3265 76.7823 37.6775 77.0899 36.5454C77.4098 36.8315 77.7851 37.0991 78.2343 37.3698C78.2835 38.2158 79.2309 38.6711 79.1171 39.4893V39.4924ZM80.6029 40.4799C80.4922 40.2984 80.1846 40.3322 80.1077 40.526C79.1879 40.2984 79.8893 39.6093 79.6524 38.9356C79.5293 38.5726 79.3048 38.2896 79.1048 37.9851C78.8126 37.7144 78.9018 37.216 78.6557 36.9515C77.7236 36.5577 77.3821 35.7333 76.6715 35.5057C76.0163 34.6905 75.5026 33.2969 76.0532 32.2879C77.7574 33.0662 80.4922 36.1024 80.5291 38.0435C80.3538 38.2343 80.403 38.6495 80.6491 38.7572C80.8521 39.1294 81.3074 39.5078 81.3628 39.9016H81.3843C81.3843 39.9016 81.3843 39.92 81.3904 39.9262H81.3628V39.9477C81.3843 40.6645 81.0798 40.4307 80.6029 40.4799ZM97.4544 40.4922C96.9653 40.9998 95.9256 43.6915 94.9996 43.553C91.7419 43.6884 90.5606 43.6053 88.1243 41.2766L95.4118 41.5289L87.5798 40.8798L81.9226 40.4676C81.9688 40.3445 81.9934 40.2184 81.9842 40.0892C85.4172 40.3968 92.6617 40.766 96.1409 40.886L89.1148 40.243C89.3978 40.1753 91.3235 39.4647 91.5727 39.5017H96.9007C97.396 39.4832 97.7282 40.0861 97.4514 40.4953H97.4575L97.4544 40.4922Z" fill="#B22234"/>
<path d="M33.7061 39.071C32.9309 38.6926 32.1987 37.5821 32.0911 36.6162C31.5527 34.3859 33.9522 32.3464 33.4538 30.233C33.6815 31.888 32.2141 33.1923 31.9065 34.8197C31.4789 36.4101 32.128 38.4927 33.7061 39.071Z" fill="white"/>
<path d="M50.7298 25.8956V25.8525C50.7298 25.8525 50.7206 25.8463 50.7175 25.8402L50.6714 25.6556C50.6222 25.4618 50.453 25.3203 50.253 25.3111L49.5916 25.2772C49.4963 25.2711 49.3978 25.2988 49.3179 25.3511L48.798 25.6956C48.6842 25.7725 48.6103 25.8956 48.598 26.034C48.5796 26.2524 48.6011 26.4985 48.5426 26.72C48.4904 26.9292 48.3519 27.0491 48.2166 27.206C47.9643 27.5013 47.8382 27.9443 47.5829 28.2396C47.0138 28.9041 46.5216 29.5501 45.9248 30.0731C45.7833 30.1961 45.4972 30.3653 45.3741 30.5099C45.2203 30.6514 46.1309 30.4822 46.2324 30.6637C46.3185 30.8175 43.9253 33.0047 44.0114 33.1585C44.0575 33.2416 44.8943 33.1308 45.2265 32.9462C46.5493 32.211 47.6075 31.0821 48.3058 29.7408L49.5947 27.2614L49.7362 27.0799L50.4622 27.0215C50.6375 27.0061 50.7914 26.8923 50.8529 26.7261C50.8836 26.64 50.8898 26.5477 50.8683 26.4616L50.7298 25.8956Z" fill="white"/>
<path d="M46.9584 28.4734L46.7646 28.4334L47.8936 27.7782C48.1797 27.6121 48.4627 27.446 48.7488 27.2799L49.3055 26.9569C49.3055 26.9569 49.3332 26.9353 49.3455 26.9322C49.4194 26.9199 49.4686 27.0461 49.4194 27.0891C49.4009 27.1076 49.3671 27.1168 49.3455 27.1322L49.0779 27.2829L48.2566 27.7444L47.4106 28.2181L46.9645 28.4673H46.9584V28.4734Z" fill="#B22234"/>
<path d="M45.368 23.613C45.368 23.613 46.8784 21.4843 49.3578 22.0318C49.3578 22.0318 47.2476 21.8319 45.368 23.613Z" fill="#B22234"/>
<path d="M51.5143 24.2559C51.5143 24.2559 51.3389 24.5912 51.2651 24.6405L51.2005 24.4128L51.5143 24.2559Z" fill="#B22234"/>
<path d="M79.0987 53.7599C78.4096 53.7537 77.8405 53.5507 77.8436 52.8032C77.8497 51.3482 78.3942 51.7142 78.3942 51.7142C78.3942 51.7142 77.3883 49.6685 79.7262 50.0438L79.9323 50.3822C79.9323 50.3822 81.2366 49.6962 81.6181 50.9083C81.6181 50.9083 82.9009 49.0471 84.0852 51.0898C84.7466 52.231 84.5466 54.3167 83.6638 56.1194C83.7561 56.0855 83.8514 56.0517 83.9591 56.0086C84.0329 55.9809 84.1129 55.9502 84.1929 55.9163C84.3344 55.861 84.482 55.8025 84.6359 55.741C84.7435 55.498 85.851 54.9135 85.851 54.8489C85.851 54.0706 84.9281 51.2282 83.6976 49.2286C83.5592 48.9733 83.3961 48.7334 83.2116 48.5119C83.1962 48.4934 83.1808 48.4719 83.1654 48.4504C83.1654 48.4504 83.1623 48.4504 83.1593 48.4504C83.0178 48.2842 82.867 48.1243 82.704 47.9797L79.7939 45.408C79.1048 45.2357 78.4742 44.885 78.0251 44.319C77.4837 43.6392 76.9146 42.9901 76.4377 42.2887C76.3239 42.2364 76.2101 42.178 76.0994 42.1103C75.6625 41.855 75.2319 41.5935 74.7981 41.332C74.3213 41.5227 73.8107 41.6119 73.2785 41.5566C72.531 41.4766 71.7804 41.3812 71.0328 41.2828C72.1157 41.4797 73.1185 41.8242 73.9768 42.2518C74.8535 42.6732 75.5764 43.2146 76.1763 43.7007C76.7854 44.1775 77.3175 44.5959 77.7574 44.9373C78.628 45.6295 79.1264 46.0263 79.1264 46.0263C79.1264 46.0263 78.5973 45.6725 77.6713 45.0542C77.2099 44.7404 76.6531 44.3621 76.0102 43.9252C75.3734 43.4823 74.6535 43.0147 73.7953 42.6363C72.9401 42.2549 71.968 41.9626 70.9067 41.818C69.83 41.6581 68.6918 41.5227 67.5137 41.3935C66.3355 41.2674 65.1142 41.1813 63.8745 41.129C62.6348 41.0767 61.3766 41.0767 60.1215 41.1567C58.8572 41.2243 57.6175 41.3474 56.387 41.5381C55.1627 41.7319 53.966 41.9688 52.8155 42.2456C51.665 42.5225 50.5453 42.8086 49.4624 43.027C48.3735 43.2454 47.3275 43.3315 46.3739 43.39C44.4605 43.5007 42.8701 43.4515 41.7565 43.4392C40.6429 43.4146 40.0092 43.3746 40.0092 43.3746C40.0092 43.3746 40.6429 43.3438 41.7565 43.2915C42.867 43.2423 44.4544 43.1408 46.3432 42.9624C47.2875 42.867 48.2996 42.7409 49.3455 42.4856C50.3945 42.2303 51.4958 41.8919 52.6555 41.5966C53.8153 41.2982 55.0273 41.0121 56.2762 40.8152C57.519 40.6122 58.808 40.4737 60.0815 40.3999C61.9272 40.2953 63.7699 40.3568 65.5449 40.5107C64.8497 40.4214 64.1575 40.3353 63.4715 40.2676C60.4014 39.9569 57.3591 40.1384 54.289 40.203C54.3321 40.2184 54.3782 40.2369 54.4182 40.2492C54.6797 40.3507 54.8273 40.4061 54.8273 40.4061C54.8273 40.4061 54.5197 40.3292 54.0183 40.2061C53.9014 40.2061 53.7845 40.2123 53.6676 40.2123C50.2746 40.2584 46.8815 40.1692 43.4884 40.2492C43.0178 40.2615 42.5471 40.2861 42.0764 40.3199C42.1072 40.566 42.1472 40.7906 42.2149 41.009C42.2887 41.2551 42.3871 41.4766 42.4948 41.6735C42.7163 42.0641 42.9685 42.3502 43.1747 42.5225C43.3777 42.6948 43.51 42.7747 43.51 42.7747C43.51 42.7747 43.4761 42.7563 43.4115 42.7255C43.3469 42.6948 43.2546 42.6425 43.1408 42.5656C42.9193 42.4118 42.6148 42.1564 42.3595 41.7565C42.2333 41.5596 42.1134 41.3289 42.018 41.0767C41.9319 40.8552 41.8642 40.5937 41.8303 40.3384C39.274 40.5383 36.7423 40.9844 34.1675 40.9506C32.7125 40.929 31.3435 40.1446 30.5806 38.9387C30.4422 38.8956 30.3069 38.8495 30.1746 38.8003C29.304 38.4557 28.535 37.9389 27.9812 37.2622C26.6769 38.1666 25.3603 39.8646 24.7051 43.0516C24.6928 43.1131 24.7112 44.5959 24.9327 45.5433C25.0096 45.8786 25.0681 46.217 25.1511 46.5523C25.2373 46.8938 25.3388 47.2322 25.4495 47.5675C25.6741 48.2473 25.9509 48.9118 26.2739 49.5516C26.6 50.2007 26.9784 50.8252 27.3998 51.4158C27.8613 52.0618 28.3842 52.6617 28.9564 53.2123C29.0241 53.2769 29.0917 53.3354 29.1594 53.4C29.1225 53.3631 29.0825 53.3292 29.0487 53.2923C28.9318 53.1785 28.7134 52.9908 28.658 52.8709C28.6057 52.7601 28.6734 52.6925 28.7103 52.6032C28.7472 52.5171 28.8118 52.4464 28.901 52.3848C29.144 52.2156 29.5317 52.1418 29.8331 52.2341C31.5866 52.7571 32.4787 54.9258 34.2506 55.3841C35.1273 55.6118 36.0594 55.3688 36.9607 55.4518C38.4496 55.5872 39.7047 56.5777 41.0921 57.1376C43.0578 57.9282 45.3649 57.8113 47.2414 56.8269C48.112 56.3716 48.8841 55.7441 49.7608 55.3072C50.6406 54.8704 51.6958 54.6366 52.5971 55.0242C52.7632 55.6087 51.8588 55.9009 51.6035 56.4516C51.4097 56.8761 51.665 57.4021 52.0588 57.6575C52.4494 57.9128 52.9386 57.9682 53.4061 58.0051C54.5013 58.0912 55.5995 58.125 56.6977 58.1066C57.4975 58.0943 58.4604 57.9466 58.7834 57.2145C58.9772 56.7777 58.8849 56.2178 59.2017 55.861C59.4171 55.6179 59.7647 55.5441 60.0846 55.4857C61.0567 55.3072 62.0318 55.1288 63.0039 54.9473C62.9239 55.498 62.3948 55.9471 61.835 55.9379C61.8411 56.793 62.9362 57.1345 63.7914 57.1653C66.8953 57.2791 70.03 56.55 72.7617 55.0704C73.906 54.4521 75.2042 53.6799 76.4162 54.1475C76.5516 54.1998 76.69 54.2767 76.7484 54.4121C76.9607 54.9135 76.0102 54.9689 75.5979 55.3288C75.2503 55.6333 75.3703 56.2455 75.7241 56.547C76.0778 56.8484 76.5669 56.9161 77.0284 56.9499C77.3022 56.9715 77.579 56.9869 77.8528 56.993C78.0189 56.5531 78.0712 56.0824 77.8989 55.6272L77.9328 55.6087C78.3296 55.984 78.3942 56.5039 78.2558 56.993C78.5265 56.993 78.8003 56.9869 79.071 56.9745C79.4401 56.4393 79.9293 55.6179 80.0584 54.8827C80.16 54.2921 79.6985 53.763 79.1018 53.7568L79.0987 53.7599ZM81.4581 49.9854C81.2889 50.01 81.1351 49.89 81.1105 49.7239C81.0859 49.5547 81.2059 49.4009 81.372 49.3763C81.5412 49.3517 81.695 49.4717 81.7196 49.6378C81.7442 49.8039 81.6242 49.9608 81.4581 49.9854ZM82.7009 49.0287C82.8086 49.0133 82.9101 49.0902 82.9255 49.1979C82.9409 49.3055 82.864 49.4071 82.7563 49.4224C82.6486 49.4378 82.5471 49.3609 82.5317 49.2533C82.5163 49.1456 82.5932 49.0441 82.7009 49.0287ZM81.0428 47.3768C81.1382 47.3122 81.2674 47.3183 81.3689 47.3706C81.4704 47.4198 81.5504 47.509 81.6181 47.6013C81.8703 47.9551 81.9995 48.5119 81.8457 48.9333C81.7904 49.0902 81.6427 49.1394 81.5627 48.961C81.5197 48.8657 81.5412 48.7149 81.5073 48.6103C81.4704 48.5027 81.4181 48.4011 81.3505 48.3119C81.2366 48.1643 81.0798 48.0474 80.9875 47.8843C80.8952 47.7213 80.886 47.4813 81.0428 47.3768ZM80.6368 46.6139C80.7721 46.5954 80.8952 46.6877 80.9136 46.823C80.9321 46.9584 80.8398 47.0814 80.7045 47.0999C80.5691 47.1184 80.4461 47.0261 80.4276 46.8907C80.4091 46.7554 80.5014 46.6323 80.6368 46.6139ZM38.385 44.2421C36.9084 44.076 34.9396 43.7714 33.0355 43.147C32.5617 42.9901 32.088 42.8209 31.6358 42.6209C31.1805 42.4271 30.7468 42.1995 30.3315 41.9657C29.9254 41.7165 29.5409 41.4581 29.2025 41.169C29.0364 41.0244 28.8672 40.886 28.7288 40.726C28.5811 40.5753 28.4427 40.4276 28.3258 40.2676C28.1996 40.1169 28.0889 39.9631 27.9997 39.8031C27.9043 39.6493 27.812 39.5047 27.7505 39.3509C27.6029 39.0618 27.5198 38.791 27.4552 38.5696C27.649 38.2958 27.852 38.0405 28.0735 37.8159C28.0766 37.8436 28.0828 37.8805 28.0889 37.9328C28.1104 38.0374 28.1074 38.1943 28.1597 38.385C28.2089 38.5757 28.2642 38.8126 28.3811 39.0648C28.4273 39.1971 28.5011 39.3263 28.578 39.4617C28.6488 39.6032 28.738 39.7416 28.8426 39.88C28.9379 40.0277 29.0548 40.1661 29.181 40.3076C29.2979 40.4553 29.4455 40.5876 29.5932 40.7291C29.8885 41.009 30.2361 41.2674 30.6083 41.5227C30.9898 41.7627 31.3958 42.0026 31.8265 42.2087C32.2541 42.4241 32.7063 42.6117 33.1616 42.787C34.995 43.4884 36.9392 43.8853 38.4004 44.1221C39.8646 44.3528 40.8521 44.4174 40.8521 44.4174C40.8521 44.4174 39.8616 44.4021 38.3819 44.239L38.385 44.2421ZM77.3114 55.701C77.1545 55.7225 77.0099 55.6149 76.9884 55.458C76.9669 55.3011 77.0745 55.1565 77.2314 55.135C77.3883 55.1134 77.5329 55.2211 77.5544 55.378C77.576 55.5349 77.4683 55.6795 77.3114 55.701ZM79.0802 55.498C79.0894 55.4026 79.0894 55.3072 79.0864 55.215C79.0679 55.3565 79.0495 55.501 79.0279 55.6425C78.8649 55.4734 78.6711 55.3288 78.4619 55.2242C78.3142 55.1504 78.1543 55.095 78.0097 55.015C77.862 54.935 77.7267 54.8274 77.6498 54.6797C77.5729 54.532 77.5729 54.3382 77.6775 54.209C77.7605 54.1075 77.8959 54.0614 78.0281 54.0521C78.3665 54.0306 78.6988 54.2336 78.8803 54.5197C79.0125 54.7258 79.0741 54.9689 79.0864 55.215C79.0956 55.1504 79.1048 55.0827 79.1141 55.0181L79.0833 55.498H79.0802Z" fill="#B22234"/>
<path d="M36.0409 51.6066C35.7764 51.5604 35.6441 51.5358 35.3826 51.4835V53.2985C34.4105 53.1077 33.9245 52.9909 32.9493 52.714V45.4972C34.3398 45.894 35.035 46.0417 36.4224 46.2693C37.0899 46.377 37.6682 46.5616 38.1635 46.8353C38.6588 47.1091 39.0402 47.4567 39.3079 47.8905C39.5755 48.3242 39.7108 48.8134 39.7108 49.3609C39.7108 49.8777 39.5939 50.3207 39.3601 50.6868C39.1264 51.0559 38.791 51.3328 38.3512 51.5143C38.9572 52.4679 39.2617 52.9386 39.8646 53.8645C38.8249 53.7999 38.305 53.7537 37.2683 53.6122C36.7761 52.8186 36.5331 52.4187 36.0409 51.6066ZM37.0099 48.4596C36.8438 48.2873 36.5977 48.1766 36.2686 48.1212C35.9148 48.0628 35.7364 48.0289 35.3826 47.9612V49.6501C35.7364 49.7208 35.9148 49.7516 36.2686 49.8131C36.5977 49.8685 36.8469 49.8316 37.0099 49.7055C37.176 49.5824 37.256 49.3855 37.256 49.1179C37.256 48.8503 37.173 48.6319 37.0099 48.4596Z" fill="white"/>
<path d="M41.169 53.6492C40.9106 53.3908 40.7814 53.0647 40.7814 52.674C40.7814 52.2833 40.9106 51.9695 41.169 51.7327C41.4274 51.4958 41.7504 51.382 42.1441 51.382C42.5348 51.382 42.8609 51.502 43.1193 51.7419C43.3777 51.9818 43.5069 52.2956 43.5069 52.6863C43.5069 53.077 43.3777 53.4031 43.1193 53.6584C42.8609 53.9137 42.5379 54.0429 42.1441 54.0398C41.7504 54.0368 41.4274 53.9045 41.169 53.6461" fill="white"/>
<path d="M50.0592 52.1603C48.961 52.2925 48.4134 52.351 47.3183 52.4464C47.1245 52.9662 47.0261 53.2277 46.8353 53.7445C45.8448 53.8245 45.3495 53.8583 44.3621 53.8983C45.6233 50.9606 46.2539 49.4717 47.5152 46.4724C48.4719 46.3862 48.9487 46.3339 49.9054 46.2201C51.1667 48.9579 51.7973 50.3145 53.0585 53.0278C52.0526 53.1662 51.5481 53.2339 50.5422 53.36C50.3484 52.8801 50.2499 52.6402 50.0592 52.1603ZM49.3886 50.4868C49.1087 49.7916 48.9672 49.444 48.6872 48.7488C48.4073 49.5024 48.2658 49.8808 47.9859 50.6345C48.5457 50.5791 48.8257 50.5514 49.3886 50.4868Z" fill="white"/>
<path d="M54.3013 52.5786C54.0429 52.3633 53.9137 52.0618 53.9137 51.6681C53.9137 51.2743 54.0429 50.9421 54.3013 50.6591C54.5597 50.3791 54.8827 50.2099 55.2765 50.1546C55.6672 50.0992 55.9932 50.1761 56.2516 50.3822C56.51 50.5883 56.6392 50.8898 56.6392 51.2805C56.6392 51.6712 56.51 52.0126 56.2516 52.2987C55.9932 52.5848 55.6702 52.757 55.2765 52.8124C54.8858 52.8678 54.5597 52.7909 54.3013 52.5756" fill="white"/>
<path d="M60.3984 46.6415V47.8782C61.6012 47.7336 62.2041 47.669 63.4069 47.5644V49.3978C62.2041 49.5024 61.6012 49.567 60.3984 49.7116V52.0218C59.4263 52.1387 58.9402 52.2033 57.9651 52.3356V45.1188C60.3122 44.7989 61.4843 44.642 63.8314 44.4574V46.2909C62.4594 46.4016 61.7734 46.4754 60.3984 46.6385" fill="white"/>
<path d="M65.0404 51.3143C64.782 51.0805 64.6528 50.7667 64.6528 50.3761C64.6528 49.9854 64.782 49.6562 65.0404 49.3978C65.2988 49.1394 65.6218 48.9979 66.0155 48.9795C66.4062 48.9641 66.7323 49.0748 66.9907 49.3117C67.2491 49.5486 67.3783 49.8654 67.3783 50.2561C67.3783 50.6468 67.2491 50.9698 66.9907 51.2282C66.7323 51.4866 66.4093 51.6219 66.0155 51.6373C65.6249 51.6527 65.2988 51.5481 65.0404 51.3112" fill="white"/>
<path d="M69.9131 46.1955C69.0671 46.1617 68.6457 46.1555 67.7997 46.1617V44.2759C70.4637 44.2544 71.7957 44.3221 74.4597 44.7835V46.6692C73.6138 46.5216 73.1923 46.4662 72.3464 46.3739V51.7019C71.3743 51.5973 70.8883 51.5635 69.9131 51.5235V46.1955Z" fill="white"/>
<path d="M75.2657 51.8773C75.0073 51.5758 74.8781 51.2313 74.8781 50.8375C74.8781 50.4437 75.0073 50.1515 75.2657 49.9577C75.5241 49.7639 75.8471 49.7116 76.2409 49.8039C76.6315 49.8962 76.9576 50.1023 77.216 50.4161C77.4744 50.7298 77.6036 51.0867 77.6036 51.4774C77.6036 51.868 77.4744 52.1541 77.216 52.3325C76.9576 52.514 76.6346 52.554 76.2409 52.4617C75.8502 52.3695 75.5241 52.1757 75.2657 51.8742" fill="white"/>
<path d="M29.4455 53.6707C29.3471 53.5846 29.2486 53.4923 29.1533 53.4031C29.1902 53.4369 29.224 53.4738 29.2609 53.5077C29.3163 53.5569 29.3809 53.6399 29.4455 53.6738V53.6707Z" fill="#B22234"/>
<path d="M80.323 56.8792C80.323 56.8792 80.6798 56.8453 81.129 56.7623C80.8613 56.8084 80.5937 56.8484 80.323 56.8792Z" fill="#B22234"/>
<path d="M82.7255 53.5015C82.2087 52.674 81.4028 53.1262 81.5658 53.8491C81.7288 54.5689 82.2672 54.8981 82.0242 54.9319C81.7811 54.9658 80.8921 54.2213 80.9936 53.2462C81.0982 52.271 80.9844 51.2343 80.4584 51.2436C79.9323 51.2528 79.314 51.7111 79.4155 52.2249C79.517 52.7386 80.686 52.9355 80.3045 53.28C80.0923 53.4707 79.7724 53.3723 79.5293 53.2493C80.1015 53.6799 81.1136 54.7843 80.3168 56.8792C80.5876 56.8453 80.8552 56.8084 81.1228 56.7623C81.5012 56.6915 81.9473 56.5839 82.2918 56.427C82.2918 56.427 83.2393 54.3321 82.7225 53.5046L82.7255 53.5015Z" fill="#B22234"/>
<path d="M79.5324 53.2493C79.3355 53.1016 79.191 53.0308 79.191 53.0308C79.191 53.0308 79.3386 53.1477 79.5324 53.2493Z" fill="#B22234"/>
<path d="M85.3342 56.6208C86.5247 55.5749 86.58 55.461 87.2906 56.9407C87.3245 56.6608 87.3029 56.3808 87.2199 56.1009C86.7584 54.7566 85.5556 55.6456 85.3311 56.6208H85.3342Z" fill="#B22234"/>
<path d="M84.1498 49.2133C84.7497 49.0441 85.3157 48.8349 85.8971 49.1087C86.1032 49.1887 86.2724 49.3209 86.4816 49.4255C86.2478 48.2196 84.642 48.1612 84.1498 49.2133Z" fill="#B22234"/>
<path d="M88.598 52.351C88.515 52.351 88.4288 52.3572 88.3458 52.3725C87.6259 52.4648 86.9522 53.1939 87.103 53.9691C87.226 54.6335 87.7398 55.1965 88.2996 55.5257C87.9797 54.9135 87.4106 54.1106 87.7028 53.4431C88.0135 52.7909 88.9118 52.5263 89.5978 52.7755C89.3671 52.5048 89.0041 52.3602 88.6411 52.351C88.6811 52.4125 88.7211 52.471 88.7641 52.5294C88.7057 52.474 88.6534 52.4125 88.6011 52.351H88.598Z" fill="#B22234"/>
<path d="M89.8285 49.5916C88.9087 49.6224 87.8874 50.4099 88.1027 51.4097C88.1735 51.7696 88.3612 52.0834 88.5949 52.3541C88.6072 52.3541 88.6226 52.3541 88.6349 52.3541C88.2381 51.7296 88.0843 50.8621 88.7549 50.3884C89.3578 49.9239 90.2653 49.9177 90.816 50.4776C91.6465 51.2836 91.6465 52.7017 91.2836 53.763C91.0221 54.529 90.496 55.1688 89.9639 55.7871C88.032 58.0328 85.5403 59.7278 82.7255 60.7121C85.5064 60.2292 88.0689 58.7249 90.0315 56.7131C91.1359 55.5626 92.151 54.3136 92.1603 52.6248C92.231 51.2282 91.4128 49.5639 89.8254 49.5947L89.8285 49.5916Z" fill="#B22234"/>
<path d="M88.7611 52.5263C88.718 52.471 88.678 52.4094 88.638 52.3479C88.6257 52.3479 88.6103 52.3479 88.598 52.3479C88.6503 52.4094 88.7026 52.471 88.7611 52.5263Z" fill="#B22234"/>
<path d="M74.0045 58.6388H73.9645C73.9399 58.9618 73.8476 59.2786 73.7153 59.5739C73.4108 60.2415 72.7955 60.7368 72.0972 60.9429C71.8726 61.0198 71.6142 61.0628 71.3835 61.1059V61.1459C72.8816 61.5827 74.4905 60.1738 74.0075 58.6357L74.0045 58.6388Z" fill="#B22234"/>
<path d="M74.6382 59.2202C75.1058 61.2413 73.5092 62.4317 71.7096 62.7886C71.1374 62.9116 70.5529 62.9732 69.9685 63.0039V63.0439C70.5622 63.1608 71.1713 63.1793 71.7773 63.1024C72.7124 62.9916 73.6599 62.6286 74.3028 61.9088C74.9458 61.192 75.1427 60.0631 74.6751 59.2079L74.6351 59.2202H74.6382Z" fill="#B22234"/>
<path d="M77.2314 58.0358L76.9853 58.3219L77.013 58.3496C77.5852 58.1681 78.0804 57.6052 78.2527 56.9961C78.1204 56.9961 77.9851 56.9961 77.8528 56.9961C77.7082 57.3775 77.4775 57.7344 77.2314 58.0358Z" fill="white"/>
<path d="M77.9328 55.6087L77.8989 55.6272C78.0743 56.0794 78.022 56.5531 77.8528 56.993C77.9851 56.9961 78.1204 56.993 78.2527 56.993C78.3942 56.5039 78.3296 55.984 77.9297 55.6087H77.9328Z" fill="white"/>
<path d="M84.0698 48.0935C85.3219 47.2045 86.9061 46.9399 87.8659 48.3765C88.2012 48.8503 88.4258 49.3948 88.6073 49.9485L88.6565 49.9331C88.6565 49.3209 88.518 48.7057 88.2012 48.1427C87.0292 46.0171 84.3928 46.7861 83.3469 48.5949L83.3838 48.6319C83.5961 48.435 83.8299 48.2566 84.0698 48.0966V48.0935Z" fill="#B22234"/>
<path d="M82.7563 49.4255C82.864 49.4101 82.9409 49.3086 82.9255 49.201C82.9101 49.0933 82.8086 49.0164 82.7009 49.0318C82.5932 49.0471 82.5163 49.1487 82.5317 49.2563C82.5471 49.364 82.6486 49.4409 82.7563 49.4255Z" fill="white"/>
<path d="M81.3505 48.3119C81.4181 48.4011 81.4704 48.5027 81.5073 48.6103C81.5412 48.7149 81.5197 48.8687 81.5627 48.961C81.6427 49.1394 81.7904 49.0902 81.8457 48.9333C81.9965 48.5119 81.8703 47.9551 81.6181 47.6013C81.5535 47.509 81.4735 47.4198 81.3689 47.3706C81.2674 47.3214 81.1351 47.3122 81.0428 47.3768C80.889 47.4813 80.8952 47.7213 80.9875 47.8843C81.0798 48.0474 81.2366 48.1643 81.3505 48.3119Z" fill="white"/>
<path d="M79.0802 55.498L79.111 55.0181C79.1018 55.0827 79.0925 55.1504 79.0833 55.215C79.0894 55.3103 79.0864 55.4057 79.0771 55.498H79.0802Z" fill="white"/>
<path d="M80.7045 47.0999C80.8398 47.0814 80.9321 46.9584 80.9136 46.823C80.8952 46.6877 80.7721 46.5954 80.6368 46.6139C80.5014 46.6323 80.4091 46.7554 80.4276 46.8907C80.4461 47.0261 80.5691 47.1184 80.7045 47.0999Z" fill="white"/>
<path d="M51.1174 26.4001L57.2176 23.0931C57.2176 23.0931 57.2176 23.6161 57.033 24.1329C56.8915 24.5328 56.144 25.7664 56.0332 25.9509C55.9225 26.1355 55.2026 27.3752 55.2026 27.3752L55.1596 27.4552C55.0458 27.6613 54.8858 27.8397 54.6889 27.9689C54.6089 28.0212 54.5228 28.0674 54.4551 28.0797C54.2429 28.1227 53.3569 28.3627 52.6248 28.3904C51.8926 28.4181 49.8347 28.4765 49.8347 28.4765L50.13 27.2583C50.13 27.2583 50.7021 27.2645 50.8836 27.0522C51.0651 26.84 51.1205 26.4031 51.1205 26.4031L51.1174 26.4001Z" fill="white"/>
<path d="M31.5158 54.7566C31.2605 54.2921 30.9621 54.086 30.1623 53.5353C29.4609 53.0524 28.7411 52.837 27.8705 52.837C27.4829 52.837 27.0553 52.8801 26.5662 52.9724C26.0586 53.0647 25.4034 53.3354 25.1665 54.0798L25.1542 54.1229L25.1142 54.1444C25.0465 54.1813 24.9665 54.1998 24.8773 54.1998C24.4744 54.1998 23.9114 53.8122 23.7976 53.4584C23.6807 53.0862 23.8283 52.634 24.1667 52.3356C24.4928 52.0465 24.9296 51.9265 25.2311 51.8619C25.5849 51.785 25.9356 51.7481 26.277 51.7481C26.6431 51.7481 26.9938 51.7911 27.326 51.8803C27.3075 51.7327 27.3322 51.5727 27.4029 51.422C27.5229 51.1544 27.7567 50.9452 28.0243 50.8621C28.135 50.8283 28.2489 50.8098 28.3688 50.8098C28.7226 50.8098 29.0979 50.9636 29.4055 51.2282C29.7378 51.5143 29.9715 51.9019 30.1746 52.2556C30.2976 52.188 30.4361 52.1541 30.5837 52.1541C30.9744 52.1541 31.3958 52.4002 31.6081 52.7571C31.7896 53.0647 31.848 54.4274 31.7281 54.7443L31.6389 54.9781L31.5189 54.7597L31.5158 54.7566Z" fill="#B22234"/>
<path d="M28.3627 50.9236C28.7072 50.9236 29.0579 51.0836 29.3225 51.3143C29.6701 51.6158 29.9039 52.0218 30.1284 52.4187C30.2607 52.3141 30.4176 52.2679 30.5776 52.2679C30.9344 52.2679 31.3128 52.4956 31.5035 52.8124C31.6604 53.077 31.7281 54.4028 31.6142 54.7012C31.3435 54.206 31.0328 53.9968 30.2023 53.4246C29.4578 52.9109 28.6888 52.7201 27.8674 52.7201C27.4429 52.7201 27.003 52.7724 26.5416 52.8555C25.834 52.9878 25.2711 53.3538 25.0527 54.0429C25.0004 54.0706 24.9389 54.086 24.8712 54.086C24.5143 54.086 23.9975 53.723 23.9022 53.4246C23.7914 53.0678 23.9606 52.6709 24.2375 52.4218C24.5143 52.1726 24.8835 52.0526 25.2496 51.9757C25.5849 51.9049 25.9263 51.865 26.2709 51.865C26.6831 51.865 27.0922 51.9234 27.486 52.0526C27.2983 51.6342 27.6121 51.1113 28.052 50.9759C28.1535 50.9452 28.2581 50.9298 28.3627 50.9298M28.3627 50.6929C28.2335 50.6929 28.1043 50.7114 27.9843 50.7483C27.6859 50.8406 27.4275 51.0744 27.2922 51.3697C27.2399 51.4866 27.2091 51.6096 27.203 51.7296C26.9076 51.6619 26.5969 51.6312 26.2739 51.6312C25.9263 51.6312 25.5664 51.6712 25.2065 51.7481C24.8927 51.8157 24.4374 51.9388 24.0898 52.2495C23.7207 52.5786 23.5576 53.0801 23.6868 53.4923C23.813 53.8922 24.4221 54.3167 24.8743 54.3167C24.985 54.3167 25.0834 54.2921 25.1665 54.2459L25.2465 54.2029L25.2742 54.1167C25.4495 53.563 25.8925 53.2154 26.5846 53.0862C27.0676 52.997 27.486 52.9539 27.8674 52.9539C28.7134 52.9539 29.4148 53.1662 30.0731 53.6184L30.0946 53.6338C30.9006 54.1875 31.1713 54.3751 31.4143 54.815L31.6573 55.2549L31.8327 54.7843C31.9619 54.4428 31.9003 53.0308 31.7035 52.6986C31.4697 52.3049 31.0175 52.0403 30.5806 52.0403C30.4514 52.0403 30.3284 52.0649 30.2176 52.108C30.0208 51.7696 29.7931 51.4158 29.4763 51.142C29.1502 50.859 28.7441 50.696 28.3658 50.696L28.3627 50.6929Z" fill="white"/>
<path d="M25.388 54.129C25.388 54.129 30.7437 54.3167 31.2482 54.6243C31.2482 54.6243 26.9138 51.6958 25.388 54.129Z" fill="#B22234"/>
</svg>
