<svg width="28" height="25" viewBox="0 0 28 25" fill="none" xmlns="http://www.w3.org/2000/svg">
<path d="M21.3732 18.7686C22.0731 19.4607 22.0795 20.5892 21.3873 21.2891C19.021 23.6821 15.8647 25 12.5 25C9.16112 25 6.02205 23.6998 3.66112 21.3388C1.30019 18.978 0 15.8389 0 12.5C0 9.16112 1.30024 6.0221 3.66117 3.66117C6.0221 1.30024 9.16112 0 12.5 0C15.8647 0 19.021 1.3179 21.3873 3.71091C22.0794 4.4108 22.0731 5.53932 21.3732 6.23141C20.6734 6.9235 19.5448 6.91721 18.8527 6.21732C17.1612 4.5067 14.9051 3.56459 12.5 3.56459C7.57303 3.56459 3.56459 7.57303 3.56459 12.5C3.56459 17.427 7.57303 21.4354 12.5 21.4354C14.9051 21.4354 17.1612 20.4933 18.8528 18.7827C19.5449 18.0828 20.6734 18.0766 21.3732 18.7686ZM27.3774 11.2398L23.8782 7.74057C23.1822 7.04453 22.0537 7.04453 21.3577 7.74057C20.6616 8.43661 20.6616 9.56509 21.3577 10.2611L21.8143 10.7177H12.5C11.5156 10.7177 10.7177 11.5157 10.7177 12.5C10.7177 13.4844 11.5156 14.2823 12.5 14.2823H21.8143L21.3577 14.7389C20.6616 15.435 20.6616 16.5634 21.3577 17.2595C21.7057 17.6075 22.1618 17.7815 22.6179 17.7815C23.074 17.7815 23.5302 17.6075 23.8782 17.2595L27.3774 13.7603C28.0735 13.0643 28.0735 11.9358 27.3774 11.2398Z" fill="#B22234"/>
</svg>
