<svg width="10" height="10" viewBox="0 0 10 10" fill="none" xmlns="http://www.w3.org/2000/svg">
<g clip-path="url(#clip0_294_981)">
<path d="M7.10506 0C7.3158 0 7.51393 0.0821095 7.66324 0.231172C7.8123 0.380351 7.89453 0.578632 7.89453 0.789492C7.89453 1.00035 7.81229 1.19863 7.66324 1.34773L4.01088 5.00004L7.66324 8.65234C7.8123 8.80146 7.89453 8.99973 7.89453 9.21059C7.89453 9.42145 7.81229 9.61973 7.66324 9.76883C7.5142 9.91793 7.3158 10 7.10506 10C6.89432 10 6.69592 9.91795 6.54688 9.76891L2.33633 5.55828C2.18727 5.40916 2.10504 5.2109 2.10504 5.00004C2.10504 4.78918 2.18729 4.5909 2.33633 4.4418L6.54688 0.23125C6.69619 0.0821095 6.89434 0 7.10506 0Z" fill="#FCCA4D"/>
</g>
<defs>
<clipPath id="clip0_294_981">
<rect width="10" height="10" fill="white" transform="matrix(-1 0 0 -1 10 10)"/>
</clipPath>
</defs>
</svg>
