<svg width="10" height="10" viewBox="0 0 10 10" fill="none" xmlns="http://www.w3.org/2000/svg">
<g clip-path="url(#clip0_294_975)">
<path d="M2.89494 10C2.6842 10 2.48607 9.91789 2.33676 9.76883C2.1877 9.61965 2.10547 9.42137 2.10547 9.21051C2.10547 8.99965 2.18771 8.80137 2.33676 8.65227L5.98912 4.99996L2.33676 1.34766C2.1877 1.19854 2.10547 1.00027 2.10547 0.789414C2.10547 0.578555 2.18771 0.380273 2.33676 0.231172C2.4858 0.0820703 2.6842 0 2.89494 0C3.10568 0 3.30408 0.0820508 3.45312 0.231094L7.66367 4.44172C7.81273 4.59084 7.89496 4.7891 7.89496 4.99996C7.89496 5.21082 7.81271 5.4091 7.66367 5.5582L3.45312 9.76875C3.30381 9.91789 3.10566 10 2.89494 10Z" fill="#FCCA4D"/>
</g>
<defs>
<clipPath id="clip0_294_975">
<rect width="10" height="10" fill="white"/>
</clipPath>
</defs>
</svg>
